STARTFONT 2.1
COMMENT
COMMENT Converted from OpenType font "alfredo_heavy.ttf" by "otf2bdf 3.0".
COMMENT
FONT -FreeType-Alfredo Heavy-Medium-R-Normal--66-480-100-100-P-215-ISO10646-1
SIZE 48 100 100
FONTBOUNDINGBOX 83 79 -9 -17
STARTPROPERTIES 19
FOUNDRY "FreeType"
FAMILY_NAME "Alfredo Heavy"
WEIGHT_NAME "Medium"
SLANT "R"
SETWIDTH_NAME "Normal"
ADD_STYLE_NAME ""
PIXEL_SIZE 66
POINT_SIZE 480
RESOLUTION_X 100
RESOLUTION_Y 100
SPACING "P"
AVERAGE_WIDTH 215
CHARSET_REGISTRY "ISO10646"
CHARSET_ENCODING "1"
FONT_ASCENT 50
FONT_DESCENT 15
COPYRIGHT "Converted by ALLTYPE"
_OTF_FONTFILE "alfredo_heavy.ttf"
_OTF_PSNAME "AlfredoHeavy"
ENDPROPERTIES
CHARS 394
STARTCHAR 0020
ENCODING 32
SWIDTH 285 0
DWIDTH 19 0
BBX 0 0 0 0
BITMAP
ENDCHAR
STARTCHAR 0021
ENCODING 33
SWIDTH 315 0
DWIDTH 21 0
BBX 15 48 3 -1
BITMAP
0FE0
3FF8
7FFC
7FFE
FFFE
FFFE
FFFE
FFFE
FFFE
FFFE
FFFE
FFFE
FFFE
7FFE
7FFE
7FFE
7FFC
7FFC
7FFC
3FFC
3FFC
3FF8
1FF8
1FF8
1FF0
0FF0
0FE0
0FE0
07C0
0380
0000
0000
0000
0000
07E0
1FF8
3FFC
7FFE
FFFE
FFFE
FFFE
FFFE
FFFE
FFFE
7FFE
7FFC
1FF8
07E0
ENDCHAR
STARTCHAR 0022
ENCODING 34
SWIDTH 525 0
DWIDTH 35 0
BBX 31 18 2 27
BITMAP
FFF83FFE
FFF83FFC
7FF03FFC
7FF01FFC
7FF01FFC
7FF01FF8
7FF01FF8
3FE01FF8
3FE00FF8
3FE00FF8
3FE00FF0
3FE00FF0
1FC00FF0
1FC007F0
1FC007F0
1FC007E0
1FC007E0
0F8007E0
ENDCHAR
STARTCHAR 0023
ENCODING 35
SWIDTH 570 0
DWIDTH 38 0
BBX 34 45 2 1
BITMAP
0001F81F00
0001F03F00
0001F03E00
0003F03E00
0003E07E00
0003E07C00
0003E07C00
0007E0FC00
0007C0FC00
0007C0F800
000FC0F800
000F81F800
000F81F000
000F81F000
0FFFFFFFC0
1FFFFFFFC0
1FFFFFFFC0
1FFFFFFFC0
1FFFFFFFC0
003E07C000
003E07C000
007E0FC000
007C0FC000
007C0F8000
00FC0F8000
FFFFFFFE00
FFFFFFFE00
FFFFFFFE00
FFFFFFFE00
FFFFFFFE00
01F03E0000
03F03E0000
03E07E0000
03E07C0000
03E07C0000
07C0FC0000
07C0F80000
07C0F80000
0FC1F80000
0F81F80000
0F81F00000
1F81F00000
1F03F00000
1F03E00000
3F03E00000
ENDCHAR
STARTCHAR 0024
ENCODING 36
SWIDTH 660 0
DWIDTH 44 0
BBX 36 56 4 -7
BITMAP
0003FF0000
0003FF0000
0003FF0000
0003FF0000
001FFFF800
007FFFFE00
01FFFFFF80
07FFFFFF80
0FFFFFFFC0
1FFFFFFFC0
3FFFFFFFC0
7FFFFFFFC0
7FFF07FFC0
FFFC01FFC0
FFFC007FC0
FFFC003FC0
FFFE000FC0
FFFF800780
FFFFE00000
FFFFFE0000
FFFFFFC000
FFFFFFF000
7FFFFFFC00
7FFFFFFE00
3FFFFFFF00
1FFFFFFF80
0FFFFFFFC0
07FFFFFFE0
03FFFFFFE0
00FFFFFFF0
003FFFFFF0
0007FFFFF0
0000FFFFF0
78003FFFF0
FC000FFFF0
FE0007FFF0
FF0003FFF0
FF8003FFE0
FFC003FFE0
FFE007FFE0
FFFC0FFFC0
FFFFFFFFC0
7FFFFFFF80
7FFFFFFF00
7FFFFFFE00
3FFFFFFC00
1FFFFFF000
07FFFFC000
00FFFE0000
0007FC0000
0007FC0000
0007FC0000
0007FE0000
0007FE0000
0007FE0000
0003F00000
ENDCHAR
STARTCHAR 0025
ENCODING 37
SWIDTH 780 0
DWIDTH 52 0
BBX 50 50 1 -3
BITMAP
000000003C0000
01FC0000FC0000
07FF0000FC0000
0FFF8001F80000
1FFFC001F80000
3FFFE001F00000
3F9FE003E00000
7F0FF003E00000
7F0FF003E00000
FE07F807C00000
FE07F807C00000
FE07F80F800000
FE07F80F800000
FE07F80F000000
FE07F81F000000
FE07F81E000000
FE07F83E000000
FE07F83C000000
7E0FF03C000000
7F0FF07C000000
3F9FE078000000
3FFFE0F8000000
1FFFC0F0000000
0FFF81F0000000
07FF01E00FE000
01FC01E03FF800
000003C07FFC00
000003C0FFFE00
000007C1FFFF00
00000783FCFF80
00000F83F87F80
00000F03F03F80
00001F07F03FC0
00001E07F03FC0
00003E07F03FC0
00003C07F03FC0
00007C07F03FC0
00007807F03FC0
0000F807F03FC0
0001F007F03FC0
0001F003F03F80
0003F003F87F80
0007E003FCFF00
0007E001FFFF00
000FC000FFFE00
001FC0007FFC00
001F80003FF800
003F00000FE000
007E0000000000
007C0000000000
ENDCHAR
STARTCHAR 0026
ENCODING 38
SWIDTH 855 0
DWIDTH 57 0
BBX 56 48 1 -1
BITMAP
0000FF00000000
0007FFC0000000
001FFFF0000000
007FFFF8000000
00FFFFFC000000
01FFFFFC000000
03FFFFFC000000
03FFFFFC0000F0
07FFF8FC0001F8
07FFF0380001FC
07FFE0000000FC
07FFE000FFE1FE
07FFF003FFFFFE
07FFFE07FFFFFF
03FFFF0FFFFFFF
03FFFF1FFFFFFF
01FFFF1FFFFFFF
00FFFE3FFFFFFF
00FFF83FFFFFFF
03FFE03FFFFFFF
0FFFC07FFFFFFF
1FFFC07FFFFFFE
1FFF807FFFFFFE
3FFF807FFFFFFE
7FFF807FFFFFFC
7FFF807FFFFFF8
FFFF807F1FFFF0
FFFF803E0FFC00
FFFF803E07FC00
FFFFC01C07FC00
FFFFC00007FC00
FFFFE00007FC00
FFFFF00007FC00
FFFFFC000FFC00
FFFFFE001FF800
7FFFFFC07FF800
7FFFFFFFFFF800
7FFFFFFFFFF000
3FFFFFFFFFF000
1FFFFFFFFFE000
1FFFFFFFFFC000
0FFFFFFFFF8000
03FFFFFFFF0000
01FFFFFFFC0000
00FFFFFFF80000
003FFFFFE00000
0007FFFF000000
00007FF8000000
ENDCHAR
STARTCHAR 0027
ENCODING 39
SWIDTH 285 0
DWIDTH 19 0
BBX 13 18 3 27
BITMAP
FFF8
FFF8
FFF8
7FF0
7FF0
7FF0
7FF0
7FF0
3FE0
3FE0
3FE0
3FE0
3FE0
1FC0
1FC0
1FC0
1FC0
1FC0
ENDCHAR
STARTCHAR 0028
ENCODING 40
SWIDTH 420 0
DWIDTH 28 0
BBX 22 59 5 -11
BITMAP
0001F8
0007FC
000FFC
001FFC
003FFC
007FF8
00FFF0
01FFF0
03FFE0
03FFC0
07FFC0
0FFF80
0FFF80
1FFF00
1FFF00
1FFE00
3FFE00
3FFE00
3FFC00
7FFC00
7FFC00
7FFC00
7FFC00
7FF800
FFF800
FFF800
FFF800
FFF800
FFF800
FFF800
FFF800
FFF800
FFF800
FFF800
FFF800
FFF800
7FF800
7FFC00
7FFC00
7FFC00
7FFC00
3FFE00
3FFE00
3FFE00
1FFF00
1FFF00
0FFF80
0FFF80
07FFC0
07FFC0
03FFE0
01FFF0
01FFF0
00FFF8
007FFC
003FFC
000FFC
0007FC
0000F8
ENDCHAR
STARTCHAR 0029
ENCODING 41
SWIDTH 405 0
DWIDTH 27 0
BBX 22 59 1 -11
BITMAP
7C0000
FF8000
FFC000
FFF000
FFF800
7FFC00
3FFE00
3FFE00
1FFF00
0FFF80
0FFF80
07FFC0
07FFC0
03FFE0
03FFE0
03FFF0
01FFF0
01FFF0
00FFF8
00FFF8
00FFF8
00FFF8
00FFF8
007FFC
007FFC
007FFC
007FFC
007FFC
007FFC
007FFC
007FFC
007FFC
007FFC
007FFC
007FFC
007FFC
00FFF8
00FFF8
00FFF8
00FFF8
00FFF0
01FFF0
01FFF0
01FFF0
03FFE0
03FFE0
07FFC0
07FFC0
0FFF80
0FFF80
1FFF00
3FFE00
3FFC00
7FFC00
FFF800
FFF000
FFC000
FF8000
7E0000
ENDCHAR
STARTCHAR 002A
ENCODING 42
SWIDTH 690 0
DWIDTH 46 0
BBX 23 22 12 26
BITMAP
003800
007C00
00FE00
00FE00
00FE00
00FC00
387C38
7E7CFC
FFFFFE
FFFFFE
FFFFFE
FFFFFC
3FFFF8
01FF00
03FF00
07FFC0
0FFFE0
1FCFF0
1FCFF0
1FCFF0
0F87E0
0703C0
ENDCHAR
STARTCHAR 002B
ENCODING 43
SWIDTH 510 0
DWIDTH 34 0
BBX 34 34 0 8
BITMAP
0007F00000
0007F00000
0007F00000
0007F00000
0007F00000
0007F00000
0007F00000
0007F00000
0007F00000
0007F00000
0007F00000
0007F00000
0007F00000
FFFFFFFFC0
FFFFFFFFC0
FFFFFFFFC0
FFFFFFFFC0
FFFFFFFFC0
FFFFFFFFC0
FFFFFFFFC0
0007F00000
0007F00000
0007F00000
0007F00000
0007F00000
0007F00000
0007F00000
0007F00000
0007F00000
0007F00000
0007F00000
0007F00000
0007F00000
0007F00000
ENDCHAR
STARTCHAR 002C
ENCODING 44
SWIDTH 285 0
DWIDTH 19 0
BBX 15 25 2 -13
BITMAP
07C0
1FF0
3FF8
7FF8
FFFC
FFFC
FFFE
FFFE
FFFE
FFFE
7FFE
3FFE
1FFE
0FFC
07FC
07FC
07F8
0FF8
0FF0
1FF0
3FE0
7FC0
7F80
7F00
3C00
ENDCHAR
STARTCHAR 002D
ENCODING 45
SWIDTH 330 0
DWIDTH 22 0
BBX 19 16 1 10
BITMAP
0000C0
0001E0
1FFFE0
1FFFE0
3FFFE0
3FFFE0
7FFFC0
7FFFC0
7FFFC0
FFFF80
FFFF80
FFFF00
FFFF00
F80000
F00000
600000
ENDCHAR
STARTCHAR 002E
ENCODING 46
SWIDTH 300 0
DWIDTH 20 0
BBX 15 14 2 -1
BITMAP
07E0
1FF8
3FFC
7FFE
FFFE
FFFE
FFFE
FFFE
FFFE
FFFE
7FFE
7FFC
1FF8
07E0
ENDCHAR
STARTCHAR 002F
ENCODING 47
SWIDTH 570 0
DWIDTH 38 0
BBX 36 58 0 -11
BITMAP
00000000F0
00000003F0
00000007F0
0000000FE0
0000000FE0
0000001FE0
0000001FC0
0000001FC0
0000003F80
0000003F00
0000007F00
0000007E00
000000FE00
000000FC00
000001FC00
000001F800
000003F000
000003F000
000007E000
000007E000
00000FC000
00000FC000
00001F8000
00001F8000
00003F0000
00003F0000
00007E0000
00007E0000
0000FC0000
0000FC0000
0000F80000
0001F80000
0001F00000
0003F00000
0003E00000
0007E00000
000FC00000
000FC00000
001F800000
001F800000
003F000000
003F000000
007E000000
00FE000000
00FC000000
01F8000000
01F8000000
03F0000000
07F0000000
07E0000000
0FE0000000
0FE0000000
1FC0000000
3FC0000000
7F80000000
FF00000000
FE00000000
F000000000
ENDCHAR
STARTCHAR 0030
ENCODING 48
SWIDTH 675 0
DWIDTH 45 0
BBX 41 48 2 -1
BITMAP
0000FFC00000
000FFFF80000
003FFFFE0000
007FFFFF0000
00FFFFFF8000
01FFFFFFC000
03FFFFFFE000
07FFFFFFF000
0FFFFFFFF800
0FFFFFFFF800
1FFFE3FFFC00
1FFFC1FFFC00
3FFF80FFFE00
3FFF80FFFE00
7FFF007FFF00
7FFF007FFF00
7FFF007FFF00
7FFF007FFF00
FFFF007FFF80
FFFF007FFF80
FFFE003FFF80
FFFE003FFF80
FFFE003FFF80
FFFE003FFF80
FFFE003FFF80
FFFE003FFF80
FFFE003FFF80
FFFE003FFF80
FFFF007FFF80
FFFF007FFF80
7FFF007FFF00
7FFF007FFF00
7FFF007FFF00
7FFF007FFE00
3FFF80FFFE00
3FFF80FFFE00
1FFFC1FFFC00
1FFFE3FFFC00
0FFFFFFFF800
0FFFFFFFF800
07FFFFFFF000
03FFFFFFE000
01FFFFFFC000
01FFFFFF8000
007FFFFF0000
003FFFFE0000
000FFFF80000
0001FFC00000
ENDCHAR
STARTCHAR 0031
ENCODING 49
SWIDTH 660 0
DWIDTH 44 0
BBX 36 47 5 0
BITMAP
00007F0000
000FFF8000
007FFFC000
07FFFFC000
1FFFFFC000
3FFFFFC000
7FFFFFC000
7FFFFFC000
7FFFFFC000
7FFFFFC000
7FFFFFC000
3FFFFFC000
007FFFC000
003FFFC000
003FFFC000
003FFFC000
003FFFC000
001FFFC000
001FFFC000
001FFFC000
001FFFC000
001FFFC000
001FFFC000
001FFFC000
001FFFC000
001FFFC000
001FFFC000
001FFFC000
001FFFC000
001FFFC000
001FFFC000
001FFFC000
003FFFC000
003FFFC000
003FFFC000
003FFFC000
003FFFC000
007FFFE000
01FFFFF800
3FFFFFFF80
7FFFFFFFE0
FFFFFFFFF0
FFFFFFFFF0
FFFFFFFFF0
FFFFFFFFF0
FFFFFFFFF0
3FFFFFFFE0
ENDCHAR
STARTCHAR 0032
ENCODING 50
SWIDTH 690 0
DWIDTH 46 0
BBX 44 47 1 0
BITMAP
0000FFC00000
0007FFF80000
003FFFFE0000
00FFFFFF0000
01FFFFFF8000
03FFFFFFC000
07FFFFFFE000
0FFFFFFFF000
0FFFFFFFF000
1FFFFFFFF800
1FFFFFFFF800
3FFFFFFFF800
3FE0FFFFF800
3F803FFFF800
3F001FFFF800
1E000FFFF800
0C0007FFF800
000007FFF000
000007FFF000
000007FFF000
00000FFFE000
00000FFFE000
00000FFFC000
00001FFF8000
00001FFF8000
00003FFF0000
00007FFE0000
0000FFFC0000
0001FFF80000
0001FFF00000
0003FFE00070
0007FF8001F0
000FFF0007F0
001FFC001FF0
003FF801FFF0
007FFFFFFFF0
00FFFFFFFFF0
01FFFFFFFFE0
03FFFFFFFFE0
0FFFFFFFFFE0
1FFFFFFFFFE0
3FFFFFFFFFE0
7FFFFFFFFFC0
FFFFFFFFFFC0
FFFFFFFFFFC0
FFFFFFFFFF80
7FFFFFFFFF00
ENDCHAR
STARTCHAR 0033
ENCODING 51
SWIDTH 660 0
DWIDTH 44 0
BBX 41 48 1 -1
BITMAP
001FFFC00000
01FFFFFC0000
07FFFFFF8000
1FFFFFFFE000
3FFFFFFFF000
7FFFFFFFF800
7FFFFFFFF800
7FFFFFFFFC00
7FFFFFFFFE00
7FF80FFFFE00
7FE003FFFE00
3FC001FFFE00
3F8000FFFE00
1F8000FFFE00
1F0000FFFE00
0E0000FFFE00
000000FFFE00
000001FFFC00
000007FFF800
00007FFFE000
0000FFFFC000
0001FFFFF000
0001FFFFF800
0001FFFFFC00
0000FFFFFE00
000007FFFF00
000000FFFF00
0000007FFF80
0000003FFF80
0000003FFF80
0000003FFF80
0000003FFF80
0000003FFF80
7000007FFF80
FE0000FFFF80
FFC001FFFF80
FFF807FFFF80
FFFFFFFFFF80
FFFFFFFFFF00
7FFFFFFFFF00
7FFFFFFFFE00
3FFFFFFFFE00
1FFFFFFFFC00
07FFFFFFF800
01FFFFFFE000
007FFFFFC000
000FFFFF0000
0000FFF00000
ENDCHAR
STARTCHAR 0034
ENCODING 52
SWIDTH 675 0
DWIDTH 45 0
BBX 43 52 1 -5
BITMAP
000000038000
00000007C000
0000000FC000
0000001FC000
0000003FC000
0000007FC000
000000FFC000
000001FFC000
000003FFC000
00000FFFC000
00001FFFC000
00003FFFC000
00007FFFC000
0000FFFFC000
0001FFFFC000
0003FFFFC000
0007FFFFC000
000FF7FFC000
001FE7FFC000
007F87FFC000
00FF07FFC000
01FE07FFC000
03FC07FFC000
07F807FFC000
0FF007FFC000
1FE007FFC000
7FC007FFC000
7FFFFFFFFFC0
FFFFFFFFFFE0
FFFFFFFFFFE0
FFFFFFFFFFE0
FFFFFFFFFFE0
FFFFFFFFFFE0
FFFFFFFFFFE0
FFFFFFFFFFC0
FFFFFFFFFFC0
FFFFFFFFFFC0
FFFFFFFFFFC0
FFFFFFFFFFC0
7FFFFFFFFF80
000007FFC000
000007FFC000
000007FFC000
000007FFC000
000007FFC000
000007FFC000
000007FFC000
000007FFC000
000007FF8000
000007FE0000
000007F00000
000007000000
ENDCHAR
STARTCHAR 0035
ENCODING 53
SWIDTH 660 0
DWIDTH 44 0
BBX 40 47 2 0
BITMAP
00000000F0
003FFFFFF0
007FFFFFF0
007FFFFFF0
007FFFFFF0
007FFFFFE0
00FFFFFFE0
00FFFFFFE0
00FFFFFFC0
00FFFFFFC0
01FFFFFFC0
01FFFFFF80
01FFFFFF00
01FF800000
01FF000000
03FF000000
03FFFFE000
03FFFFFC00
03FFFFFF00
03FFFFFFC0
07FFFFFFF0
07FFFFFFF8
07FFFFFFFC
07FFFFFFFC
03FFFFFFFE
00007FFFFE
00000FFFFF
000003FFFF
000001FFFF
000001FFFF
000000FFFF
0E0000FFFF
1E0000FFFF
3F0000FFFF
7F8001FFFE
7F8001FFFE
FFC007FFFE
FFF01FFFFC
FFFFFFFFFC
FFFFFFFFF8
FFFFFFFFF0
FFFFFFFFE0
7FFFFFFF80
3FFFFFFE00
1FFFFFF800
07FFFFE000
007FFE0000
ENDCHAR
STARTCHAR 0036
ENCODING 54
SWIDTH 675 0
DWIDTH 45 0
BBX 41 48 2 -1
BITMAP
00000FFC0000
00007FFF8000
0003FFFFC000
0007FFFFE000
001FFFFFE000
003FFFFFE000
007FFFFFC000
00FFFFFE0000
01FFFFE00000
03FFFF000000
07FFFE000000
07FFFC000000
0FFFF8000000
1FFFF1C00000
1FFFFFFE0000
3FFFFFFF8000
3FFFFFFFE000
3FFFFFFFF000
7FFFFFFFF800
7FFFFFFFFC00
7FFFFFFFFE00
FFFFFFFFFE00
FFFFC3FFFF00
FFFF81FFFF00
FFFF80FFFF00
FFFF00FFFF80
FFFF007FFF80
FFFF007FFF80
FFFE007FFF80
FFFE007FFF80
FFFF003FFF80
FFFF007FFF80
7FFF007FFF80
7FFF007FFF80
7FFF807FFF00
7FFF807FFF00
3FFFC0FFFF00
3FFFE1FFFE00
1FFFFFFFFE00
0FFFFFFFFC00
0FFFFFFFF800
07FFFFFFF000
03FFFFFFF000
01FFFFFFC000
007FFFFF8000
003FFFFF0000
0007FFFC0000
0000FFC00000
ENDCHAR
STARTCHAR 0037
ENCODING 55
SWIDTH 660 0
DWIDTH 44 0
BBX 40 49 2 -5
BITMAP
3FFFFFFFFF
3FFFFFFFFF
7FFFFFFFFF
7FFFFFFFFF
7FFFFFFFFE
7FFFFFFFFE
FFFFFFFFFE
FFFFFFFFFC
FFFFFFFFFC
FFFFFFFFF8
FFFFFFFFF8
FFFFFFFFF0
FFC0003FF0
FF00003FE0
FC00007FC0
FC0000FFC0
780001FF80
000003FF80
000007FF00
00000FFF00
00001FFE00
00001FFE00
00003FFC00
00007FFC00
0000FFF800
0001FFF800
0001FFF000
0003FFF000
0007FFE000
0007FFE000
000FFFE000
001FFFC000
001FFFC000
003FFF8000
007FFF8000
007FFF8000
00FFFF0000
00FFFF0000
01FFFF0000
01FFFF0000
01FFFE0000
03FFFE0000
03FFFE0000
03FFFE0000
03FFFC0000
01FFFC0000
007FFC0000
0007FC0000
0000FC0000
ENDCHAR
STARTCHAR 0038
ENCODING 56
SWIDTH 675 0
DWIDTH 45 0
BBX 39 48 3 -1
BITMAP
0001FF8000
001FFFF000
007FFFFC00
00FFFFFF00
03FFFFFF80
07FFFFFFC0
0FFFFFFFE0
0FFFFFFFE0
1FFF87FFF0
1FFF01FFF0
3FFE00FFF0
3FFE00FFF0
3FFE00FFF0
3FFF00FFF0
3FFF01FFF0
3FFFC7FFE0
3FFFFFFFE0
1FFFFFFFC0
1FFFFFFF80
1FFFFFFF00
0FFFFFFF00
07FFFFFFC0
07FFFFFFE0
03FFFFFFF0
07FFFFFFF8
0FFFFFFFF8
1FFFFFFFFC
3FFFFFFFFE
7FFFFFFFFE
7FFC0FFFFE
FFF803FFFE
FFF001FFFE
FFF000FFFE
FFF000FFFE
FFF000FFFE
FFF000FFFE
FFF800FFFE
FFFC01FFFE
7FFF03FFFC
7FFFFFFFFC
3FFFFFFFF8
3FFFFFFFF8
1FFFFFFFF0
0FFFFFFFC0
03FFFFFF80
01FFFFFE00
007FFFF800
0007FF8000
ENDCHAR
STARTCHAR 0039
ENCODING 57
SWIDTH 675 0
DWIDTH 45 0
BBX 40 49 3 -2
BITMAP
0001FF0000
000FFFE000
003FFFF800
00FFFFFE00
01FFFFFF00
03FFFFFF80
07FFFFFFC0
0FFFFFFFE0
0FFFFFFFF0
1FFFFFFFF0
3FFF0FFFF8
3FFE07FFF8
3FFC03FFFC
7FFC01FFFC
7FFC01FFFE
7FFC00FFFE
7FFC00FFFE
7FFE007FFE
7FFE007FFF
7FFE007FFF
7FFF007FFF
7FFF007FFF
7FFF807FFF
3FFFC0FFFF
3FFFE1FFFF
3FFFFFFFFF
1FFFFFFFFF
1FFFFFFFFF
0FFFFFFFFF
0FFFFFFFFE
07FFFFFFFE
03FFFFFFFE
01FFF9FFFC
007FE1FFFC
000303FFFC
000007FFF8
00000FFFF8
00001FFFF0
70007FFFE0
FE03FFFFE0
FFFFFFFFC0
FFFFFFFF80
FFFFFFFF00
7FFFFFFE00
7FFFFFFC00
3FFFFFF000
0FFFFFC000
03FFFF0000
007FF00000
ENDCHAR
STARTCHAR 003A
ENCODING 58
SWIDTH 300 0
DWIDTH 20 0
BBX 15 37 2 -1
BITMAP
07E0
1FF8
7FFC
7FFE
FFFE
FFFE
FFFE
FFFE
FFFE
FFFE
7FFE
3FFC
1FF8
07E0
0000
0000
0000
0000
0000
0000
0000
0000
0000
07E0
1FF8
3FFC
7FFE
FFFE
FFFE
FFFE
FFFE
FFFE
FFFE
7FFE
7FFC
1FF8
07E0
ENDCHAR
STARTCHAR 003B
ENCODING 59
SWIDTH 300 0
DWIDTH 20 0
BBX 16 49 2 -13
BITMAP
07E0
1FF8
3FFC
7FFE
FFFE
FFFE
FFFE
FFFE
FFFE
FFFE
7FFE
3FFC
1FF8
07E0
0000
0000
0000
0000
0000
0000
0000
0000
0000
0000
07E0
1FF0
3FF8
7FFC
7FFE
FFFE
FFFF
FFFF
FFFF
FFFF
7FFF
3FFF
1FFF
0FFE
07FE
07FE
07FC
0FFC
0FF8
1FF0
3FE0
7FE0
7F80
7F00
3C00
ENDCHAR
STARTCHAR 003C
ENCODING 60
SWIDTH 480 0
DWIDTH 32 0
BBX 28 38 2 5
BITMAP
00000010
00000030
000000F0
000001F0
000007F0
00001FF0
00003FE0
0000FF80
0001FE00
0007FC00
000FF000
003FE000
00FF8000
01FF0000
07FE0000
0FFF0000
3FFFC000
FFFFE000
FFFFF000
7FFFFC00
1FFFFE00
0FFFFF80
03FFFFC0
01FFFFE0
00FFFFF0
003FFFF0
001FFFF0
0007FFF0
0003FFF0
0001FFF0
00007FF0
00003FF0
00000FF0
000007F0
000003F0
000000F0
00000070
00000010
ENDCHAR
STARTCHAR 003D
ENCODING 61
SWIDTH 510 0
DWIDTH 34 0
BBX 34 17 0 17
BITMAP
FFFFFFFFC0
FFFFFFFFC0
FFFFFFFFC0
FFFFFFFFC0
FFFFFFFFC0
FFFFFFFFC0
FFFFFFFFC0
0000000000
0000000000
0000000000
FFFFFFFFC0
FFFFFFFFC0
FFFFFFFFC0
FFFFFFFFC0
FFFFFFFFC0
FFFFFFFFC0
FFFFFFFFC0
ENDCHAR
STARTCHAR 003E
ENCODING 62
SWIDTH 480 0
DWIDTH 32 0
BBX 28 38 2 5
BITMAP
80000000
C0000000
E0000000
F8000000
FC000000
FF000000
FF800000
FFC00000
FFF00000
FFF80000
FFFE0000
FFFF0000
FFFF8000
FFFFE000
FFFFF000
7FFFF800
3FFFFE00
0FFFFF00
07FFFFC0
01FFFFE0
00FFFFF0
007FFFE0
001FFF80
000FFF00
0003FC00
000FF800
003FE000
007F8000
01FF0000
03FC0000
0FF80000
3FE00000
7FC00000
FF000000
FC000000
F8000000
E0000000
C0000000
ENDCHAR
STARTCHAR 003F
ENCODING 63
SWIDTH 375 0
DWIDTH 25 0
BBX 24 48 0 -1
BITMAP
003F80
01FFE0
0FFFF0
1FFFFC
3FFFFC
7FFFFE
FFFFFE
FFFFFF
FFFFFF
FFFFFF
707FFF
003FFF
003FFF
003FFF
003FFF
003FFE
007FFE
007FFE
007FFC
00FFF8
00FFF8
00FFF0
01FFE0
01FFC0
01FF80
01FF00
01FE00
01FC00
01FC00
00F800
00F800
007000
000000
000000
00FC00
03FF00
07FF80
0FFFC0
0FFFE0
0FFFE0
0FFFE0
0FFFE0
0FFFE0
0FFFE0
0FFFC0
07FFC0
03FF00
00FC00
ENDCHAR
STARTCHAR 0040
ENCODING 64
SWIDTH 810 0
DWIDTH 54 0
BBX 44 46 5 0
BITMAP
00003FE00000
0003FFFE0000
000FFFFF8000
003FFFFFE000
007FC07FF000
00FE0007F800
01F80001FE00
03F000007F00
07C000003F00
0F8000000F80
0F003F8007C0
1F00FFE007C0
3E01FFF7E3E0
3C03FC7FE1E0
7C07F03FE1E0
780FE01FC1F0
781FC01FC0F0
781FC01FC0F0
F03F803F80F0
F03F803F80F0
F07F003F80F0
F07F007F00F0
F07E007F01F0
F0FE007F01F0
F0FE00FE01E0
F0FE00FE03E0
F0FC00FE03C0
F8FC01FC07C0
78FC01FC0780
78FC01FC0F80
7C7C03F81F00
3C7C07F83E00
3E3E1FFCFC00
1E3FFFFFF1F0
1F0FFCFFE3F0
0F87F03F07E0
0FC000000FC0
07E000001FC0
03F000003F80
01FC0000FF00
00FE0003FE00
007FC01FFC00
001FFFFFF000
000FFFFFC000
0001FFFF0000
00003FF80000
ENDCHAR
STARTCHAR 0041
ENCODING 65
SWIDTH 795 0
DWIDTH 53 0
BBX 53 45 0 0
BITMAP
000007FFC00000
00000FFFC00000
00001FFFE00000
00001FFFE00000
00001FFFF00000
00003FFFF00000
00003FFFF00000
00007FFFF80000
00007FFFF80000
0000FFFFF80000
0000FFFFFC0000
0000FFFFFC0000
0001FFFFFE0000
0001FFFFFE0000
0003FFFFFE0000
0003FCFFFF0000
0003FC7FFF0000
0007F87FFF8000
0007F87FFF8000
000FF83FFF8000
000FF03FFFC000
001FF03FFFC000
001FF01FFFE000
001FE01FFFE000
003FC01FFFE000
003FC01FFFF000
007FFFFFFFF000
007FFFFFFFF800
00FFFFFFFFF800
00FFFFFFFFF800
00FFFFFFFFFC00
01FFFFFFFFFC00
01FFFFFFFFFC00
03FFFFFFFFFE00
03FE0007FFFE00
07FC0003FFFF00
07FC0003FFFF80
0FFC0003FFFF80
3FFF0007FFFFE0
7FFFC01FFFFFF0
FFFFE03FFFFFF8
FFFFE03FFFFFF8
FFFFE03FFFFFF8
FFFFE03FFFFFF8
7FFFC01FFFFFF0
ENDCHAR
STARTCHAR 0042
ENCODING 66
SWIDTH 735 0
DWIDTH 49 0
BBX 47 45 1 0
BITMAP
7FFFFFFFE000
FFFFFFFFFC00
FFFFFFFFFF00
FFFFFFFFFF80
FFFFFFFFFFC0
7FFFFFFFFFE0
1FFFFFFFFFF0
1FFFF07FFFF0
0FFFF01FFFF8
0FFFF01FFFF8
0FFFF00FFFF8
0FFFF00FFFF8
0FFFF00FFFF8
0FFFF00FFFF8
0FFFF01FFFF0
0FFFF01FFFF0
0FFFF87FFFE0
0FFFFFFFFFC0
0FFFFFFFFF80
0FFFFFFFFE00
0FFFFFFFFF00
0FFFFFFFFFC0
0FFFFFFFFFE0
0FFFFFFFFFF0
0FFFF07FFFF8
0FFFF01FFFFC
0FFFF01FFFFC
0FFFF00FFFFC
0FFFF007FFFE
0FFFF007FFFE
0FFFF007FFFE
0FFFF007FFFE
0FFFF007FFFE
0FFFF007FFFE
0FFFF00FFFFE
0FFFF01FFFFE
0FFFF83FFFFC
1FFFFFFFFFFC
3FFFFFFFFFFC
7FFFFFFFFFF8
FFFFFFFFFFF0
FFFFFFFFFFE0
FFFFFFFFFF80
FFFFFFFFFE00
7FFFFFFFF000
ENDCHAR
STARTCHAR 0043
ENCODING 67
SWIDTH 645 0
DWIDTH 43 0
BBX 41 48 2 -1
BITMAP
0000FFFC1C00
0007FFFFFE00
003FFFFFFE00
007FFFFFFE00
00FFFFFFFF00
01FFFFFFFF00
03FFFFFFFF00
07FFFFFFFF00
0FFFFC1FFF00
0FFFF807FF00
1FFFF003FF00
1FFFF001FF00
3FFFE000FF00
3FFFE000FF80
3FFFE0007F80
7FFFC0003F80
7FFFC0001F00
7FFFC0000F00
7FFFC0000000
FFFFC0000000
FFFFC0000000
FFFFC0000000
FFFFC0000000
FFFFC0000000
FFFFC0000000
FFFFC0000000
FFFFC0000000
FFFFC0000000
FFFFC0000000
FFFFC0000000
FFFFE0000000
FFFFE0000000
7FFFE0000E00
7FFFF0001E00
7FFFF0003F00
3FFFF8007F00
3FFFF800FF00
1FFFFC01FF00
1FFFFF07FF00
0FFFFFFFFF00
07FFFFFFFE00
07FFFFFFFE00
01FFFFFFFE00
00FFFFFFFE00
007FFFFFFC00
001FFFFFF800
0003FFFFE000
00003FFE0000
ENDCHAR
STARTCHAR 0044
ENCODING 68
SWIDTH 795 0
DWIDTH 53 0
BBX 50 45 1 0
BITMAP
7FFFFFFFC00000
FFFFFFFFFC0000
FFFFFFFFFF0000
FFFFFFFFFF8000
FFFFFFFFFFE000
7FFFFFFFFFF000
3FFFFFFFFFF800
1FFFFFFFFFF800
0FFFF83FFFFC00
0FFFF80FFFFE00
0FFFF807FFFE00
0FFFF807FFFF00
0FFFF803FFFF00
0FFFF801FFFF80
0FFFF801FFFF80
0FFFF801FFFF80
0FFFF800FFFFC0
0FFFF800FFFFC0
0FFFF800FFFFC0
0FFFF8007FFFC0
0FFFF8007FFFC0
0FFFF8007FFFC0
0FFFF8007FFFC0
0FFFF8007FFFC0
0FFFF8007FFFC0
0FFFF8007FFFC0
0FFFF8007FFFC0
0FFFF8007FFFC0
0FFFF8007FFFC0
0FFFF800FFFF80
0FFFF800FFFF80
0FFFF800FFFF80
0FFFF801FFFF00
0FFFF801FFFF00
0FFFF803FFFF00
0FFFF803FFFE00
0FFFFC0FFFFC00
1FFFFFFFFFFC00
3FFFFFFFFFF800
7FFFFFFFFFF000
FFFFFFFFFFE000
FFFFFFFFFF8000
FFFFFFFFFF0000
FFFFFFFFFC0000
7FFFFFFFC00000
ENDCHAR
STARTCHAR 0045
ENCODING 69
SWIDTH 675 0
DWIDTH 45 0
BBX 43 45 1 0
BITMAP
7FFFFFFFFF80
FFFFFFFFFF80
FFFFFFFFFFC0
FFFFFFFFFFC0
FFFFFFFFFFC0
7FFFFFFFFFC0
3FFFFFFFFFC0
1FFFFC01FFC0
0FFFF8007FC0
0FFFF0003FC0
0FFFF0001FC0
0FFFF0001FC0
0FFFF01C0FC0
0FFFF01E0F80
0FFFF03E0780
0FFFF03E0000
0FFFF8FE0000
0FFFFFFE0000
0FFFFFFE0000
0FFFFFFE0000
0FFFFFFE0000
0FFFFFFE0000
0FFFFFFE0000
0FFFFFFE0000
0FFFFFFE0000
0FFFF8FE0000
0FFFF07E0000
0FFFF03E0000
0FFFF03E00C0
0FFFF03E01E0
0FFFF01E03E0
0FFFF01C07E0
0FFFF00007E0
0FFFF0000FE0
0FFFF0001FE0
0FFFF8003FE0
0FFFFC01FFE0
1FFFFFFFFFE0
3FFFFFFFFFE0
7FFFFFFFFFE0
FFFFFFFFFFE0
FFFFFFFFFFE0
FFFFFFFFFFE0
FFFFFFFFFFE0
7FFFFFFFFFC0
ENDCHAR
STARTCHAR 0046
ENCODING 70
SWIDTH 645 0
DWIDTH 43 0
BBX 42 45 1 0
BITMAP
7FFFFFFFFF80
FFFFFFFFFFC0
FFFFFFFFFFC0
FFFFFFFFFFC0
FFFFFFFFFFC0
3FFFFFFFFFC0
1FFFFFFFFFC0
1FFFFE01FFC0
0FFFFC007FC0
0FFFF8003FC0
0FFFF8001FC0
0FFFF8000FC0
0FFFF80E0FC0
0FFFF81F07C0
0FFFF83F0780
0FFFF83F0000
0FFFF87F0000
0FFFFFFF0000
0FFFFFFF0000
0FFFFFFF0000
0FFFFFFF0000
0FFFFFFF0000
0FFFFFFF0000
0FFFFFFF0000
0FFFFFFF0000
0FFFFC7F0000
0FFFF87F0000
0FFFF83F0000
0FFFF83F0000
0FFFF83F0000
0FFFF83F0000
0FFFF81F0000
0FFFF81E0000
0FFFF8000000
0FFFF8000000
0FFFF8000000
0FFFF8000000
0FFFF8000000
1FFFFC000000
3FFFFF800000
FFFFFFC00000
FFFFFFC00000
FFFFFFC00000
FFFFFFC00000
7FFFFF800000
ENDCHAR
STARTCHAR 0047
ENCODING 71
SWIDTH 780 0
DWIDTH 52 0
BBX 49 49 2 -2
BITMAP
00003FF8000000
0003FFFFC07000
000FFFFFFFF800
003FFFFFFFF800
007FFFFFFFF800
01FFFFFFFFF800
03FFFFFFFFF800
07FFFFFFFFF800
07FFFFFFFFF800
0FFFFE01FFF800
1FFFF8007FF800
1FFFF8001FF800
3FFFF0000FF800
3FFFF00007F800
3FFFE00003F800
7FFFE00003F800
7FFFE00001F800
7FFFC00000F800
FFFFC000007000
FFFFC000000000
FFFFC000000000
FFFFC000000000
FFFFC000000000
FFFFC07FFFFF00
FFFFC0FFFFFF80
FFFFC0FFFFFF80
FFFFC0FFFFFF80
FFFFC0FFFFFF80
FFFFC07FFFFF80
FFFFC01FFFFE00
7FFFE00FFFFC00
7FFFE007FFF800
7FFFE007FFF800
7FFFE003FFF800
3FFFF003FFF800
3FFFF007FFF800
3FFFF807FFF800
1FFFFC07FFF800
0FFFFE0FFFF800
0FFFFFFFFFF800
07FFFFFFFFF800
03FFFFFFFFF800
01FFFFFFFFF800
00FFFFFFFFF800
007FFFFFFFF800
003FFFFFFFF000
000FFFFFF80000
0001FFFE000000
00000200000000
ENDCHAR
STARTCHAR 0048
ENCODING 72
SWIDTH 870 0
DWIDTH 58 0
BBX 56 45 1 0
BITMAP
7FFFFF00FFFFFE
FFFFFF81FFFFFF
FFFFFF81FFFFFF
FFFFFF81FFFFFF
FFFFFF81FFFFFF
7FFFFF00FFFFFE
3FFFFC003FFFF8
1FFFF8003FFFF0
0FFFF8001FFFF0
0FFFF8001FFFF0
0FFFF8001FFFF0
0FFFF8001FFFF0
0FFFF8001FFFF0
0FFFF8001FFFF0
0FFFF8001FFFF0
0FFFF8001FFFF0
0FFFFC003FFFF0
0FFFFFFFFFFFF0
0FFFFFFFFFFFF0
0FFFFFFFFFFFF0
0FFFFFFFFFFFF0
0FFFFFFFFFFFF0
0FFFFFFFFFFFF0
0FFFFFFFFFFFF0
0FFFFFFFFFFFF0
0FFFFC003FFFF0
0FFFF8001FFFF0
0FFFF8001FFFF0
0FFFF8001FFFF0
0FFFF8001FFFF0
0FFFF8001FFFF0
0FFFF8001FFFF0
0FFFF8001FFFF0
0FFFF8001FFFF0
0FFFF8001FFFF0
0FFFF8001FFFF0
0FFFF8001FFFF0
1FFFF8003FFFF0
1FFFFC003FFFF8
7FFFFE00FFFFFE
FFFFFF81FFFFFF
FFFFFF81FFFFFF
FFFFFF81FFFFFF
FFFFFF81FFFFFF
7FFFFF00FFFFFE
ENDCHAR
STARTCHAR 0049
ENCODING 73
SWIDTH 390 0
DWIDTH 26 0
BBX 24 45 1 0
BITMAP
7FFFFE
FFFFFF
FFFFFF
FFFFFF
FFFFFF
7FFFFE
3FFFF8
1FFFF0
0FFFF0
0FFFF0
0FFFF0
0FFFF0
0FFFF0
0FFFF0
0FFFF0
0FFFF0
0FFFF0
0FFFF0
0FFFF0
0FFFF0
0FFFF0
0FFFF0
0FFFF0
0FFFF0
0FFFF0
0FFFF0
0FFFF0
0FFFF0
0FFFF0
0FFFF0
0FFFF0
0FFFF0
0FFFF0
0FFFF0
0FFFF0
0FFFF0
0FFFF0
1FFFF8
3FFFFC
7FFFFE
FFFFFF
FFFFFF
FFFFFF
FFFFFF
7FFFFE
ENDCHAR
STARTCHAR 004A
ENCODING 74
SWIDTH 510 0
DWIDTH 34 0
BBX 34 58 0 -13
BITMAP
007FFFFF80
00FFFFFFC0
00FFFFFFC0
00FFFFFFC0
00FFFFFFC0
007FFFFF80
001FFFFF00
000FFFFE00
0007FFFC00
0007FFFC00
0007FFFC00
0007FFFC00
0007FFFC00
0007FFFC00
0007FFFC00
0007FFFC00
0007FFFC00
0007FFFC00
0007FFFC00
0007FFFC00
0007FFFC00
0007FFFC00
0007FFFC00
0007FFFC00
0007FFFC00
0007FFFC00
0007FFFC00
0007FFFC00
0007FFFC00
0007FFFC00
0007FFFC00
0007FFFC00
0007FFFC00
0007FFFC00
0007FFFC00
0007FFFC00
0007FFFC00
0007FFFC00
0007FFFC00
0007FFFC00
0007FFFC00
0007FFFC00
0007FFF800
0707FFF800
0F87FFF800
1F87FFF800
3F8FFFF000
3FCFFFF000
7FFFFFE000
7FFFFFC000
FFFFFFC000
FFFFFF8000
FFFFFF0000
FFFFFC0000
FFFFF80000
7FFFE00000
3FFF800000
07F8000000
ENDCHAR
STARTCHAR 004B
ENCODING 75
SWIDTH 825 0
DWIDTH 55 0
BBX 54 45 1 0
BITMAP
7FFFFF01FFFFF0
FFFFFF83FFFFF8
FFFFFF83FFFFF8
FFFFFF83FFFFF8
FFFFFF83FFFFF8
7FFFFF01FFFFF0
3FFFFE007FFFC0
1FFFFC007FFF00
0FFFF800FFFC00
0FFFF800FFF000
0FFFF801FFE000
0FFFF803FFC000
0FFFF807FF8000
0FFFF80FFF0000
0FFFF81FFC0000
0FFFF83FF80000
0FFFF87FF80000
0FFFF8FFF80000
0FFFF9FFFC0000
0FFFFFFFFC0000
0FFFFFFFFE0000
0FFFFFFFFF0000
0FFFFFFFFF0000
0FFFFFFFFF8000
0FFFFFFFFFC000
0FFFFFFFFFC000
0FFFFFFFFFE000
0FFFFFFFFFF000
0FFFFE7FFFF000
0FFFFC3FFFF800
0FFFF83FFFF800
0FFFF81FFFFC00
0FFFF81FFFFE00
0FFFF80FFFFE00
0FFFF80FFFFF00
0FFFF807FFFF80
0FFFF807FFFF80
1FFFFC03FFFFC0
1FFFFC03FFFFE0
7FFFFF01FFFFF8
FFFFFF81FFFFFC
FFFFFF80FFFFFC
FFFFFF80FFFFFC
FFFFFF807FFFFC
7FFFFF001FFFF8
ENDCHAR
STARTCHAR 004C
ENCODING 76
SWIDTH 675 0
DWIDTH 45 0
BBX 44 45 1 0
BITMAP
1FFFFE000000
FFFFFF800000
FFFFFF800000
FFFFFF800000
FFFFFF800000
7FFFFF000000
3FFFFE000000
1FFFFC000000
0FFFF8000000
0FFFF8000000
0FFFF8000000
0FFFF8000000
0FFFF8000000
0FFFF8000000
0FFFF8000000
0FFFF8000000
0FFFF8000000
0FFFF8000000
0FFFF8000000
0FFFF8000000
0FFFF8000000
0FFFF8000000
0FFFF8000000
0FFFF8000000
0FFFF8000000
0FFFF8000000
0FFFF8000000
0FFFF8000000
0FFFF8000000
0FFFF8000040
0FFFF80000F0
0FFFF80001F0
0FFFF80003F0
0FFFF80003F0
0FFFF80007F0
0FFFF8000FF0
0FFFFC001FF0
0FFFFE00FFF0
1FFFFFFFFFF0
7FFFFFFFFFF0
FFFFFFFFFFF0
FFFFFFFFFFF0
FFFFFFFFFFF0
FFFFFFFFFFF0
7FFFFFFFFFE0
ENDCHAR
STARTCHAR 004D
ENCODING 77
SWIDTH 1020 0
DWIDTH 68 0
BBX 66 47 1 -1
BITMAP
3FFFF0000007FFF800
7FFFF800000FFFFE00
7FFFF800001FFFFE00
7FFFFC00001FFFFE00
7FFFFC00003FFFFE00
7FFFFE00003FFFFE00
3FFFFE00007FFFFC00
0FFFFF00007FFFF000
07FFFF0000FFFFE000
07FFFF8000FFFFE000
07FFFF8000FFFFE000
07FFFFC001FFFFF000
07FFFFC001FFFFF000
07FFFFE003FFFFF000
07FFFFE003FFFFF000
07FFFFF007FFFFF000
07FFFFF007FFFFF000
07FFFFF80FFFFFF000
07FFFFF80FFFFFF000
07FFFFFC1FFFFFF000
07FFFFFC1FFFFFF000
07FFFFFE3FFFFFF000
07FFFFFE3FFFFFF000
07FBFFFF7FFFFFF000
07F1FFFFFFC7FFF000
07F0FFFFFFC7FFF000
07F0FFFFFF87FFF000
07F07FFFFF07FFF000
07F07FFFFF07FFF000
07F03FFFFE07FFF000
07F03FFFFE07FFF000
07F01FFFFC07FFF000
07F01FFFFC07FFF000
07F00FFFF807FFF000
07F00FFFF807FFF000
07F007FFF007FFF000
07F007FFF007FFF000
07F003FFE007FFF000
0FF003FFC007FFF800
1FF801FFC00FFFFC00
7FFC01FF801FFFFF00
FFFE00FF803FFFFF80
FFFE007F003FFFFFC0
FFFE007F003FFFFFC0
FFFE003E003FFFFFC0
7FFC003E001FFFFF80
0000001C0000000000
ENDCHAR
STARTCHAR 004E
ENCODING 78
SWIDTH 765 0
DWIDTH 51 0
BBX 49 47 1 -2
BITMAP
7FF800001FFF00
FFFC00003FFF80
FFFE00003FFF80
FFFF00003FFF80
FFFFC0003FFF80
7FFFE0001FFF00
1FFFF0000FFC00
1FFFF80007F800
0FFFFC0007F800
0FFFFE0007F800
0FFFFF0007F800
0FFFFF8007F800
0FFFFFC007F800
0FFFFFF007F800
0FFFFFF807F800
0FFFFFFC07F800
0FFFFFFE07F800
0FFFFFFF07F800
0FFFFFFF87F800
0FFFFFFFC7F800
0FFFFFFFE7F800
0FFFFFFFFFF800
0FFFFFFFFFF800
0FF9FFFFFFF800
0FF8FFFFFFF800
0FF87FFFFFF800
0FF83FFFFFF800
0FF81FFFFFF800
0FF80FFFFFF800
0FF807FFFFF800
0FF803FFFFF800
0FF801FFFFF800
0FF8007FFFF800
0FF8003FFFF800
0FF8001FFFF800
0FF8000FFFF800
0FF80007FFF800
1FFC0003FFF800
3FFE0001FFF800
7FFF0000FFF800
FFFF80007FF800
FFFF80003FF800
FFFF80001FF800
FFFF80000FF800
7FFF000003F800
0000000001F800
0000000000F000
ENDCHAR
STARTCHAR 004F
ENCODING 79
SWIDTH 810 0
DWIDTH 54 0
BBX 50 48 2 -1
BITMAP
00000FFE000000
0000FFFFE00000
0007FFFFF80000
001FFFFFFE0000
007FFFFFFF8000
00FFFFFFFFC000
01FFFFFFFFE000
03FFFFFFFFF000
07FFFC1FFFF800
0FFFF007FFFC00
1FFFF003FFFC00
1FFFE003FFFE00
3FFFE003FFFE00
3FFFC001FFFF00
7FFFC001FFFF00
7FFFC001FFFF80
7FFF8000FFFF80
FFFF8000FFFF80
FFFF8000FFFF80
FFFF8000FFFFC0
FFFF8000FFFFC0
FFFF8000FFFFC0
FFFF8000FFFFC0
FFFF8000FFFFC0
FFFF8000FFFFC0
FFFF8000FFFFC0
FFFF8000FFFFC0
FFFF8000FFFFC0
FFFF8000FFFFC0
7FFF8000FFFFC0
7FFF8000FFFF80
7FFF8000FFFF80
7FFFC001FFFF80
3FFFC001FFFF80
3FFFC001FFFF00
1FFFE003FFFF00
1FFFE003FFFE00
0FFFF003FFFE00
0FFFF007FFFC00
07FFFC1FFFF800
03FFFFFFFFF000
01FFFFFFFFE000
00FFFFFFFFC000
007FFFFFFF8000
001FFFFFFE0000
000FFFFFF80000
0001FFFFC00000
00001FFC000000
ENDCHAR
STARTCHAR 0050
ENCODING 80
SWIDTH 720 0
DWIDTH 48 0
BBX 46 45 1 0
BITMAP
3FFFFFFF8000
FFFFFFFFF800
FFFFFFFFFE00
FFFFFFFFFF80
FFFFFFFFFFC0
7FFFFFFFFFE0
1FFFFFFFFFF0
1FFFFC7FFFF0
0FFFF83FFFF8
0FFFF81FFFF8
0FFFF80FFFF8
0FFFF80FFFFC
0FFFF807FFFC
0FFFF807FFFC
0FFFF807FFFC
0FFFF807FFFC
0FFFF807FFFC
0FFFF80FFFFC
0FFFF81FFFFC
0FFFFC3FFFF8
0FFFFFFFFFF8
0FFFFFFFFFF8
0FFFFFFFFFF0
0FFFFFFFFFE0
0FFFFFFFFFC0
0FFFFFFFFF80
0FFFFFFFFE00
0FFFFFFFF000
0FFFFC000000
0FFFFC000000
0FFFFC000000
0FFFFC000000
0FFFFC000000
0FFFFC000000
0FFFFC000000
0FFFFC000000
0FFFFC000000
1FFFFE000000
3FFFFF000000
7FFFFFC00000
FFFFFFE00000
FFFFFFE00000
FFFFFFE00000
FFFFFFE00000
7FFFFFC00000
ENDCHAR
STARTCHAR 0051
ENCODING 81
SWIDTH 810 0
DWIDTH 54 0
BBX 50 63 2 -16
BITMAP
00000FFE000000
0000FFFFE00000
0007FFFFF80000
001FFFFFFE0000
007FFFFFFF8000
00FFFFFFFFC000
01FFFFFFFFE000
03FFFFFFFFF000
07FFFC1FFFF800
0FFFF007FFFC00
1FFFF003FFFC00
1FFFE003FFFE00
3FFFE003FFFF00
3FFFC001FFFF00
7FFFC001FFFF00
7FFFC001FFFF80
7FFF8000FFFF80
FFFF8000FFFF80
FFFF8000FFFF80
FFFF8000FFFFC0
FFFF8000FFFFC0
FFFF8000FFFFC0
FFFF8000FFFFC0
FFFF8000FFFFC0
FFFF8000FFFFC0
FFFF8000FFFFC0
FFFF8000FFFFC0
FFFF8000FFFFC0
7FFF8000FFFFC0
7FFF8000FFFFC0
7FFF8000FFFF80
7FFF8000FFFF80
3FFFC001FFFF80
3FFFC001FFFF80
3FFFC001FFFF00
1FFFE003FFFF00
1FFFE003FFFE00
0FFFF003FFFE00
0FFFF007FFFC00
07FFFC1FFFF800
03FFFFFFFFF000
01FFFFFFFFE000
03FFFFFFFFC000
07FFFFFFFF8000
0FFFFFFFFE0000
1FFFFFFFF80000
3FFFFFFFC00000
3FFFFFFF800000
3FE1FFFFE00000
3FC0FFFFF00E00
1F807FFFFC3F00
0F003FFFFFFF00
00001FFFFFFF00
00000FFFFFFF00
000007FFFFFF00
000003FFFFFE00
000001FFFFFE00
000000FFFFFC00
0000007FFFFC00
0000003FFFF800
0000001FFFF000
00000007FFC000
00000000FF0000
ENDCHAR
STARTCHAR 0052
ENCODING 82
SWIDTH 765 0
DWIDTH 51 0
BBX 52 45 1 0
BITMAP
7FFFFFFFF00000
FFFFFFFFFC0000
FFFFFFFFFF0000
FFFFFFFFFF8000
FFFFFFFFFFC000
7FFFFFFFFFE000
1FFFFFFFFFF000
1FFFF87FFFF000
0FFFF83FFFF000
0FFFF01FFFF800
0FFFF00FFFF800
0FFFF00FFFF800
0FFFF00FFFF800
0FFFF00FFFF800
0FFFF00FFFF800
0FFFF01FFFF800
0FFFF83FFFF800
0FFFF87FFFF000
0FFFFFFFFFE000
0FFFFFFFFFE000
0FFFFFFFFFC000
0FFFFFFFFF0000
0FFFFFFFFE0000
0FFFFFFFFE0000
0FFFFFFFFF0000
0FFFFFFFFF8000
0FFFF9FFFF8000
0FFFF8FFFFC000
0FFFF87FFFE000
0FFFF87FFFE000
0FFFF83FFFF000
0FFFF83FFFF800
0FFFF81FFFF800
0FFFF81FFFFC00
0FFFF80FFFFE00
0FFFF80FFFFF00
0FFFF807FFFF00
1FFFFC07FFFFE0
3FFFFE03FFFFF0
7FFFFF03FFFFF0
FFFFFF81FFFFF0
FFFFFF80FFFFE0
FFFFFF80FFFFE0
FFFFFF807FFFC0
7FFFFF003FFF80
ENDCHAR
STARTCHAR 0053
ENCODING 83
SWIDTH 600 0
DWIDTH 40 0
BBX 37 48 2 -1
BITMAP
0003F80380
001FFFFF80
007FFFFFC0
01FFFFFFC0
03FFFFFFC0
07FFFFFFE0
0FFFFFFFE0
0FFFFFFFE0
1FFF83FFE0
3FFE00FFF0
3FFE003FF0
3FFE001FF0
7FFE000FF0
7FFF8007F0
7FFFC003F0
7FFFF801C0
7FFFFE0000
7FFFFFC000
7FFFFFF000
7FFFFFF800
7FFFFFFE00
3FFFFFFF00
3FFFFFFF80
3FFFFFFFC0
1FFFFFFFE0
0FFFFFFFF0
07FFFFFFF0
03FFFFFFF0
01FFFFFFF8
007FFFFFF8
001FFFFFF8
0007FFFFF8
3800FFFFF8
7C001FFFF8
FE0007FFF8
FF8001FFF8
FFC001FFF0
FFF001FFF0
FFFC07FFF0
FFFFFFFFE0
FFFFFFFFE0
FFFFFFFFC0
7FFFFFFF80
7FFFFFFF00
7FFFFFFC00
3FFFFFF000
3FFFFFC000
001FFC0000
ENDCHAR
STARTCHAR 0054
ENCODING 84
SWIDTH 675 0
DWIDTH 45 0
BBX 45 45 0 0
BITMAP
7FFFFFFFFFF0
FFFFFFFFFFF8
FFFFFFFFFFF8
FFFFFFFFFFF8
FFFFFFFFFFF8
FFFFFFFFFFF8
FFFFFFFFFFF8
FFFFFFFFFFF8
FFC3FFFE1FF8
FF03FFFE07F8
FE03FFFE03F8
FE03FFFE03F8
FC03FFFE01F8
FC03FFFE00F8
F803FFFE00F8
7803FFFE0078
0003FFFE0000
0003FFFE0000
0003FFFE0000
0003FFFE0000
0003FFFE0000
0003FFFE0000
0003FFFE0000
0003FFFE0000
0003FFFE0000
0003FFFE0000
0003FFFE0000
0003FFFE0000
0003FFFE0000
0003FFFE0000
0003FFFE0000
0003FFFE0000
0003FFFE0000
0003FFFE0000
0003FFFE0000
0003FFFE0000
0003FFFE0000
0007FFFE0000
0007FFFF0000
001FFFFFC000
003FFFFFE000
003FFFFFE000
003FFFFFE000
003FFFFFE000
001FFFFFC000
ENDCHAR
STARTCHAR 0055
ENCODING 85
SWIDTH 840 0
DWIDTH 56 0
BBX 54 47 1 -1
BITMAP
00000000004100
7FFFFF8007FFF8
FFFFFFC00FFFFC
FFFFFFC00FFFFC
FFFFFFC00FFFFC
FFFFFF800FFFF8
3FFFFF0003FFF0
1FFFFC0001FFC0
0FFFF80000FF80
0FFFF80000FF80
0FFFF80000FF80
0FFFF80000FF80
0FFFF80000FF80
0FFFF80000FF80
0FFFF80000FF80
0FFFF80000FF80
0FFFF80000FF80
0FFFF80000FF80
0FFFF80000FF80
0FFFF80000FF80
0FFFF80000FF80
0FFFF80000FF80
0FFFF80000FF80
0FFFF80000FF80
0FFFF80000FF80
0FFFF80000FF80
0FFFF80000FF80
0FFFF80000FF80
0FFFF80000FF80
0FFFF80000FF80
0FFFF80000FF80
0FFFFC0001FF80
0FFFFC0001FF80
07FFFC0001FF80
07FFFE0003FF80
07FFFE0003FF00
07FFFF0007FF00
03FFFFC03FFF00
03FFFFFFFFFE00
01FFFFFFFFFE00
00FFFFFFFFFC00
007FFFFFFFF800
003FFFFFFFF000
001FFFFFFFE000
0007FFFFFF8000
0000FFFFFC0000
00000FFFC00000
ENDCHAR
STARTCHAR 0056
ENCODING 86
SWIDTH 825 0
DWIDTH 55 0
BBX 55 47 0 -2
BITMAP
7FFFFFF03FFFFC
FFFFFFF87FFFFE
FFFFFFF87FFFFE
FFFFFFF87FFFFE
FFFFFFF87FFFFC
7FFFFFE01FFFF8
1FFFFF8003FFE0
0FFFFF0001FFC0
07FFFF0001FF80
03FFFF0001FF80
03FFFF0001FF00
01FFFF0003FF00
01FFFF8003FE00
01FFFF8007FE00
00FFFF8007FE00
00FFFFC007FC00
007FFFC00FFC00
007FFFC00FF800
003FFFE01FF800
003FFFE01FF000
003FFFE03FF000
001FFFF03FE000
001FFFF07FE000
000FFFF07FC000
000FFFF87FC000
0007FFF8FF8000
0007FFFDFF8000
0003FFFFFF0000
0003FFFFFF0000
0003FFFFFE0000
0001FFFFFE0000
0001FFFFFC0000
0000FFFFFC0000
0000FFFFF80000
00007FFFF80000
00007FFFF00000
00007FFFF00000
00003FFFE00000
00003FFFE00000
00001FFFC00000
00001FFFC00000
00000FFF800000
00000FFF000000
000007FF000000
000007FE000000
000003FC000000
000000F0000000
ENDCHAR
STARTCHAR 0057
ENCODING 87
SWIDTH 1035 0
DWIDTH 69 0
BBX 69 47 0 -2
BITMAP
7FFFFC1FFFFE0FFFF0
FFFFFE3FFFFF1FFFF8
FFFFFE3FFFFF1FFFF8
FFFFFE3FFFFF1FFFF8
FFFFFE3FFFFF1FFFF8
FFFFFC3FFFFE1FFFF0
7FFFF81FFFFE07FFF0
3FFFF007FFF801FFC0
1FFFF007FFF8007F80
0FFFF007FFF8007F80
0FFFF803FFF8007F80
0FFFF801FFFC007F00
07FFF801FFFC00FF00
07FFF801FFFC00FF00
03FFFC01FFFC01FE00
03FFFC01FFFE01FE00
03FFFC03FFFE03FC00
01FFFE03FFFE03FC00
01FFFE07FFFF03FC00
01FFFE07FFFF07F800
00FFFE0FFFFF07F800
00FFFF0FFFFF07F800
00FFFF1FFFFF8FF000
007FFF1FFFFF8FF000
007FFF9FFFFF9FF000
003FFFBFFFFFDFE000
003FFFFFFFFFFFE000
003FFFFFCFFFFFE000
001FFFFFCFFFFFC000
001FFFFF8FFFFFC000
001FFFFF87FFFF8000
000FFFFF07FFFF8000
000FFFFF07FFFF8000
000FFFFE03FFFF0000
0007FFFE03FFFF0000
0007FFFC03FFFE0000
0007FFFC01FFFE0000
0003FFF801FFFC0000
0003FFF800FFFC0000
0001FFF000FFF80000
0001FFF000FFF80000
0001FFE0007FF00000
0000FFE0007FF00000
0000FFC0007FE00000
00007FC0003FC00000
00003F80003FC00000
00001F00000F000000
ENDCHAR
STARTCHAR 0058
ENCODING 88
SWIDTH 825 0
DWIDTH 55 0
BBX 55 45 0 0
BITMAP
0FFFFFF83FFFF8
1FFFFFFC7FFFFC
1FFFFFFC7FFFFC
1FFFFFFC7FFFFC
1FFFFFF87FFFFC
0FFFFFF01FFFF8
03FFFFE007FFC0
00FFFFE007FF00
00FFFFE00FFE00
007FFFF00FFC00
003FFFF01FFC00
001FFFF83FF800
001FFFFC7FF000
000FFFFEFFE000
0007FFFFFFC000
0003FFFFFF8000
0001FFFFFF0000
0001FFFFFE0000
0000FFFFFC0000
00007FFFFC0000
00003FFFF80000
00003FFFF80000
00001FFFFC0000
00001FFFFC0000
00003FFFFE0000
00003FFFFF0000
0000FFFFFF8000
0001FFFFFFC000
0003FFFFFFE000
0007FFFFFFE000
000FFF7FFFF000
001FFE3FFFF800
003FFC1FFFFC00
007FF81FFFFE00
00FFF00FFFFE00
00FFF00FFFFF00
01FFE007FFFF80
03FFE007FFFFC0
07FFE00FFFFFF0
3FFFF81FFFFFFC
FFFFFC3FFFFFFE
FFFFFC3FFFFFFE
FFFFFC3FFFFFFE
FFFFFC3FFFFFFE
7FFFF81FFFFFFC
ENDCHAR
STARTCHAR 0059
ENCODING 89
SWIDTH 795 0
DWIDTH 53 0
BBX 53 45 0 0
BITMAP
7FFFFFE01FFFF0
FFFFFFF03FFFF8
FFFFFFF03FFFF8
FFFFFFF03FFFF8
FFFFFFF03FFFF0
7FFFFFE01FFFC0
0FFFFF8007FF80
07FFFF0007FF00
03FFFF000FFE00
03FFFF800FFC00
01FFFF801FFC00
00FFFFC01FF800
00FFFFC03FF000
007FFFE07FE000
003FFFE07FE000
001FFFF0FFC000
001FFFF9FF8000
000FFFFFFF0000
0007FFFFFF0000
0007FFFFFE0000
0003FFFFFC0000
0001FFFFF80000
0001FFFFF80000
0000FFFFF00000
0000FFFFE00000
00007FFFE00000
00007FFFE00000
00003FFFE00000
00003FFFE00000
00003FFFE00000
00003FFFE00000
00003FFFE00000
00003FFFE00000
00003FFFE00000
00003FFFE00000
00003FFFE00000
00003FFFE00000
00003FFFE00000
00007FFFF00000
0000FFFFF80000
0003FFFFFE0000
0003FFFFFE0000
0003FFFFFE0000
0003FFFFFE0000
0001FFFFFC0000
ENDCHAR
STARTCHAR 005A
ENCODING 90
SWIDTH 705 0
DWIDTH 47 0
BBX 46 45 0 0
BITMAP
3FFFFFFFFFE0
3FFFFFFFFFF8
7FFFFFFFFFF8
7FFFFFFFFFF8
7FFFFFFFFFF0
7FFFFFFFFFF0
7FFFFFFFFFE0
7FFC0FFFFFC0
7FE007FFFFC0
7FC007FFFF80
7F000FFFFF00
7E001FFFFF00
7C001FFFFE00
78003FFFFC00
30007FFFFC00
00007FFFF800
0000FFFFF000
0001FFFFF000
0001FFFFE000
0003FFFFC000
0007FFFFC000
0007FFFF8000
000FFFFF0000
001FFFFF0000
001FFFFE0000
003FFFFC0000
007FFFFC0000
007FFFF80000
00FFFFF00010
01FFFFF00078
01FFFFE000FC
03FFFFC000FC
07FFFFC001FC
07FFFF8001FC
0FFFFF0003FC
1FFFFF000FFC
3FFFFF007FFC
3FFFFFFFFFFC
3FFFFFFFFFFC
7FFFFFFFFFFC
FFFFFFFFFFFC
FFFFFFFFFFFC
FFFFFFFFFFFC
FFFFFFFFFFFC
7FFFFFFFFFF8
ENDCHAR
STARTCHAR 005B
ENCODING 91
SWIDTH 450 0
DWIDTH 30 0
BBX 21 58 8 -10
BITMAP
7FFFF0
FFFFF0
FFFFF8
FFFFF8
FFFFF0
FFFFF0
FFFFC0
FFFE00
FFFE00
FFFC00
FFFC00
FFFC00
FFFC00
FFFC00
FFFC00
FFFC00
FFFC00
FFFC00
FFFC00
FFFC00
FFFC00
FFFC00
FFFC00
FFFC00
FFFC00
FFFC00
FFFC00
FFFC00
FFFC00
FFFC00
FFFC00
FFFC00
FFFC00
FFFC00
FFFC00
FFFC00
FFFC00
FFFC00
FFFC00
FFFC00
FFFC00
FFFC00
FFFC00
FFFC00
FFFC00
FFFC00
FFFC00
FFFC00
FFFC00
FFFE00
FFFF00
FFFFE0
FFFFF0
FFFFF0
FFFFF8
FFFFF8
FFFFF0
7FFFF0
ENDCHAR
STARTCHAR 005C
ENCODING 92
SWIDTH 570 0
DWIDTH 38 0
BBX 36 58 2 -11
BITMAP
F000000000
FC00000000
FE00000000
7F00000000
7F00000000
7F00000000
3F80000000
3F80000000
1FC0000000
0FC0000000
0FC0000000
07E0000000
07E0000000
03F0000000
03F0000000
01F8000000
01F8000000
00FC000000
007C000000
007E000000
003E000000
003F000000
001F000000
001F800000
000F800000
000FC00000
0007C00000
0007E00000
0003E00000
0003F00000
0001F00000
0001F80000
0000F80000
0000FC0000
00007C0000
00007E0000
00003E0000
00003F0000
00001F0000
00001F8000
00000F8000
00000FC000
000007E000
000007E000
000003F000
000003F800
000001F800
000001FC00
000000FC00
000000FE00
0000007F00
0000007F00
0000003F80
0000003FC0
0000001FE0
0000000FE0
00000007F0
00000000F0
ENDCHAR
STARTCHAR 005D
ENCODING 93
SWIDTH 450 0
DWIDTH 30 0
BBX 21 58 1 -10
BITMAP
7FFFF0
7FFFF8
FFFFF8
FFFFF8
7FFFF8
7FFFF8
1FFFF8
03FFF8
03FFF8
01FFF8
01FFF8
01FFF8
01FFF8
01FFF8
01FFF8
01FFF8
01FFF8
01FFF8
01FFF8
01FFF8
01FFF8
01FFF8
01FFF8
01FFF8
01FFF8
01FFF8
01FFF8
01FFF8
01FFF8
01FFF8
01FFF8
01FFF8
01FFF8
01FFF8
01FFF8
01FFF8
01FFF8
01FFF8
01FFF8
01FFF8
01FFF8
01FFF8
01FFF8
01FFF8
01FFF8
01FFF8
01FFF8
01FFF8
01FFF8
03FFF8
07FFF8
3FFFF8
7FFFF8
7FFFF8
FFFFF8
FFFFF8
7FFFF8
7FFFF0
ENDCHAR
STARTCHAR 005E
ENCODING 94
SWIDTH 495 0
DWIDTH 33 0
BBX 37 29 -2 18
BITMAP
0000180000
0000380000
00003C0000
00007C0000
0000FE0000
0000FF0000
0001FF0000
0003FF8000
0003FF8000
0007FFC000
000FFFE000
000FFFE000
001FFFF000
003FFFF000
003FFFF800
007FFEFC00
00FFFE7C00
00FFFC7E00
01FFF83E00
03FFF83F00
03FFF01F80
07FFE00F80
0FFFE00FC0
1FFFC007C0
1FFF8007E0
3FFF8003F0
7FFF0001F0
7FFE0001F8
FFFE0000F8
ENDCHAR
STARTCHAR 005F
ENCODING 95
SWIDTH 510 0
DWIDTH 34 0
BBX 34 7 0 -13
BITMAP
FFFFFFFFC0
FFFFFFFFC0
FFFFFFFFC0
FFFFFFFFC0
FFFFFFFFC0
FFFFFFFFC0
FFFFFFFFC0
ENDCHAR
STARTCHAR 0060
ENCODING 96
SWIDTH 495 0
DWIDTH 33 0
BBX 14 10 6 40
BITMAP
7FC0
FFC0
FFE0
FFE0
7FF0
3FF0
1FF8
0FFC
03FC
00F8
ENDCHAR
STARTCHAR 0061
ENCODING 97
SWIDTH 600 0
DWIDTH 40 0
BBX 38 37 1 -1
BITMAP
0003FF8000
007FFFF000
01FFFFFC00
07FFFFFE00
1FFFFFFF00
3FFFFFFF00
3FFFFFFF80
7FF87FFF80
7FE03FFF80
7FC01FFFC0
7F801FFFC0
7F001FFFC0
3E001FFFC0
3E001FFFC0
1C003FFFC0
00007FFFC0
0007FFFFC0
003FFFFFC0
01FFFFFFC0
07FFFFFFC0
0FFFFFFFC0
1FFF9FFFC0
3FFE1FFFC0
7FFC1FFFC0
7FF81FFFC0
FFF81FFFC0
FFF83FFFC0
FFFC3FFFFC
FFFFFFFFFC
FFFFFFFFFC
FFFFFFFFFC
FFFFFFFFF8
7FFFFFFFF8
7FFFCFFFF0
3FFF0FFFC0
1FFC07FF00
07E003F800
ENDCHAR
STARTCHAR 0062
ENCODING 98
SWIDTH 660 0
DWIDTH 44 0
BBX 42 50 0 -2
BITMAP
0007C0000000
007FE0000000
03FFE0000000
0FFFE0000000
3FFFE0000000
7FFFE0000000
FFFFE0000000
FFFFE0000000
FFFFE0000000
7FFFE0000000
3FFFE0000000
1FFFE0000000
1FFFE07F0000
1FFFE1FFC000
1FFFE7FFF000
0FFFFFFFF800
0FFFFFFFFC00
0FFFFFFFFC00
0FFFFFFFFE00
0FFFFFFFFF00
0FFFFFFFFF00
0FFFE3FFFF80
0FFFE1FFFF80
0FFFE0FFFF80
0FFFE07FFFC0
0FFFE07FFFC0
0FFFE07FFFC0
0FFFE03FFFC0
0FFFE03FFFC0
0FFFE03FFFC0
0FFFE03FFFC0
0FFFE01FFFC0
0FFFE01FFFC0
0FFFE01FFFC0
0FFFE01FFFC0
0FFFE01FFFC0
0FFFE01FFFC0
0FFFE01FFFC0
0FFFE03FFF80
0FFFE03FFF80
0FFFF07FFF00
0FFFF0FFFF00
0FFFFFFFFE00
0FFFFFFFFC00
0FFFFFFFF800
0FFFFFFFF000
0FFFFFFFC000
0FFFFFFF0000
0FE00FF80000
078000000000
ENDCHAR
STARTCHAR 0063
ENCODING 99
SWIDTH 525 0
DWIDTH 35 0
BBX 33 37 1 -1
BITMAP
0001FFC000
001FFFF800
007FFFFE00
00FFFFFF00
03FFFFFF00
07FFFFFF80
0FFFFFFF80
0FFF87FF80
1FFF03FF80
3FFF01FF80
3FFF00FF00
7FFF007F00
7FFE001E00
7FFE000000
FFFE000000
FFFE000000
FFFF000000
FFFF000000
FFFF000000
FFFF000000
FFFF000000
FFFF800000
FFFF800000
FFFFC00000
FFFFE00000
7FFFF00300
7FFFF81F80
7FFFFFFF80
3FFFFFFF80
3FFFFFFF80
1FFFFFFF00
1FFFFFFF00
0FFFFFFE00
07FFFFF800
03FFFFF000
00FFFF8000
001FF80000
ENDCHAR
STARTCHAR 0064
ENCODING 100
SWIDTH 690 0
DWIDTH 46 0
BBX 43 49 2 -1
BITMAP
000000007C00
00000007FE00
0000003FFE00
000001FFFE00
000003FFFE00
00000FFFFE00
00000FFFFE00
00000FFFFE00
00000FFFFE00
00000FFFFE00
000003FFFE00
000001FFFE00
001FC1FFFE00
007FF9FFFE00
01FFFFFFFE00
03FFFFFFFE00
07FFFFFFFE00
0FFFFFFFFE00
1FFFFFFFFE00
1FFFE3FFFE00
3FFFC1FFFE00
3FFF81FFFE00
7FFF00FFFE00
7FFF00FFFE00
7FFF00FFFE00
FFFF00FFFE00
FFFF00FFFE00
FFFE00FFFE00
FFFF00FFFE00
FFFF00FFFE00
FFFF00FFFE00
FFFF00FFFE00
FFFF00FFFE00
FFFF80FFFE00
FFFF80FFFE00
FFFFC1FFFE00
FFFFC1FFFE00
7FFFE1FFFF00
7FFFFFFFFFC0
3FFFFFFFFFE0
3FFFFFFFFFE0
1FFFFFFFFFE0
1FFFFFFFFFE0
0FFFFFFFFFC0
07FFFCFFFE00
07FFF8FFF800
03FFF0FFE000
00FFC0FF0000
003F00F80000
ENDCHAR
STARTCHAR 0065
ENCODING 101
SWIDTH 555 0
DWIDTH 37 0
BBX 35 37 1 -1
BITMAP
0003FE0000
001FFFC000
007FFFF000
00FFFFF800
01FFFFFE00
03FFFFFF00
07FFFFFF80
0FFF87FF80
1FFF07FFC0
1FFE03FFC0
3FFE03FFE0
3FFC03FFE0
7FFC07FFE0
7FFFFFFFE0
7FFFFFFFE0
7FFFFFFFE0
FFFFFFFFC0
FFFFFFFF80
FFFFFF0000
FFFF000000
FFFE000000
FFFF000000
FFFF000000
FFFF000000
FFFF800000
FFFFC00380
7FFFE00FC0
7FFFF83FC0
7FFFFFFFC0
3FFFFFFFC0
1FFFFFFF80
1FFFFFFF00
0FFFFFFE00
03FFFFFC00
01FFFFF000
007FFFC000
0007FE0000
ENDCHAR
STARTCHAR 0066
ENCODING 102
SWIDTH 375 0
DWIDTH 25 0
BBX 32 48 0 0
BITMAP
00000FF8
0000FFFE
0003FFFF
000FFFFF
001FFFFF
003FFFFF
007FFFFE
00FFF8FE
01FFF0FC
01FFF07C
03FFF038
03FFF000
03FFE000
07FFF000
7FFFFF80
FFFFFFC0
FFFFFFC0
FFFFFFC0
FFFFFFC0
FFFFFF80
FFFFFF00
1FFFF000
0FFFF000
0FFFE000
0FFFE000
0FFFE000
0FFFE000
0FFFE000
0FFFE000
0FFFE000
0FFFE000
0FFFE000
0FFFE000
0FFFE000
0FFFE000
0FFFE000
0FFFE000
0FFFF000
0FFFF000
0FFFF000
0FFFF000
1FFFF800
3FFFFC00
7FFFFE00
FFFFFE00
FFFFFE00
FFFFFE00
7FFFFC00
ENDCHAR
STARTCHAR 0067
ENCODING 103
SWIDTH 585 0
DWIDTH 39 0
BBX 37 50 1 -14
BITMAP
0007FF0030
007FFFE078
01FFFFF9F8
03FFFFFFF8
0FFFFFFFF8
1FFFFFFFF8
3FFFFFFFF8
3FFF0FFFF8
3FFE0FFFF0
7FFC07FFE0
7FFC07FFC0
7FFC07FF80
7FFC07FF80
7FFC07FF80
7FFC07FF80
3FFE0FFF80
3FFF0FFF00
3FFFFFFF00
1FFFFFFE00
0FFFFFFE00
07FFFFFC00
03FFFFF800
03FFFFE000
07FFFF0000
1FFC000000
3FF8000000
3FF8000000
7FFFFFFF00
FFFFFFFFC0
FFFFFFFFE0
FFFFFFFFF0
FFFFFFFFF0
FFFFFFFFF8
7FFFFFFFF8
7FFFFFFFF8
3FFFFFFFF8
1FFFFFFFF8
1FFFFFFFF8
1FFFFFFFF8
3FE007FFF0
7FE003FFF0
7FE003FFF0
7FF803FFE0
7FFF0FFFC0
7FFFFFFF80
3FFFFFFF00
1FFFFFFC00
07FFFFF000
01FFFF8000
000FE00000
ENDCHAR
STARTCHAR 0068
ENCODING 104
SWIDTH 750 0
DWIDTH 50 0
BBX 48 48 1 0
BITMAP
0007C0000000
007FE0000000
03FFE0000000
0FFFE0000000
3FFFE0000000
7FFFE0000000
FFFFE0000000
FFFFE0000000
FFFFE0000000
7FFFE0000000
3FFFE0000000
1FFFE0000000
1FFFE01FE000
1FFFE0FFF800
0FFFE7FFFE00
0FFFFFFFFF00
0FFFFFFFFF80
0FFFFFFFFFC0
0FFFFFFFFFE0
0FFFFFFFFFE0
0FFFF07FFFE0
0FFFE03FFFE0
0FFFE01FFFE0
0FFFE01FFFE0
0FFFE00FFFE0
0FFFE00FFFE0
0FFFE00FFFE0
0FFFE00FFFE0
0FFFE00FFFE0
0FFFE00FFFE0
0FFFE00FFFE0
0FFFE00FFFE0
0FFFE00FFFE0
0FFFE00FFFE0
0FFFE00FFFE0
0FFFE00FFFE0
0FFFE00FFFE0
0FFFE00FFFF0
0FFFE00FFFF0
1FFFE00FFFF0
1FFFE00FFFF0
3FFFF01FFFF8
7FFFF83FFFFE
7FFFFC7FFFFE
FFFFFC7FFFFF
FFFFFC7FFFFF
FFFFFC7FFFFF
7FFFF83FFFFE
ENDCHAR
STARTCHAR 0069
ENCODING 105
SWIDTH 375 0
DWIDTH 25 0
BBX 23 51 1 1
BITMAP
003F80
00FFC0
01FFE0
03FFE0
07FFE0
0FFFE0
0FFFE0
0FFFC0
0FFF80
0FFF00
0FFC00
03E000
000000
000000
0007C0
007FE0
03FFE0
0FFFE0
3FFFE0
7FFFE0
FFFFE0
FFFFE0
FFFFE0
7FFFE0
3FFFE0
1FFFE0
1FFFE0
1FFFE0
0FFFE0
0FFFE0
0FFFE0
0FFFE0
0FFFE0
0FFFE0
0FFFE0
0FFFE0
0FFFE0
0FFFE0
0FFFE0
0FFFE0
0FFFE0
0FFFE0
0FFFE0
1FFFE0
1FFFF0
3FFFF8
7FFFFC
FFFFFE
FFFFFE
FFFFFE
7FFFFC
ENDCHAR
STARTCHAR 006A
ENCODING 106
SWIDTH 480 0
DWIDTH 32 0
BBX 27 63 0 -12
BITMAP
00001F00
00007FC0
0001FFE0
0003FFE0
0007FFE0
000FFFE0
001FFFE0
001FFFE0
001FFFC0
001FFF00
000FFE00
0003F000
00000000
00000000
000007E0
00003FE0
0001FFE0
000FFFE0
003FFFE0
007FFFE0
00FFFFE0
00FFFFE0
00FFFFE0
007FFFE0
003FFFE0
001FFFE0
001FFFE0
000FFFE0
000FFFE0
000FFFE0
000FFFE0
000FFFE0
000FFFE0
000FFFE0
000FFFE0
000FFFE0
000FFFE0
000FFFE0
000FFFE0
000FFFE0
000FFFE0
000FFFE0
000FFFE0
000FFFE0
000FFFE0
000FFFE0
000FFFE0
000FFFE0
000FFFE0
000FFFE0
001FFFC0
0E1FFFC0
1F1FFF80
3F3FFF80
7FFFFF00
7FFFFE00
FFFFFC00
FFFFF800
FFFFF000
FFFFC000
FFFF0000
7FFC0000
3FC00000
ENDCHAR
STARTCHAR 006B
ENCODING 107
SWIDTH 735 0
DWIDTH 49 0
BBX 48 48 1 0
BITMAP
0007C0000000
007FE0000000
03FFE0000000
0FFFE0000000
3FFFE0000000
7FFFE0000000
FFFFE0000000
FFFFE0000000
FFFFE0000000
7FFFE0000000
3FFFE0000000
1FFFE0000000
1FFFE0000000
1FFFE07FFFF8
0FFFE0FFFFFC
0FFFE0FFFFFC
0FFFE0FFFFFC
0FFFE07FFFF8
0FFFE01FFFE0
0FFFE01FFF00
0FFFE03FFC00
0FFFE07FF000
0FFFE0FFE000
0FFFE1FF8000
0FFFE7FF8000
0FFFFFFFC000
0FFFFFFFE000
0FFFFFFFE000
0FFFFFFFF000
0FFFFFFFF800
0FFFFFFFF800
0FFFFFFFFC00
0FFFE7FFFE00
0FFFE7FFFE00
0FFFE3FFFF00
0FFFE3FFFF80
0FFFE1FFFF80
0FFFE0FFFFC0
1FFFE0FFFFC0
1FFFE07FFFE0
1FFFE07FFFF0
3FFFE03FFFF8
7FFFF83FFFFF
7FFFFC1FFFFF
FFFFFC1FFFFF
FFFFFC0FFFFF
FFFFFC07FFFF
7FFFF803FFFE
ENDCHAR
STARTCHAR 006C
ENCODING 108
SWIDTH 375 0
DWIDTH 25 0
BBX 23 48 1 0
BITMAP
0007C0
007FE0
03FFE0
0FFFE0
3FFFE0
7FFFE0
FFFFE0
FFFFE0
FFFFE0
7FFFE0
3FFFE0
1FFFE0
1FFFE0
1FFFE0
0FFFE0
0FFFE0
0FFFE0
0FFFE0
0FFFE0
0FFFE0
0FFFE0
0FFFE0
0FFFE0
0FFFE0
0FFFE0
0FFFE0
0FFFE0
0FFFE0
0FFFE0
0FFFE0
0FFFE0
0FFFE0
0FFFE0
0FFFE0
0FFFE0
0FFFE0
0FFFE0
0FFFE0
0FFFE0
0FFFE0
1FFFE0
1FFFF0
3FFFF8
7FFFFC
FFFFFE
FFFFFE
FFFFFE
7FFFFC
ENDCHAR
STARTCHAR 006D
ENCODING 109
SWIDTH 1080 0
DWIDTH 72 0
BBX 70 37 1 0
BITMAP
0007C0000000000000
007FE03FC0003FC000
03FFE1FFF001FFF800
0FFFE7FFFC0FFFFC00
3FFFFFFFFE3FFFFE00
7FFFFFFFFFFFFFFF00
FFFFFFFFFFFFFFFF00
FFFFFFFFFFFFFFFF80
FFFFFFFFFFFFFFFF80
7FFFF0FFFFF0FFFFC0
3FFFE07FFFE07FFFC0
1FFFE03FFFE03FFFC0
1FFFE03FFFE03FFFC0
1FFFE01FFFC01FFFC0
0FFFE01FFFC01FFFC0
0FFFE01FFFC01FFFC0
0FFFE01FFFC01FFFC0
0FFFE01FFFC01FFFC0
0FFFE01FFFC01FFFC0
0FFFE01FFFC01FFFC0
0FFFE01FFFC01FFFC0
0FFFE01FFFC01FFFC0
0FFFE01FFFC01FFFC0
0FFFE01FFFC01FFFC0
0FFFE01FFFC01FFFC0
0FFFE01FFFC01FFFC0
1FFFE01FFFE01FFFC0
1FFFE01FFFE01FFFE0
1FFFE01FFFE01FFFE0
1FFFE01FFFE03FFFE0
3FFFF03FFFF03FFFF0
7FFFF03FFFF07FFFF8
FFFFF87FFFF8FFFFFC
FFFFF87FFFF8FFFFFC
FFFFF87FFFF8FFFFFC
FFFFF87FFFF8FFFFFC
7FFFF03FFFF07FFFF8
ENDCHAR
STARTCHAR 006E
ENCODING 110
SWIDTH 735 0
DWIDTH 49 0
BBX 47 37 1 0
BITMAP
0007C0000000
007FE01FE000
01FFE0FFFC00
0FFFE3FFFE00
3FFFFFFFFF00
7FFFFFFFFF80
FFFFFFFFFF80
FFFFFFFFFFC0
FFFFFFFFFFC0
7FFFF07FFFE0
3FFFE03FFFE0
1FFFE01FFFE0
1FFFE01FFFE0
1FFFE01FFFE0
0FFFE00FFFE0
0FFFE00FFFE0
0FFFE00FFFE0
0FFFE00FFFE0
0FFFE00FFFE0
0FFFE00FFFE0
0FFFE00FFFE0
0FFFE00FFFE0
0FFFE00FFFE0
0FFFE00FFFE0
0FFFE00FFFE0
0FFFE00FFFE0
0FFFE00FFFE0
0FFFE00FFFF0
0FFFE00FFFF0
1FFFE00FFFF0
1FFFF01FFFF8
3FFFF83FFFFC
7FFFFC7FFFFC
FFFFFC7FFFFE
FFFFFC7FFFFE
FFFFFC7FFFFE
7FFFF83FFFFC
ENDCHAR
STARTCHAR 006F
ENCODING 111
SWIDTH 645 0
DWIDTH 43 0
BBX 40 37 1 -1
BITMAP
0001FF8000
001FFFF800
007FFFFE00
01FFFFFF80
03FFFFFFC0
07FFFFFFF0
0FFFFFFFF8
1FFFC1FFF8
3FFF80FFFC
3FFF00FFFE
7FFF00FFFE
7FFF007FFE
7FFF007FFF
FFFE007FFF
FFFE007FFF
FFFE007FFF
FFFE007FFF
FFFE007FFF
FFFE007FFF
FFFE007FFF
FFFE007FFF
FFFE007FFF
FFFE007FFF
FFFE007FFF
7FFE007FFF
7FFF007FFE
7FFF007FFE
3FFF00FFFE
3FFF80FFFC
1FFFC1FFFC
0FFFFFFFF8
07FFFFFFF0
03FFFFFFE0
01FFFFFF80
007FFFFF00
001FFFF800
0001FFC000
ENDCHAR
STARTCHAR 0070
ENCODING 112
SWIDTH 660 0
DWIDTH 44 0
BBX 42 52 1 -15
BITMAP
0003C0000000
003FE07F0000
00FFE1FFC000
07FFE7FFF000
1FFFFFFFF800
7FFFFFFFFC00
FFFFFFFFFC00
FFFFFFFFFE00
FFFFFFFFFF00
7FFFF1FFFF00
1FFFE0FFFF80
1FFFE0FFFF80
0FFFE07FFF80
0FFFE07FFFC0
0FFFE07FFFC0
0FFFE03FFFC0
0FFFE03FFFC0
0FFFE03FFFC0
0FFFE03FFFC0
0FFFE03FFFC0
0FFFE01FFFC0
0FFFE01FFFC0
0FFFE03FFFC0
0FFFE03FFF80
0FFFE03FFF80
0FFFE03FFF80
0FFFE07FFF80
0FFFE07FFF00
0FFFF1FFFF00
0FFFFFFFFE00
0FFFFFFFFE00
0FFFFFFFFC00
0FFFFFFFFC00
0FFFFFFFF800
0FFFFFFFF000
0FFFFFFFE000
0FFFFFFF8000
0FFFF3FC0000
0FFFE0000000
0FFFE0000000
0FFFE0000000
0FFFE0000000
0FFFF0000000
0FFFF0000000
0FFFF0000000
1FFFF8000000
3FFFFC000000
7FFFFF000000
FFFFFF000000
FFFFFF000000
FFFFFF000000
7FFFFE000000
ENDCHAR
STARTCHAR 0071
ENCODING 113
SWIDTH 675 0
DWIDTH 45 0
BBX 43 51 1 -14
BITMAP
0001FF80FE00
001FFFFFFE00
007FFFFFFE00
01FFFFFFFE00
03FFFFFFFE00
07FFFFFFFE00
0FFFFFFFFE00
1FFFFFFFFE00
1FFFE1FFFE00
3FFF81FFFE00
3FFF80FFFE00
7FFF00FFFE00
7FFF00FFFE00
7FFF00FFFE00
FFFF00FFFE00
FFFE00FFFE00
FFFF00FFFE00
FFFF00FFFE00
FFFF00FFFE00
FFFF00FFFE00
FFFF00FFFE00
FFFF00FFFE00
FFFF80FFFE00
FFFF80FFFE00
7FFFC0FFFE00
7FFFE0FFFE00
7FFFF1FFFE00
3FFFFFFFFE00
3FFFFFFFFE00
1FFFFFFFFE00
1FFFFFFFFE00
0FFFFFFFFE00
07FFFFFFFE00
03FFFFFFFE00
01FFFCFFFE00
00FFF0FFFE00
003FC0FFFE00
000000FFFE00
000000FFFE00
000000FFFE00
000000FFFE00
000000FFFF00
000000FFFF00
000001FFFF00
000003FFFF80
000007FFFFC0
00000FFFFFE0
00001FFFFFE0
00001FFFFFE0
00001FFFFFE0
00000FFFFFC0
ENDCHAR
STARTCHAR 0072
ENCODING 114
SWIDTH 510 0
DWIDTH 34 0
BBX 33 37 1 0
BITMAP
0007C00000
003FE00000
01FFE07800
0FFFE1FE00
3FFFE3FE00
7FFFE7FF00
FFFFFFFF00
FFFFFFFF80
FFFFFFFF80
7FFFFFFF80
3FFFFFFF80
1FFFFFFF80
1FFFFFFF80
1FFFE3FF80
1FFFE1FF00
0FFFE0FF00
0FFFE07E00
0FFFE03C00
0FFFE00000
0FFFE00000
0FFFE00000
0FFFE00000
0FFFE00000
0FFFE00000
0FFFE00000
0FFFE00000
0FFFE00000
0FFFE00000
0FFFE00000
1FFFF00000
3FFFF80000
7FFFFE0000
7FFFFF0000
FFFFFF0000
FFFFFF0000
FFFFFF0000
7FFFFE0000
ENDCHAR
STARTCHAR 0073
ENCODING 115
SWIDTH 480 0
DWIDTH 32 0
BBX 29 37 2 -1
BITMAP
003FFF80
01FFFF80
07FFFFC0
0FFFFFC0
1FFFFFC0
3FFFFFE0
3FFFFFE0
7FF83FE0
7FF80FE0
FFF807E0
FFFE03E0
FFFF01C0
FFFFE000
FFFFF800
FFFFFE00
FFFFFF80
FFFFFFC0
7FFFFFE0
7FFFFFF0
3FFFFFF0
1FFFFFF8
07FFFFF8
03FFFFF8
707FFFF8
F81FFFF8
FC03FFF8
FC00FFF8
FE007FF0
FF007FF0
FFC07FE0
FFFFFFE0
FFFFFFC0
7FFFFF80
7FFFFF00
3FFFFC00
0FFFF000
01FF8000
ENDCHAR
STARTCHAR 0074
ENCODING 116
SWIDTH 405 0
DWIDTH 27 0
BBX 27 44 0 -1
BITMAP
0000C000
0003C000
0007C000
001FC000
003FC000
00FFC000
03FFC000
0FFFE000
1FFFFF80
3FFFFFC0
7FFFFFC0
FFFFFFC0
FFFFFFC0
FFFFFFC0
7FFFFF80
3FFFE000
1FFFE000
1FFFE000
1FFFC000
1FFFC000
1FFFC000
1FFFC000
1FFFC000
1FFFC000
1FFFC000
1FFFC000
1FFFC000
1FFFC000
1FFFC000
1FFFC000
1FFFE000
1FFFE000
1FFFE000
1FFFE000
1FFFF000
1FFFFFC0
1FFFFFE0
0FFFFFE0
0FFFFFE0
07FFFFC0
07FFFF80
01FFFF00
00FFFC00
001FE000
ENDCHAR
STARTCHAR 0075
ENCODING 117
SWIDTH 735 0
DWIDTH 49 0
BBX 48 37 1 -2
BITMAP
7FFFE07FFFE0
FFFFE0FFFFE0
FFFFE0FFFFE0
FFFFE0FFFFE0
FFFFE0FFFFE0
7FFFE07FFFE0
3FFFE01FFFE0
1FFFE01FFFE0
0FFFE00FFFE0
0FFFE00FFFE0
0FFFE00FFFE0
0FFFE00FFFE0
0FFFE00FFFE0
0FFFE00FFFE0
0FFFE00FFFE0
0FFFE00FFFE0
0FFFE00FFFE0
0FFFE00FFFE0
0FFFE00FFFE0
0FFFE00FFFE0
0FFFE00FFFE0
0FFFF00FFFE0
0FFFF00FFFE0
0FFFF00FFFE0
0FFFF80FFFF0
0FFFF80FFFF0
0FFFFC1FFFFC
07FFFFFFFFFE
07FFFFFFFFFF
07FFFFFFFFFE
03FFFFFFFFFE
03FFFFFFFFFC
01FFFFEFFFF0
00FFFF8FFFC0
007FFC0FFE00
000FE00FF000
000000078000
ENDCHAR
STARTCHAR 0076
ENCODING 118
SWIDTH 705 0
DWIDTH 47 0
BBX 47 36 0 -1
BITMAP
7FFFFE07FFFC
FFFFFF0FFFFE
FFFFFF0FFFFE
FFFFFF0FFFFE
7FFFFE07FFFC
1FFFF801FFF0
0FFFF800FFC0
07FFF800FF80
07FFF801FF80
03FFFC01FF00
03FFFC01FF00
01FFFE03FE00
01FFFE03FE00
00FFFE07FC00
00FFFF07FC00
007FFF07F800
007FFF0FF800
003FFF8FF000
003FFF9FE000
001FFFFFE000
001FFFFFC000
000FFFFFC000
000FFFFF8000
0007FFFF8000
0007FFFF0000
0003FFFF0000
0003FFFE0000
0001FFFE0000
0001FFFC0000
0000FFFC0000
0000FFF80000
00007FF80000
00007FF00000
00003FE00000
00001FC00000
00000F800000
ENDCHAR
STARTCHAR 0077
ENCODING 119
SWIDTH 1005 0
DWIDTH 67 0
BBX 67 36 0 0
BITMAP
7FFFF83FFFFC0FFFC0
FFFFFC7FFFFE1FFFE0
FFFFFC7FFFFE1FFFE0
FFFFFC7FFFFE1FFFE0
FFFFFC7FFFFE1FFFE0
7FFFF81FFFF807FF00
1FFFF00FFFF001FE00
0FFFF007FFF001FC00
07FFF807FFF801FC00
07FFF803FFF803F800
03FFF803FFF803F800
03FFFC03FFFC07F000
01FFFC07FFFC07F000
01FFFE07FFFE0FE000
00FFFE0FFFFE0FE000
00FFFE0FFFFF1FE000
00FFFF1FFFFF1FC000
007FFF1FFFFFBFC000
007FFF3FFFFFFF8000
003FFFFFBFFFFF8000
003FFFFF9FFFFF0000
003FFFFF1FFFFF0000
001FFFFE0FFFFE0000
001FFFFE0FFFFE0000
000FFFFC0FFFFC0000
000FFFFC07FFFC0000
0007FFF807FFF80000
0007FFF003FFF80000
0007FFF003FFF00000
0003FFE003FFF00000
0003FFE001FFE00000
0001FFC001FFE00000
0001FF8000FFC00000
0000FF8000FFC00000
00007F00007F800000
00003C00001E000000
ENDCHAR
STARTCHAR 0078
ENCODING 120
SWIDTH 720 0
DWIDTH 48 0
BBX 48 35 0 0
BITMAP
1FFFFF87FFFC
3FFFFFCFFFFE
3FFFFFCFFFFE
3FFFFFCFFFFE
3FFFFF87FFFC
0FFFFF01FFF0
03FFFF01FFC0
01FFFF83FF00
00FFFFC7FE00
00FFFFEFFC00
007FFFFFF800
003FFFFFF000
001FFFFFC000
000FFFFF8000
0007FFFF0000
0003FFFF0000
0001FFFF8000
0000FFFFC000
0000FFFFE000
0001FFFFF000
0003FFFFF800
0007FFFFF800
000FFFFFFC00
001FFFFFFE00
003FF1FFFF00
007FE0FFFF80
00FFC0FFFFC0
03FF807FFFE0
0FFF807FFFF8
3FFFE0FFFFFE
7FFFF9FFFFFF
FFFFFBFFFFFF
FFFFFBFFFFFF
FFFFFBFFFFFF
7FFFF1FFFFFE
ENDCHAR
STARTCHAR 0079
ENCODING 121
SWIDTH 600 0
DWIDTH 40 0
BBX 40 47 0 -11
BITMAP
FFFFFC7FFF
FFFFFC7FFF
FFFFFC7FFF
FFFFFC7FFF
7FFFF87FFE
1FFFF01FF8
0FFFF01FE0
0FFFF01FE0
07FFF81FC0
07FFF83FC0
03FFF83FC0
03FFF83F80
01FFF87F80
01FFFC7F00
00FFFC7F00
00FFFCFE00
007FFEFE00
007FFFFC00
003FFFFC00
003FFFFC00
001FFFF800
001FFFF800
001FFFF000
000FFFF000
000FFFE000
0007FFE000
0007FFC000
0003FFC000
0003FFC000
0001FF8000
0001FF8000
0001FF0000
0001FF0000
0003FE0000
0003FC0000
0E0FFC0000
3F9FF80000
3FFFF80000
7FFFF00000
7FFFE00000
7FFFC00000
7FFF800000
7FFF000000
7FFE000000
3FFC000000
1FF8000000
0FC0000000
ENDCHAR
STARTCHAR 007A
ENCODING 122
SWIDTH 480 0
DWIDTH 32 0
BBX 32 35 0 1
BITMAP
07FFFFFE
0FFFFFFE
0FFFFFFE
1FFFFFFC
1FFFFFF8
3FFFFFF8
3FFFFFF0
3FFFFFE0
7FFFFFE0
7FFFFFC0
7FFFFF80
7F07FF80
7C07FF00
3007FF00
000FFE00
001FFC00
001FFC00
003FF800
007FF000
007FF006
00FFE00F
01FFC03F
01FFC1FF
03FFFFFF
03FFFFFF
07FFFFFF
0FFFFFFE
0FFFFFFE
1FFFFFFE
3FFFFFFE
3FFFFFFC
7FFFFFFC
FFFFFFFC
FFFFFFF8
FFFFFFF8
ENDCHAR
STARTCHAR 007B
ENCODING 123
SWIDTH 510 0
DWIDTH 34 0
BBX 20 57 7 -13
BITMAP
000FF0
00FFF0
03FF80
03FF00
07FE00
07FE00
07FC00
0FFC00
0FFC00
0FFC00
0FFC00
0FFC00
0FFC00
0FFC00
0FFC00
0FFC00
0FFC00
0FFC00
0FFC00
0FFC00
0FFC00
0FFC00
0FF800
0FF800
0FF800
1FF000
3FE000
FF0000
FF0000
3FE000
1FF000
0FF800
0FF800
0FFC00
0FFC00
0FFC00
0FFC00
0FFC00
0FFC00
0FFC00
0FFC00
0FFC00
0FFC00
0FFC00
0FFC00
0FFC00
0FFC00
0FFC00
0FFC00
0FFC00
0FFC00
0FFC00
07FE00
07FE00
03FF80
01FFF0
001FF0
ENDCHAR
STARTCHAR 007C
ENCODING 124
SWIDTH 495 0
DWIDTH 33 0
BBX 9 56 12 -11
BITMAP
FF80
FF80
FF80
FF80
FF80
FF80
FF80
FF80
FF80
FF80
FF80
FF80
FF80
FF80
FF80
FF80
FF80
FF80
FF80
FF80
FF80
FF80
FF80
FF80
FF80
FF80
FF80
FF80
FF80
FF80
FF80
FF80
FF80
FF80
FF80
FF80
FF80
FF80
FF80
FF80
FF80
FF80
FF80
FF80
FF80
FF80
FF80
FF80
FF80
FF80
FF80
FF80
FF80
FF80
FF80
FF80
ENDCHAR
STARTCHAR 007D
ENCODING 125
SWIDTH 510 0
DWIDTH 34 0
BBX 20 57 7 -13
BITMAP
FF8000
FFF000
3FFC00
0FFC00
07FE00
07FE00
03FE00
03FF00
03FF00
03FF00
03FF00
03FF00
03FF00
03FF00
03FF00
03FF00
03FF00
03FF00
03FF00
03FF00
03FF00
03FF00
03FF00
03FF00
01FF00
00FF80
007FC0
001FF0
0007F0
007FE0
00FF80
01FF00
01FF00
01FF00
03FF00
03FF00
03FF00
03FF00
03FF00
03FF00
03FF00
03FF00
03FF00
03FF00
03FF00
03FF00
03FF00
03FF00
03FF00
03FF00
03FF00
07FF00
07FE00
07FE00
1FFC00
FFF800
FFC000
ENDCHAR
STARTCHAR 007E
ENCODING 126
SWIDTH 660 0
DWIDTH 44 0
BBX 25 10 10 40
BITMAP
01800000
07F80380
0FFF0780
1FFFFF00
3FFFFE00
3FFFFE00
7FFFFC00
F07FF800
E00FF000
00018000
ENDCHAR
STARTCHAR 00A0
ENCODING 160
SWIDTH 285 0
DWIDTH 19 0
BBX 0 0 0 0
BITMAP
ENDCHAR
STARTCHAR 00A1
ENCODING 161
SWIDTH 375 0
DWIDTH 25 0
BBX 24 47 1 -12
BITMAP
003F00
00FFC0
01FFE0
03FFF0
03FFF8
03FFF8
03FFF8
03FFF8
03FFF8
03FFF8
03FFF0
01FFE0
00FFC0
003F00
000000
000000
000000
000E00
001F80
001F80
003FC0
003FC0
007FC0
00FFC0
01FFC0
03FFC0
07FF80
0FFF80
1FFF00
3FFF00
3FFE00
7FFE00
7FFE00
FFFC00
FFFC00
FFFC00
FFFC00
FFFF0E
FFFFFF
FFFFFF
FFFFFF
7FFFFF
7FFFFE
3FFFFC
1FFFF8
0FFFF0
03FF80
ENDCHAR
STARTCHAR 00A2
ENCODING 162
SWIDTH 660 0
DWIDTH 44 0
BBX 34 45 5 0
BITMAP
0000FF8000
0001FF8000
0001FF8000
0003FFC000
001FFFF000
007FFFFC00
01FFFFFE00
03FFFFFF00
07FFFFFF00
0FFF8FFF00
1FFF0FFF00
1FFF07FE00
3FFF03FE00
3FFE03F800
7FFE01E000
7FFE000000
7FFE000000
FFFF000000
FFFF000000
FFFF000000
FFFF000000
FFFF000000
FFFF000000
FFFF800000
FFFF800000
FFFF800000
7FFFC00000
7FFFE00000
7FFFE00000
7FFFF00380
3FFFFC1FC0
3FFFFFFFC0
1FFFFFFFC0
0FFFFFFF80
07FFFFFF00
07FFFFFE00
01FFFFF800
00FFFFC000
001FFF8000
0000FF8000
0000FF8000
0000FF8000
0000FF8000
0000FF8000
0000FF0000
ENDCHAR
STARTCHAR 00A3
ENCODING 163
SWIDTH 660 0
DWIDTH 44 0
BBX 35 48 5 -1
BITMAP
0003FF8000
001FFFF000
00FFFFFC00
03FFFFFE00
07FFFFFF00
0FFFFFFF00
1FFFFFFF00
1FFE03FF00
3FFC01FF00
3FF800FF00
3FF8007F00
7FF8007F00
7FF8007E00
7FFC003E00
7FFC001C00
7FFE000000
7FFF000000
7FFF000000
7FFF800000
3FFFC00000
3FFFC00000
3FFFE00000
7FFFFFF000
FFFFFFF800
FFFFFFF800
FFFFFFF800
FFFFF80000
7FFFF80000
07FFF80000
03FFF80000
03FFF80000
03FFF00000
01FFF00000
01FFF00000
01FFE00000
01FFE001C0
01FFFC03E0
03FFFF07E0
07FFFFFFE0
0FFFFFFFE0
1FFFFFFFC0
3FFFFFFFC0
3FFFFFFF80
7FFFFFFF80
7FFFFFFF00
7FFFFFFE00
7E0FFFF800
3800FFE000
ENDCHAR
STARTCHAR 00A4
ENCODING 164
SWIDTH 660 0
DWIDTH 44 0
BBX 42 43 1 1
BITMAP
180000000600
3C0000000F00
7E0000001F80
FF0000001FC0
FF807FC03FC0
7FC7FFF87F80
3FFFFFFEFF00
1FFFFFFFFE00
0FFFFFFFFC00
07FFFFFFF800
03FFFFFFF000
01FFFFFFF000
03FFFFFFF000
03FFFFFFF000
07FFE0FFF800
07FF803FF800
07FF001FF800
0FFE000FFC00
0FFE000FFC00
0FFC0007FC00
0FFC0007FC00
0FFC0007FC00
0FFC0007FC00
0FFC0007FC00
0FFE000FFC00
0FFE000FFC00
07FF001FF800
07FF803FF800
07FFE0FFF800
03FFFFFFF800
03FFFFFFF000
01FFFFFFF000
03FFFFFFF000
07FFFFFFF800
0FFFFFFFFC00
1FFFFFFFFE00
3FEFFFFEFF00
7FC3FFF87F80
FF807FC03FC0
7F0000001FC0
3E0000000F80
1C0000000700
080000000200
ENDCHAR
STARTCHAR 00A5
ENCODING 165
SWIDTH 555 0
DWIDTH 37 0
BBX 37 45 0 0
BITMAP
FFFFE07FF8
FFFFE07FF8
3FFF0007E0
1FFF0003C0
0FFF000380
07FF800300
07FF800300
07FF800700
03FFC00600
03FFC00E00
01FFE00C00
01FFE00C00
00FFE01C00
00FFF01800
00FFF03800
007FF03000
007FF83000
003FF87000
003FFC6000
003FFC6000
0FFFFCFFC0
0FFFFEFFC0
0FFFFEFFC0
000FFF8000
0007FF8000
0007FF8000
0007FF8000
0003FF8000
0003FF8000
0FFFFFFFC0
0FFFFFFFC0
0FFFFFFFC0
0003FF8000
0003FF8000
0003FF8000
0003FF8000
0003FF8000
0003FF8000
0003FF8000
0003FF8000
0003FF8000
0003FF8000
0007FFC000
001FFFE000
00FFFFFC00
ENDCHAR
STARTCHAR 00A6
ENCODING 166
SWIDTH 0 0
DWIDTH 0 0
BBX 0 0 0 0
BITMAP
ENDCHAR
STARTCHAR 00A7
ENCODING 167
SWIDTH 645 0
DWIDTH 43 0
BBX 35 58 4 -11
BITMAP
0003FF0000
003FFFF800
00FFFFFE00
03FFFFFF80
07FFFFFF80
0FFFFFFFC0
1FFFFFFFC0
3FFFFFFFC0
3FFE07FFC0
7FFC01FFC0
7FFC007FC0
7FFE001FC0
7FFF000F80
7FFFE00380
3FFFFC0000
3FFFFF0000
3FFFFFC000
1FFFFFF000
1FFFFFFC00
1FFFFFFE00
1FFFFFFF80
3FFFFFFF80
3FE3FFFFC0
7FE0FFFFC0
7FE03FFFE0
FFE00FFFE0
FFF007FFE0
FFF003FFE0
FFFC01FFE0
FFFF01FFE0
FFFFC1FFC0
FFFFF1FFC0
7FFFFBFF80
7FFFFFFF00
3FFFFFFF00
1FFFFFFE00
0FFFFFFC00
03FFFFFC00
00FFFFFE00
003FFFFF00
000FFFFF00
0003FFFF00
0000FFFF80
38003FFF80
7C000FFF80
7F0007FF80
7F8007FF80
7FE007FF80
3FF807FF80
3FFE0FFF00
3FFFFFFF00
3FFFFFFE00
3FFFFFFE00
3FFFFFFC00
1FFFFFF800
0FFFFFF000
01FFFFC000
001FFC0000
ENDCHAR
STARTCHAR 00A8
ENCODING 168
SWIDTH 510 0
DWIDTH 34 0
BBX 30 11 2 39
BITMAP
0F0003C0
3FC00FF0
7FE01FF8
FFF03FFC
FFF03FFC
FFF03FFC
FFF03FFC
FFF03FFC
7FE01FF8
3FC00FF0
0F0003C0
ENDCHAR
STARTCHAR 00A9
ENCODING 169
SWIDTH 810 0
DWIDTH 54 0
BBX 46 47 4 -1
BITMAP
00003FF00000
0001FFFE0000
0007FFFF8000
001FE01FE000
007E0001F800
00F800007C00
01F000003E00
03E000001F00
078000000780
070000000780
0F00000003C0
1E001FC181E0
1C007FF980E0
3C01FF1F80F0
3803FC078070
7807F8038078
700FF8038038
700FF8018038
F01FF0018038
E01FF000001C
E03FF000001C
E03FF000001C
E03FF000001C
E03FF000001C
E03FF000001C
E03FF000001C
E03FF000001C
E03FF000001C
F01FF000803C
701FF0018038
701FF8018038
780FF8038078
3807FC070070
3803FE1E00F0
1C01FFFC00E0
1E007FF001E0
0F000FC003C0
0F00000003C0
078000000780
03C000001F00
01F000003E00
00F800007C00
007E0001F800
001FE01FE000
0007FFFF8000
0001FFFE0000
00003FF00000
ENDCHAR
STARTCHAR 00AA
ENCODING 170
SWIDTH 360 0
DWIDTH 24 0
BBX 20 26 2 19
BITMAP
03FC00
1FFF00
3E3F00
7E3F80
7F3F80
7F3F80
3F3F80
1E7F80
01FF80
07FF80
1FBF80
3F3F80
3F3F80
7F3F80
7F3F80
7FFF80
7FFFE0
3F9FC0
1E0F80
000000
000000
000000
FFFFF0
FFFFF0
FFFFF0
FFFFF0
ENDCHAR
STARTCHAR 00AB
ENCODING 171
SWIDTH 555 0
DWIDTH 37 0
BBX 35 27 1 4
BITMAP
00078003C0
001FC007E0
003FC01FE0
007F803FE0
01FF807FC0
03FF00FF80
07FE03FF00
0FFC07FF00
1FFC0FFE00
3FF81FFC00
7FF01FF800
7FF03FF800
FFE07FF000
FFE07FF000
FFE07FF000
7FF03FF000
7FF03FF800
3FF81FF800
1FFC0FFC00
0FFC07FE00
07FE03FF00
03FF01FF00
01FF80FF80
007FC03FC0
003FC01FE0
000FC007E0
00038001C0
ENDCHAR
STARTCHAR 00AC
ENCODING 172
SWIDTH 510 0
DWIDTH 34 0
BBX 30 18 2 0
BITMAP
FFFFFFFC
FFFFFFFC
FFFFFFFC
FFFFFFFC
FFFFFFFC
FFFFFFFC
0000FFFC
0000FFFC
0000FFFC
0000FFFC
0000FFFC
0000FFFC
0000FFFC
0000FFFC
0000FFFC
0000FFFC
0000FFFC
0000FFFC
ENDCHAR
STARTCHAR 00AD
ENCODING 173
SWIDTH 0 0
DWIDTH 0 0
BBX 0 0 0 0
BITMAP
ENDCHAR
STARTCHAR 00AE
ENCODING 174
SWIDTH 810 0
DWIDTH 54 0
BBX 46 47 4 -1
BITMAP
00003FF00000
0001FFFE0000
0007FFFF8000
001FE01FE000
007E0001F800
00F800007C00
01F000003E00
03E000001F00
078000000780
070000000780
0F00000003C0
1E3FFFFC01E0
1C0FFFFF00E0
3C07FC7FC0F0
3807FC3FC070
7807FC1FE078
7007FC1FE038
7007FC1FE038
F007FC1FE038
E007FC1FE01C
E007FC1FE01C
E007FC3FC01C
E007FC7F801C
E007FFFF001C
E007FDFE001C
E007FDFE001C
E007FCFF001C
E007FCFF001C
F007FC7F803C
7007FC3F8038
7007FC3FC038
7807FC1FE038
3807FC1FE070
3807FC0FF070
1C0FFC0FF8E0
1E3FFF87FDE0
0F00000001C0
0F00000003C0
078000000780
03C000000F00
01F000003E00
00F800007C00
007E0001F800
001FE00FE000
0007FFFF8000
0001FFFE0000
00003FF00000
ENDCHAR
STARTCHAR 00AF
ENCODING 175
SWIDTH 0 0
DWIDTH 0 0
BBX 0 0 0 0
BITMAP
ENDCHAR
STARTCHAR 00B0
ENCODING 176
SWIDTH 0 0
DWIDTH 0 0
BBX 0 0 0 0
BITMAP
ENDCHAR
STARTCHAR 00B1
ENCODING 177
SWIDTH 510 0
DWIDTH 34 0
BBX 34 43 0 0
BITMAP
0007F00000
0007F00000
0007F00000
0007F00000
0007F00000
0007F00000
0007F00000
0007F00000
0007F00000
0007F00000
0007F00000
0007F00000
0007F00000
0007F00000
FFFFFFFFC0
FFFFFFFFC0
FFFFFFFFC0
FFFFFFFFC0
FFFFFFFFC0
FFFFFFFFC0
FFFFFFFFC0
0007F00000
0007F00000
0007F00000
0007F00000
0007F00000
0007F00000
0007F00000
0007F00000
0007F00000
0007F00000
0007F00000
0007F00000
0007F00000
0000000000
0000000000
FFFFFFFFC0
FFFFFFFFC0
FFFFFFFFC0
FFFFFFFFC0
FFFFFFFFC0
FFFFFFFFC0
FFFFFFFFC0
ENDCHAR
STARTCHAR 00B2
ENCODING 178
SWIDTH 0 0
DWIDTH 0 0
BBX 0 0 0 0
BITMAP
ENDCHAR
STARTCHAR 00B3
ENCODING 179
SWIDTH 0 0
DWIDTH 0 0
BBX 0 0 0 0
BITMAP
ENDCHAR
STARTCHAR 00B4
ENCODING 180
SWIDTH 495 0
DWIDTH 33 0
BBX 14 10 14 40
BITMAP
0FF8
0FFC
1FFC
1FFC
3FF8
3FF0
7FE0
FFC0
FF00
7C00
ENDCHAR
STARTCHAR 00B5
ENCODING 181
SWIDTH 570 0
DWIDTH 38 0
BBX 37 45 2 -14
BITMAP
1FFE0FFF00
1FFE0FFF00
1FFE0FFF00
1FFE0FFF00
1FFE0FFF00
1FFE0FFF00
1FFE0FFF00
1FFE0FFF00
1FFE0FFF00
1FFE0FFF00
1FFE0FFF00
1FFE0FFF00
1FFE0FFF00
1FFE0FFF00
1FFE0FFF00
1FFE0FFF00
1FFE0FFF00
1FFE0FFF00
1FFE0FFF00
1FFE0FFF00
1FFE0FFF00
1FFE0FFF00
1FFE0FFF00
1FFE0FFF00
1FFE0FFF00
3FFE0FFF00
3FFE1FFF00
3FFF3FFF80
3EFFFFFFF8
3EFFF7FFF0
3E7FE3FF00
3F1F81F000
7F00000000
7F80000000
7F80000000
7F80000000
FFC0000000
FFC0000000
FFE0000000
FFE0000000
FFE0000000
FFE0000000
7FC0000000
7F80000000
0E00000000
ENDCHAR
STARTCHAR 00B6
ENCODING 182
SWIDTH 675 0
DWIDTH 45 0
BBX 37 50 3 -4
BITMAP
007FFFFFF8
03FFFFFFF8
0FFFFFFFF8
1FF8FC3F00
3FF0FC3F00
3FF0FC3F00
7FE0FC3F00
7FE0FC3F00
FFE0FC3F00
FFE0FC3F00
FFE0FC3F00
FFE0FC3F00
FFE0FC3F00
FFE0FC3F00
7FE0FC3F00
7FE0FC3F00
7FF0FC3F00
3FF0FC3F00
1FF8FC3F00
0FFFFC3F00
03FFFC3F00
00FFFC3F00
0000FC3F00
0000FC3F00
0000FC3F00
0000FC3F00
0000FC3F00
0000FC3F00
0000FC3F00
0000FC3F00
0000FC3F00
0000FC3F00
0000FC3F00
0000FC3F00
0000FC3F00
0000FC3F00
0000FC3F00
0000FC3F00
0000FC3F00
0000FC3F00
0000FC3F00
0000FC3F00
0000FC3F00
0000FC3F00
0000FC3F00
0000FC3F00
0000FC3F00
001FFC3FE0
001FFC3FE0
001FFC3FE0
ENDCHAR
STARTCHAR 00B7
ENCODING 183
SWIDTH 0 0
DWIDTH 0 0
BBX 0 0 0 0
BITMAP
ENDCHAR
STARTCHAR 00B8
ENCODING 184
SWIDTH 495 0
DWIDTH 33 0
BBX 9 10 12 -10
BITMAP
7F80
7F80
7F80
7F80
7F80
7F80
FF80
FF80
FF80
FC00
ENDCHAR
STARTCHAR 00B9
ENCODING 185
SWIDTH 0 0
DWIDTH 0 0
BBX 0 0 0 0
BITMAP
ENDCHAR
STARTCHAR 00BA
ENCODING 186
SWIDTH 360 0
DWIDTH 24 0
BBX 20 26 2 20
BITMAP
01F800
07FE00
0F9F00
1F0F80
3F0FC0
3F0FC0
7F0FE0
7F0FE0
7F0FE0
7F0FE0
7F0FE0
7F0FE0
7F0FE0
3F0FC0
3F0FC0
1F0F80
0F9F00
07FE00
01F800
000000
000000
000000
FFFFF0
FFFFF0
FFFFF0
FFFFF0
ENDCHAR
STARTCHAR 00BB
ENCODING 187
SWIDTH 555 0
DWIDTH 37 0
BBX 35 27 1 4
BITMAP
70003C0000
FE007E0000
FF007F8000
FFC07FC000
7FE03FF000
3FF01FF800
1FF81FFC00
1FFC0FFE00
0FFE07FF00
07FF03FF80
03FF81FF80
03FF81FFC0
01FFC0FFE0
01FFC0FFE0
01FFC0FFE0
03FF81FFC0
07FF01FFC0
07FE03FF80
0FFE07FF00
1FFC0FFE00
3FF80FFC00
3FF01FF800
7FE03FF000
FF803FE000
FF007FC000
FC007F0000
70003C0000
ENDCHAR
STARTCHAR 00BC
ENCODING 188
SWIDTH 0 0
DWIDTH 0 0
BBX 0 0 0 0
BITMAP
ENDCHAR
STARTCHAR 00BD
ENCODING 189
SWIDTH 0 0
DWIDTH 0 0
BBX 0 0 0 0
BITMAP
ENDCHAR
STARTCHAR 00BE
ENCODING 190
SWIDTH 0 0
DWIDTH 0 0
BBX 0 0 0 0
BITMAP
ENDCHAR
STARTCHAR 00BF
ENCODING 191
SWIDTH 315 0
DWIDTH 21 0
BBX 15 47 3 -12
BITMAP
07E0
1FF8
7FFC
7FFE
FFFE
FFFE
FFFE
FFFE
FFFE
FFFE
7FFE
7FFC
1FF8
07E0
0000
0000
0000
0380
07C0
07E0
0FE0
0FF0
1FF0
1FF8
1FF8
3FF8
3FF8
3FFC
3FFC
7FFC
7FFC
7FFE
7FFE
7FFE
FFFE
FFFE
FFFE
FFFE
FFFE
FFFE
FFFE
FFFE
FFFE
7FFE
7FFC
3FF8
0FE0
ENDCHAR
STARTCHAR 00C0
ENCODING 192
SWIDTH 795 0
DWIDTH 53 0
BBX 53 61 0 0
BITMAP
0000FF80000000
0001FFC0000000
0001FFC0000000
0001FFE0000000
0000FFE0000000
00007FF0000000
00003FF8000000
00001FFC000000
000007FC000000
000000F8000000
00000000000000
00000000000000
00000000000000
00000000000000
00000000000000
00000000000000
000007FFC00000
00000FFFC00000
00001FFFE00000
00001FFFE00000
00001FFFF00000
00003FFFF00000
00003FFFF00000
00007FFFF80000
00007FFFF80000
0000FFFFF80000
0000FFFFFC0000
0000FFFFFC0000
0001FFFFFE0000
0001FFFFFE0000
0003FFFFFE0000
0003FCFFFF0000
0003FC7FFF0000
0007F87FFF8000
0007F87FFF8000
000FF83FFF8000
000FF03FFFC000
001FF03FFFC000
001FF01FFFE000
001FE01FFFE000
003FC01FFFE000
003FC01FFFF000
007FFFFFFFF000
007FFFFFFFF800
00FFFFFFFFF800
00FFFFFFFFF800
00FFFFFFFFFC00
01FFFFFFFFFC00
01FFFFFFFFFC00
03FFFFFFFFFE00
03FE0007FFFE00
07FC0003FFFF00
07FC0003FFFF80
0FFC0003FFFF80
3FFF0007FFFFE0
7FFFC01FFFFFF0
FFFFE03FFFFFF8
FFFFE03FFFFFF8
FFFFE03FFFFFF8
FFFFE03FFFFFF8
7FFFC01FFFFFF0
ENDCHAR
STARTCHAR 00C1
ENCODING 193
SWIDTH 795 0
DWIDTH 53 0
BBX 53 61 0 0
BITMAP
0000000FF80000
0000001FFC0000
0000001FFC0000
0000003FFC0000
0000003FF80000
0000007FF00000
000000FFE00000
000001FFC00000
000001FF000000
000000F8000000
00000000000000
00000000000000
00000000000000
00000000000000
00000000000000
00000000000000
000007FFC00000
00000FFFC00000
00001FFFE00000
00001FFFE00000
00003FFFF00000
00003FFFF00000
00007FFFF00000
00007FFFF80000
00007FFFF80000
0000FFFFFC0000
0000FFFFFC0000
0001FFFFFC0000
0001FFFFFE0000
0001FFFFFE0000
0003FFFFFF0000
0003FCFFFF0000
0007F8FFFF0000
0007F87FFF8000
000FF87FFF8000
000FF07FFFC000
000FF03FFFC000
001FF03FFFC000
001FE01FFFE000
003FE01FFFE000
003FC01FFFF000
003FC01FFFF000
007FFFFFFFF000
007FFFFFFFF800
00FFFFFFFFF800
00FFFFFFFFFC00
00FFFFFFFFFC00
01FFFFFFFFFC00
01FFFFFFFFFE00
03FFFFFFFFFE00
03FE0007FFFF00
07FC0003FFFF00
07FC0003FFFF80
0FFC0003FFFFC0
3FFF0007FFFFE0
7FFFC01FFFFFF0
FFFFE03FFFFFF8
FFFFE03FFFFFF8
FFFFE03FFFFFF8
FFFFE03FFFFFF8
7FFFC01FFFFFF0
ENDCHAR
STARTCHAR 00C2
ENCODING 194
SWIDTH 795 0
DWIDTH 53 0
BBX 53 62 0 0
BITMAP
00000070000000
000000FC000000
000003FF000000
000007FF800000
00000FFFC00000
00001FFFE00000
00003FFFF00000
00007FFFF80000
0000FFFFFC0000
0000FF87FC0000
0001FE01FE0000
0001F8007E0000
0001E0001C0000
00000000000000
00000000000000
00000000000000
00000000000000
000007FFC00000
00000FFFE00000
00001FFFE00000
00001FFFF00000
00001FFFF00000
00003FFFF00000
00003FFFF80000
00007FFFF80000
00007FFFFC0000
0000FFFFFC0000
0000FFFFFC0000
0000FFFFFE0000
0001FFFFFE0000
0001FFFFFE0000
0003FFFFFF0000
0003FCFFFF0000
0003FC7FFF8000
0007F87FFF8000
0007F87FFF8000
000FF83FFFC000
000FF03FFFC000
001FF03FFFE000
001FF01FFFE000
001FE01FFFE000
003FC01FFFF000
003FC01FFFF000
007FFFFFFFF800
007FFFFFFFF800
00FFFFFFFFF800
00FFFFFFFFFC00
00FFFFFFFFFC00
01FFFFFFFFFC00
01FFFFFFFFFE00
03FFFFFFFFFE00
03FE0007FFFF00
07FC0003FFFF00
07FC0003FFFF80
0FFC0003FFFFC0
3FFF0007FFFFE0
7FFFC01FFFFFF0
FFFFE03FFFFFF8
FFFFE03FFFFFF8
FFFFE03FFFFFF8
FFFFE03FFFFFF8
7FFFC01FFFFFF0
ENDCHAR
STARTCHAR 00C3
ENCODING 195
SWIDTH 795 0
DWIDTH 53 0
BBX 53 61 0 0
BITMAP
00000F800E0000
00003FFC1E0000
00007FFFFE0000
00007FFFFE0000
0000FFFFFC0000
0000FFFFFC0000
0001FFFFF80000
0001FFFFF00000
0001E07FC00000
0001C000000000
00000000000000
00000000000000
00000000000000
00000000000000
00000000000000
00000000000000
000007FFC00000
00000FFFE00000
00001FFFE00000
00001FFFE00000
00001FFFF00000
00003FFFF00000
00003FFFF80000
00007FFFF80000
00007FFFF80000
0000FFFFFC0000
0000FFFFFC0000
0000FFFFFE0000
0001FFFFFE0000
0001FFFFFE0000
0003FFFFFF0000
0003FCFFFF0000
0003FC7FFF8000
0007F87FFF8000
0007F87FFF8000
000FF83FFFC000
000FF03FFFC000
001FF03FFFE000
001FF01FFFE000
001FE01FFFE000
003FC01FFFF000
003FC01FFFF000
007FFFFFFFF800
007FFFFFFFF800
00FFFFFFFFF800
00FFFFFFFFFC00
00FFFFFFFFFC00
01FFFFFFFFFC00
01FFFFFFFFFE00
03FFFFFFFFFE00
03FE0007FFFF00
07FC0003FFFF00
07FC0003FFFF80
0FFC0003FFFFC0
3FFF0007FFFFE0
7FFFC01FFFFFF0
FFFFE03FFFFFF8
FFFFE03FFFFFF8
FFFFE03FFFFFF8
FFFFE03FFFFFF8
7FFFC01FFFFFF0
ENDCHAR
STARTCHAR 00C4
ENCODING 196
SWIDTH 795 0
DWIDTH 53 0
BBX 53 62 0 0
BITMAP
0000F000780000
0003FC01FE0000
0007FE03FF0000
000FFF07FF8000
000FFF07FF8000
000FFF07FF8000
000FFF07FF8000
000FFF07FF8000
0007FE03FF0000
0003FC01FE0000
0000F000780000
00000000000000
00000000000000
00000000000000
00000000000000
00000000000000
00000000000000
000007FFC00000
00000FFFC00000
00001FFFE00000
00001FFFE00000
00001FFFE00000
00003FFFF00000
00003FFFF00000
00007FFFF80000
00007FFFF80000
0000FFFFF80000
0000FFFFFC0000
0000FFFFFC0000
0001FFFFFE0000
0001FFFFFE0000
0003FFFFFE0000
0003FCFFFF0000
0003FC7FFF0000
0007F87FFF8000
0007F87FFF8000
000FF83FFF8000
000FF03FFFC000
001FF03FFFC000
001FF01FFFE000
001FE01FFFE000
003FC01FFFE000
003FC01FFFF000
007FFFFFFFF000
007FFFFFFFF000
00FFFFFFFFF800
00FFFFFFFFF800
00FFFFFFFFFC00
01FFFFFFFFFC00
01FFFFFFFFFC00
03FFFFFFFFFE00
03FE0007FFFE00
07FC0003FFFF00
07FC0003FFFF00
0FFC0003FFFF80
3FFF0007FFFFE0
7FFFC01FFFFFF0
FFFFE03FFFFFF8
FFFFE03FFFFFF8
FFFFE03FFFFFF8
FFFFE03FFFFFF8
7FFFC01FFFFFF0
ENDCHAR
STARTCHAR 00C5
ENCODING 197
SWIDTH 795 0
DWIDTH 53 0
BBX 53 61 0 0
BITMAP
000000FE000000
000003FF800000
000007FFC00000
00000F83E00000
00001F83F00000
00001F01F00000
00001F01F00000
00001F01F00000
00001F03F00000
00000F83E00000
000007FFC00000
000003FF800000
000000FE000000
00000000000000
00000000000000
00000000000000
000007FFC00000
00000FFFE00000
00001FFFE00000
00001FFFF00000
00003FFFF00000
00003FFFF80000
00007FFFF80000
00007FFFF80000
00007FFFFC0000
0000FFFFFC0000
0000FFFFFC0000
0001FFFFFE0000
0001FFFFFE0000
0001FFFFFF0000
0003FFFFFF0000
0003FDFFFF0000
0007F8FFFF8000
0007F8FFFF8000
000FF87FFF8000
000FF07FFFC000
000FF03FFFC000
001FF03FFFE000
001FE03FFFE000
003FE01FFFE000
003FC01FFFF000
003FC01FFFF000
007FFFFFFFF000
007FFFFFFFF800
00FFFFFFFFF800
00FFFFFFFFFC00
00FFFFFFFFFC00
01FFFFFFFFFC00
01FFFFFFFFFE00
03FFFFFFFFFE00
03FE0003FFFF00
07FC0001FFFF00
07FC0001FFFF80
0FFC0001FFFFC0
3FFF0007FFFFE0
7FFFC01FFFFFF0
FFFFE03FFFFFF8
FFFFE03FFFFFF8
FFFFE03FFFFFF8
FFFFE03FFFFFF8
7FFFC01FFFFFF0
ENDCHAR
STARTCHAR 00C6
ENCODING 198
SWIDTH 990 0
DWIDTH 66 0
BBX 65 45 0 0
BITMAP
00000FFFFFFFFFF800
00001FFFFFFFFFFC00
00001FFFFFFFFFFC00
00003FFFFFFFFFFC00
00003FFFFFFFFFFC00
00007FFFFFFFFFFC00
00007FFFFFFFFFFC00
0000FFFFFF8007FC00
0000FFFFFF0001FC00
0000FFFFFF0001FC00
0001FFFFFF0000FC00
0001FEFFFF00007C00
0003FE7FFF00707C00
0003FC7FFF80F83C00
0003FC7FFF80F81000
0007FC7FFF80F80000
0007F83FFF81F80000
000FF83FFFC3F80000
000FF83FFFFFF80000
000FF03FFFFFF80000
001FF03FFFFFF80000
001FF01FFFFFF80000
003FE01FFFFFF80000
003FE01FFFFFF80000
003FE01FFFFFF80000
007FE01FFFE1F80000
007FFFFFFFE0F80000
00FFFFFFFFE0F80000
00FFFFFFFFE0F80700
00FFFFFFFFF0780F80
01FFFFFFFFF0780F80
01FFFFFFFFF0701F80
01FFFFFFFFF8001F80
03FFFFFFFFF8003F80
03FE000FFFF8003F80
07FC000FFFFC007F80
07FC000FFFFE01FF80
0FFC000FFFFFFFFF80
1FFE001FFFFFFFFF80
7FFF803FFFFFFFFF80
FFFFE07FFFFFFFFF80
FFFFE0FFFFFFFFFF80
FFFFE0FFFFFFFFFF80
FFFFE0FFFFFFFFFF00
7FFFC07FFFFFFFFF00
ENDCHAR
STARTCHAR 00C7
ENCODING 199
SWIDTH 660 0
DWIDTH 44 0
BBX 41 56 2 -9
BITMAP
0000FFC00000
0007FFFC1C00
001FFFFFFE00
007FFFFFFF00
00FFFFFFFF00
01FFFFFFFF00
03FFFFFFFF00
07FFFFFFFF00
0FFFFE1FFF00
0FFFF807FF00
1FFFF803FF80
1FFFF001FF80
3FFFF000FF80
3FFFE000FF80
3FFFE0007F80
7FFFE0003F80
7FFFC0001F80
7FFFC0001F80
7FFFC0000700
FFFFC0000000
FFFFC0000000
FFFFC0000000
FFFFC0000000
FFFFC0000000
FFFFC0000000
FFFFC0000000
FFFFC0000000
FFFFC0000000
FFFFC0000000
FFFFC0000000
FFFFC0000000
7FFFE0000000
7FFFE0000000
7FFFE0000E00
3FFFF0001F00
3FFFF8003F00
3FFFF8007F00
1FFFFC01FF00
0FFFFF03FF00
0FFFFFFFFF00
07FFFFFFFF00
03FFFFFFFF00
01FFFFFFFE00
00FFFFFFFE00
007FFFFFFE00
001FFFFFFC00
0007FFFFE000
00007FFE0000
00007F800000
00007F800000
00007F800000
00007F800000
00007F800000
0000FF800000
0000FF800000
0000FE000000
ENDCHAR
STARTCHAR 00C8
ENCODING 200
SWIDTH 675 0
DWIDTH 45 0
BBX 43 62 1 0
BITMAP
0000F0000000
000FFC000000
000FFE000000
000FFE000000
0007FF000000
0007FF000000
0003FF800000
0001FFC00000
0000FFE00000
00003FE00000
000007C00000
000000000000
000000000000
000000000000
000000000000
000000000000
000000000000
7FFFFFFFFF80
FFFFFFFFFF80
FFFFFFFFFFC0
FFFFFFFFFFC0
FFFFFFFFFFC0
7FFFFFFFFFC0
3FFFFFFFFFC0
1FFFFC01FFC0
0FFFF8007FC0
0FFFF0003FC0
0FFFF0001FC0
0FFFF0001FC0
0FFFF00C0FC0
0FFFF01E0F80
0FFFF03E0780
0FFFF03E0000
0FFFF8FE0000
0FFFFFFE0000
0FFFFFFE0000
0FFFFFFE0000
0FFFFFFE0000
0FFFFFFE0000
0FFFFFFE0000
0FFFFFFE0000
0FFFFFFE0000
0FFFF8FE0000
0FFFF07E0000
0FFFF03E0000
0FFFF03E00C0
0FFFF03E01E0
0FFFF01E03E0
0FFFF00C07E0
0FFFF00007E0
0FFFF0000FE0
0FFFF0001FE0
0FFFF8003FE0
0FFFFC01FFE0
1FFFFFFFFFE0
3FFFFFFFFFE0
7FFFFFFFFFE0
FFFFFFFFFFE0
FFFFFFFFFFE0
FFFFFFFFFFE0
FFFFFFFFFFE0
7FFFFFFFFFC0
ENDCHAR
STARTCHAR 00C9
ENCODING 201
SWIDTH 675 0
DWIDTH 45 0
BBX 43 61 1 1
BITMAP
000007FC0000
000007FE0000
00000FFE0000
00000FFE0000
00001FFC0000
00003FFC0000
00003FF80000
00007FF00000
00007FC00000
00003E000000
000000000000
000000000000
000000000000
000000000000
000000000000
000000000000
7FFFFFFFFF80
FFFFFFFFFF80
FFFFFFFFFFC0
FFFFFFFFFFC0
FFFFFFFFFFC0
7FFFFFFFFFC0
3FFFFFFFFFC0
1FFFFC01FFC0
0FFFF8007FC0
0FFFF0003FC0
0FFFF0001FC0
0FFFF0001FC0
0FFFF01C0FC0
0FFFF01E0F80
0FFFF03E0780
0FFFF03E0000
0FFFF8FE0000
0FFFFFFE0000
0FFFFFFE0000
0FFFFFFE0000
0FFFFFFE0000
0FFFFFFE0000
0FFFFFFE0000
0FFFFFFE0000
0FFFFFFE0000
0FFFF8FE0000
0FFFF07E0000
0FFFF03E0000
0FFFF03E00C0
0FFFF03E01E0
0FFFF01E03E0
0FFFF01C07E0
0FFFF00007E0
0FFFF0000FE0
0FFFF0001FE0
0FFFF8003FE0
0FFFFC01FFE0
1FFFFFFFFFE0
3FFFFFFFFFE0
7FFFFFFFFFE0
FFFFFFFFFFE0
FFFFFFFFFFE0
FFFFFFFFFFE0
FFFFFFFFFFE0
7FFFFFFFFFC0
ENDCHAR
STARTCHAR 00CA
ENCODING 202
SWIDTH 675 0
DWIDTH 45 0
BBX 43 62 1 0
BITMAP
00000E000000
00001F800000
00007FC00000
0000FFF00000
0001FFF80000
0003FFFC0000
0007FFFE0000
000FFFFF0000
001FFFFF0000
001FF0FF8000
003FC03FC000
003F000FC000
003C00038000
000000000000
000000000000
000000000000
000000000000
7FFFFFFFFF80
FFFFFFFFFF80
FFFFFFFFFFC0
FFFFFFFFFFC0
FFFFFFFFFFC0
7FFFFFFFFFC0
3FFFFFFFFFC0
1FFFFC00FFC0
0FFFF8007FC0
0FFFF0001FC0
0FFFF0001FC0
0FFFF0000FC0
0FFFF00C0FC0
0FFFF01E0780
0FFFF03E0780
0FFFF03E0000
0FFFF8FE0000
0FFFFFFE0000
0FFFFFFE0000
0FFFFFFE0000
0FFFFFFE0000
0FFFFFFE0000
0FFFFFFE0000
0FFFFFFE0000
0FFFFFFE0000
0FFFF8FE0000
0FFFF07E0000
0FFFF03E0000
0FFFF03E00C0
0FFFF03E01E0
0FFFF01E03E0
0FFFF01C03E0
0FFFF00007E0
0FFFF00007E0
0FFFF0000FE0
0FFFF8003FE0
0FFFFC01FFE0
1FFFFFFFFFE0
3FFFFFFFFFE0
7FFFFFFFFFE0
FFFFFFFFFFE0
FFFFFFFFFFE0
FFFFFFFFFFE0
FFFFFFFFFFE0
7FFFFFFFFFC0
ENDCHAR
STARTCHAR 00CB
ENCODING 203
SWIDTH 675 0
DWIDTH 45 0
BBX 43 62 1 0
BITMAP
001E000F0000
007F803FC000
00FFC07FE000
01FFE0FFF000
01FFE0FFF000
01FFE0FFF000
01FFE0FFF000
01FFE0FFF000
00FFC07FE000
007F803FC000
001E000F0000
000000000000
000000000000
000000000000
000000000000
000000000000
000000000000
7FFFFFFFFF80
FFFFFFFFFF80
FFFFFFFFFFC0
FFFFFFFFFFC0
FFFFFFFFFFC0
7FFFFFFFFFC0
3FFFFFFFFFC0
1FFFFC01FFC0
0FFFF8007FC0
0FFFF0003FC0
0FFFF0001FC0
0FFFF0001FC0
0FFFF01C0FC0
0FFFF01E0F80
0FFFF03E0780
0FFFF03E0000
0FFFF8FE0000
0FFFFFFE0000
0FFFFFFE0000
0FFFFFFE0000
0FFFFFFE0000
0FFFFFFE0000
0FFFFFFE0000
0FFFFFFE0000
0FFFFFFE0000
0FFFF8FE0000
0FFFF07E0000
0FFFF03E0000
0FFFF03E00C0
0FFFF03E01E0
0FFFF01E03E0
0FFFF01C07E0
0FFFF00007E0
0FFFF0000FE0
0FFFF0001FE0
0FFFF8003FE0
0FFFFC01FFE0
1FFFFFFFFFE0
3FFFFFFFFFE0
7FFFFFFFFFE0
FFFFFFFFFFE0
FFFFFFFFFFE0
FFFFFFFFFFE0
FFFFFFFFFFE0
7FFFFFFFFFC0
ENDCHAR
STARTCHAR 00CC
ENCODING 204
SWIDTH 390 0
DWIDTH 26 0
BBX 24 61 1 1
BITMAP
3FE000
7FE000
7FF000
7FF000
3FF800
1FF800
0FFC00
07FE00
01FE00
007C00
000000
000000
000000
000000
000000
000000
7FFFFE
FFFFFF
FFFFFF
FFFFFF
FFFFFF
7FFFFE
3FFFF8
1FFFF0
0FFFF0
0FFFF0
0FFFF0
0FFFF0
0FFFF0
0FFFF0
0FFFF0
0FFFF0
0FFFF0
0FFFF0
0FFFF0
0FFFF0
0FFFF0
0FFFF0
0FFFF0
0FFFF0
0FFFF0
0FFFF0
0FFFF0
0FFFF0
0FFFF0
0FFFF0
0FFFF0
0FFFF0
0FFFF0
0FFFF0
0FFFF0
0FFFF0
0FFFF0
1FFFF8
3FFFFC
7FFFFE
FFFFFF
FFFFFF
FFFFFF
FFFFFF
7FFFFE
ENDCHAR
STARTCHAR 00CD
ENCODING 205
SWIDTH 390 0
DWIDTH 26 0
BBX 24 61 1 1
BITMAP
0007FC
0007FE
000FFE
000FFE
001FFC
001FF8
003FF0
007FE0
007F80
003E00
000000
000000
000000
000000
000000
000000
7FFFFE
FFFFFF
FFFFFF
FFFFFF
FFFFFF
7FFFFE
3FFFFC
1FFFF0
0FFFF0
0FFFF0
0FFFF0
0FFFF0
0FFFF0
0FFFF0
0FFFF0
0FFFF0
0FFFF0
0FFFF0
0FFFF0
0FFFF0
0FFFF0
0FFFF0
0FFFF0
0FFFF0
0FFFF0
0FFFF0
0FFFF0
0FFFF0
0FFFF0
0FFFF0
0FFFF0
0FFFF0
0FFFF0
0FFFF0
0FFFF0
0FFFF0
0FFFF0
1FFFF8
3FFFFC
7FFFFE
FFFFFF
FFFFFF
FFFFFF
FFFFFF
7FFFFE
ENDCHAR
STARTCHAR 00CE
ENCODING 206
SWIDTH 390 0
DWIDTH 26 0
BBX 24 62 1 0
BITMAP
003800
007E00
01FF80
03FFC0
07FFE0
0FFFF0
1FFFF8
3FFFFC
7FFFFC
7FC3FE
FF00FF
FC003F
F0000E
000000
000000
000000
000000
7FFFFE
FFFFFF
FFFFFF
FFFFFF
FFFFFF
7FFFFE
3FFFF8
1FFFF0
0FFFF0
0FFFF0
0FFFF0
0FFFF0
0FFFF0
0FFFF0
0FFFF0
0FFFF0
0FFFF0
0FFFF0
0FFFF0
0FFFF0
0FFFF0
0FFFF0
0FFFF0
0FFFF0
0FFFF0
0FFFF0
0FFFF0
0FFFF0
0FFFF0
0FFFF0
0FFFF0
0FFFF0
0FFFF0
0FFFF0
0FFFF0
0FFFF0
0FFFF0
1FFFF8
3FFFFC
7FFFFE
FFFFFF
FFFFFF
FFFFFF
FFFFFF
7FFFFE
ENDCHAR
STARTCHAR 00CF
ENCODING 207
SWIDTH 390 0
DWIDTH 26 0
BBX 30 62 -2 0
BITMAP
0F0003C0
3FC00FF0
7FE01FF8
FFF03FFC
FFF03FFC
FFF03FFC
FFF03FFC
FFF03FFC
7FE01FF8
3FC00FF0
0F0003C0
00000000
00000000
00000000
00000000
00000000
00000000
0FFFFFC0
1FFFFFE0
1FFFFFE0
1FFFFFE0
1FFFFFE0
0FFFFFC0
07FFFF00
03FFFE00
01FFFE00
01FFFE00
01FFFE00
01FFFE00
01FFFE00
01FFFE00
01FFFE00
01FFFE00
01FFFE00
01FFFE00
01FFFE00
01FFFE00
01FFFE00
01FFFE00
01FFFE00
01FFFE00
01FFFE00
01FFFE00
01FFFE00
01FFFE00
01FFFE00
01FFFE00
01FFFE00
01FFFE00
01FFFE00
01FFFE00
01FFFE00
01FFFE00
01FFFE00
03FFFF00
07FFFF80
0FFFFFC0
1FFFFFE0
1FFFFFE0
1FFFFFE0
1FFFFFE0
0FFFFFC0
ENDCHAR
STARTCHAR 00D0
ENCODING 208
SWIDTH 0 0
DWIDTH 0 0
BBX 0 0 0 0
BITMAP
ENDCHAR
STARTCHAR 00D1
ENCODING 209
SWIDTH 765 0
DWIDTH 51 0
BBX 49 63 1 -2
BITMAP
00003E00380000
0000FFF0780000
0001FFFFF80000
0001FFFFF80000
0003FFFFF00000
0003FFFFF00000
0007FFFFE00000
0007FFFFC00000
0007001F000000
00070000000000
00000000000000
00000000000000
00000000000000
00000000000000
00000000000000
00000000000000
7FF800001FFF00
FFFC00003FFF80
FFFE00003FFF80
FFFF00003FFF80
FFFFC0003FFF80
7FFFE0001FFF00
1FFFF0000FFC00
1FFFF80007F800
0FFFFC0007F800
0FFFFE0007F800
0FFFFF0007F800
0FFFFF8007F800
0FFFFFC007F800
0FFFFFF007F800
0FFFFFF807F800
0FFFFFFC07F800
0FFFFFFE07F800
0FFFFFFF07F800
0FFFFFFF87F800
0FFFFFFFC7F800
0FFFFFFFE7F800
0FFFFFFFFFF800
0FFFFFFFFFF800
0FF9FFFFFFF800
0FF8FFFFFFF800
0FF87FFFFFF800
0FF83FFFFFF800
0FF81FFFFFF800
0FF80FFFFFF800
0FF807FFFFF800
0FF803FFFFF800
0FF801FFFFF800
0FF8007FFFF800
0FF8003FFFF800
0FF8001FFFF800
0FF8000FFFF800
0FF80007FFF800
1FFC0003FFF800
3FFE0001FFF800
7FFF0000FFF800
FFFF80007FF800
FFFF80003FF800
FFFF80001FF800
FFFF80000FF800
7FFF000003F800
0000000001F800
0000000000F000
ENDCHAR
STARTCHAR 00D2
ENCODING 210
SWIDTH 810 0
DWIDTH 54 0
BBX 50 62 2 0
BITMAP
0003FF80000000
0003FF80000000
0003FFC0000000
0001FFC0000000
0001FFE0000000
0000FFE0000000
00007FF0000000
00003FF8000000
00000FF8000000
000001F0000000
00000000000000
00000000000000
00000000000000
00000000000000
00000FFE000000
0000FFFFE00000
0007FFFFF80000
001FFFFFFE0000
007FFFFFFF8000
00FFFFFFFFC000
01FFFFFFFFE000
03FFFFFFFFF000
07FFFC1FFFF800
0FFFF007FFFC00
1FFFF003FFFC00
1FFFE003FFFE00
3FFFE001FFFE00
3FFFC001FFFF00
7FFFC001FFFF00
7FFFC001FFFF80
7FFF8000FFFF80
FFFF8000FFFF80
FFFF8000FFFF80
FFFF8000FFFFC0
FFFF8000FFFFC0
FFFF8000FFFFC0
FFFF8000FFFFC0
FFFF8000FFFFC0
FFFF8000FFFFC0
FFFF8000FFFFC0
FFFF8000FFFFC0
FFFF8000FFFFC0
FFFF8000FFFFC0
7FFF8000FFFFC0
7FFF8000FFFF80
7FFF8000FFFF80
7FFFC001FFFF80
3FFFC001FFFF80
3FFFC001FFFF00
1FFFE001FFFF00
1FFFE003FFFE00
0FFFF003FFFE00
0FFFF007FFFC00
07FFFC1FFFF800
03FFFFFFFFF000
01FFFFFFFFE000
00FFFFFFFFC000
007FFFFFFF8000
001FFFFFFE0000
000FFFFFF80000
0001FFFFC00000
00001FFC000000
ENDCHAR
STARTCHAR 00D3
ENCODING 211
SWIDTH 810 0
DWIDTH 54 0
BBX 50 62 2 0
BITMAP
0000007FE00000
0000007FE00000
000000FFE00000
000000FFC00000
000001FFC00000
000003FF800000
000003FF000000
000007FE000000
000007F8000000
000003E0000000
00000000000000
00000000000000
00000000000000
00000000000000
00000FFE000000
0000FFFFE00000
0007FFFFF80000
001FFFFFFE0000
007FFFFFFF8000
00FFFFFFFFC000
01FFFFFFFFE000
03FFFFFFFFF000
07FFFC1FFFF800
0FFFF007FFFC00
1FFFF003FFFC00
1FFFE003FFFE00
3FFFE001FFFE00
3FFFC001FFFF00
7FFFC001FFFF00
7FFFC001FFFF80
7FFF8000FFFF80
FFFF8000FFFF80
FFFF8000FFFF80
FFFF8000FFFFC0
FFFF8000FFFFC0
FFFF8000FFFFC0
FFFF8000FFFFC0
FFFF8000FFFFC0
FFFF8000FFFFC0
FFFF8000FFFFC0
FFFF8000FFFFC0
FFFF8000FFFFC0
FFFF8000FFFFC0
7FFF8000FFFFC0
7FFF8000FFFF80
7FFF8000FFFF80
7FFFC001FFFF80
3FFFC001FFFF80
3FFFC001FFFF00
1FFFE001FFFF00
1FFFE003FFFE00
0FFFF003FFFE00
0FFFF007FFFC00
07FFFC1FFFF800
03FFFFFFFFF000
01FFFFFFFFE000
00FFFFFFFFC000
007FFFFFFF8000
001FFFFFFE0000
000FFFFFF80000
0001FFFFC00000
00001FFC000000
ENDCHAR
STARTCHAR 00D4
ENCODING 212
SWIDTH 810 0
DWIDTH 54 0
BBX 50 63 2 -1
BITMAP
000001C0000000
000003F0000000
00000FFC000000
00001FFE000000
00003FFF000000
00007FFF800000
0000FFFFC00000
0001FFFFE00000
0003FFFFF00000
0003FE1FF00000
0007F007F80000
0007C000F80000
00000000000000
00000000000000
00000000000000
00000FFE000000
0000FFFFE00000
0007FFFFF80000
001FFFFFFE0000
007FFFFFFF8000
00FFFFFFFFC000
01FFFFFFFFE000
03FFFFFFFFF000
07FFFC1FFFF800
0FFFF007FFFC00
1FFFF003FFFC00
1FFFE003FFFE00
3FFFE001FFFE00
3FFFC001FFFF00
7FFFC001FFFF00
7FFFC001FFFF80
7FFF8000FFFF80
FFFF8000FFFF80
FFFF8000FFFF80
FFFF8000FFFFC0
FFFF8000FFFFC0
FFFF8000FFFFC0
FFFF8000FFFFC0
FFFF8000FFFFC0
FFFF8000FFFFC0
FFFF8000FFFFC0
FFFF8000FFFFC0
FFFF8000FFFFC0
FFFF8000FFFFC0
7FFF8000FFFFC0
7FFF8000FFFF80
7FFF8000FFFF80
7FFFC001FFFF80
3FFFC001FFFF80
3FFFC001FFFF00
1FFFE001FFFF00
1FFFE003FFFE00
0FFFF003FFFE00
0FFFF007FFFC00
07FFFC1FFFF800
03FFFFFFFFF000
01FFFFFFFFE000
00FFFFFFFFC000
007FFFFFFF8000
001FFFFFFE0000
000FFFFFF80000
0001FFFFC00000
00001FFC000000
ENDCHAR
STARTCHAR 00D5
ENCODING 213
SWIDTH 810 0
DWIDTH 54 0
BBX 50 63 2 -1
BITMAP
00003C00300000
0000FF80780000
0001FFF8F80000
0001FFFFF80000
0003FFFFF80000
0003FFFFF00000
0007FFFFF00000
0007FFFFE00000
000781FFC00000
0007003F000000
00060000000000
00000000000000
00000000000000
00000000000000
00000000000000
00000FFE000000
0000FFFFE00000
0007FFFFF80000
001FFFFFFE0000
007FFFFFFF8000
00FFFFFFFFC000
01FFFFFFFFE000
03FFFFFFFFF000
07FFFC1FFFF800
0FFFF007FFFC00
1FFFF007FFFC00
1FFFE003FFFE00
3FFFE003FFFE00
3FFFC001FFFF00
7FFFC001FFFF00
7FFFC001FFFF80
7FFF8000FFFF80
FFFF8000FFFF80
FFFF8000FFFF80
FFFF8000FFFFC0
FFFF8000FFFFC0
FFFF8000FFFFC0
FFFF8000FFFFC0
FFFF8000FFFFC0
FFFF8000FFFFC0
FFFF8000FFFFC0
FFFF8000FFFFC0
FFFF8000FFFFC0
FFFF8000FFFFC0
7FFF8000FFFFC0
7FFF8000FFFF80
7FFF8000FFFF80
7FFFC001FFFF80
3FFFC001FFFF80
3FFFC001FFFF00
1FFFE003FFFF00
1FFFE003FFFE00
0FFFF003FFFE00
0FFFF007FFFC00
07FFFC1FFFF800
03FFFFFFFFF000
01FFFFFFFFE000
00FFFFFFFFC000
007FFFFFFF8000
001FFFFFFE0000
000FFFFFF80000
0001FFFFC00000
00001FFC000000
ENDCHAR
STARTCHAR 00D6
ENCODING 214
SWIDTH 810 0
DWIDTH 54 0
BBX 50 63 2 -1
BITMAP
0003C001E00000
000FF007F80000
001FF80FFC0000
003FFC1FFE0000
003FFC1FFE0000
003FFC1FFE0000
003FFC1FFE0000
003FFC1FFE0000
001FF80FFC0000
000FF007F80000
0003C001E00000
00000000000000
00000000000000
00000000000000
00000000000000
00000FFE000000
0000FFFFE00000
0007FFFFF80000
001FFFFFFE0000
007FFFFFFF8000
00FFFFFFFFC000
01FFFFFFFFE000
03FFFFFFFFF000
07FFFC1FFFF800
0FFFF007FFFC00
1FFFF007FFFC00
1FFFE003FFFE00
3FFFE003FFFE00
3FFFC001FFFF00
7FFFC001FFFF00
7FFFC001FFFF80
7FFF8000FFFF80
FFFF8000FFFF80
FFFF8000FFFF80
FFFF8000FFFFC0
FFFF8000FFFFC0
FFFF8000FFFFC0
FFFF8000FFFFC0
FFFF8000FFFFC0
FFFF8000FFFFC0
FFFF8000FFFFC0
FFFF8000FFFFC0
FFFF8000FFFFC0
FFFF8000FFFFC0
7FFF8000FFFFC0
7FFF8000FFFF80
7FFF8000FFFF80
7FFFC001FFFF80
3FFFC001FFFF80
3FFFC001FFFF00
1FFFE003FFFF00
1FFFE003FFFE00
0FFFF007FFFE00
0FFFF007FFFC00
07FFFC1FFFF800
03FFFFFFFFF000
01FFFFFFFFE000
00FFFFFFFFC000
007FFFFFFF8000
001FFFFFFE0000
000FFFFFF80000
0001FFFFC00000
00001FFC000000
ENDCHAR
STARTCHAR 00D7
ENCODING 215
SWIDTH 0 0
DWIDTH 0 0
BBX 0 0 0 0
BITMAP
ENDCHAR
STARTCHAR 00D8
ENCODING 216
SWIDTH 810 0
DWIDTH 54 0
BBX 50 57 2 -6
BITMAP
0000000003C000
000000000FC000
000000001FC000
000000003F8000
00001FFE3F8000
0001FFFFFF0000
0007FFFFFE0000
001FFFFFFE0000
007FFFFFFF8000
00FFFFFFFFC000
01FFFFFFFFE000
03FFFFFFFFF000
07FFFE1FFFF800
0FFFF807FFFC00
1FFFF007FFFC00
3FFFF00FFFFE00
3FFFE00FFFFE00
3FFFE01FFFFF00
7FFFE01FFFFF00
7FFFE03FFFFF80
7FFFC03EFFFF80
FFFFC07EFFFF80
FFFFC07CFFFF80
FFFFC0FCFFFFC0
FFFFC0F8FFFFC0
FFFFC1F8FFFFC0
FFFFC1F0FFFFC0
FFFFC3F0FFFFC0
FFFFC7E0FFFFC0
FFFFC7C0FFFFC0
FFFFCFC0FFFFC0
FFFFCF80FFFFC0
7FFFDF80FFFFC0
7FFFDF00FFFFC0
7FFFFF00FFFF80
7FFFFE00FFFF80
3FFFFE01FFFF80
3FFFFC01FFFF80
3FFFF801FFFF00
1FFFF801FFFF00
1FFFF003FFFE00
0FFFF003FFFE00
07FFF807FFFC00
07FFFE1FFFF800
03FFFFFFFFF000
01FFFFFFFFE000
00FFFFFFFFC000
003FFFFFFF8000
003FFFFFFE0000
007FFFFFF80000
00FEFFFFE00000
01FE0FFE000000
01FC0000000000
03FC0000000000
07F80000000000
07E00000000000
07800000000000
ENDCHAR
STARTCHAR 00D9
ENCODING 217
SWIDTH 840 0
DWIDTH 56 0
BBX 54 62 1 0
BITMAP
0000FFC0000000
0000FFE0000000
0000FFE0000000
0000FFE0000000
00007FF0000000
00003FF8000000
00001FF8000000
00000FFC000000
000003FC000000
000000F8000000
00000000000000
00000000000000
00000000000000
00000000000000
00000000000000
00000000004100
7FFFFF8007FFF8
FFFFFFC00FFFFC
FFFFFFC00FFFFC
FFFFFFC00FFFFC
FFFFFF800FFFF8
3FFFFF0003FFF0
1FFFFC0001FFC0
0FFFF80000FF80
0FFFF80000FF80
0FFFF80000FF80
0FFFF80000FF80
0FFFF80000FF80
0FFFF80000FF80
0FFFF80000FF80
0FFFF80000FF80
0FFFF80000FF80
0FFFF80000FF80
0FFFF80000FF80
0FFFF80000FF80
0FFFF80000FF80
0FFFF80000FF80
0FFFF80000FF80
0FFFF80000FF80
0FFFF80000FF80
0FFFF80000FF80
0FFFF80000FF80
0FFFF80000FF80
0FFFF80000FF80
0FFFF80000FF80
0FFFF80000FF80
0FFFFC0001FF80
0FFFFC0001FF80
07FFFC0001FF80
07FFFE0003FF80
07FFFE0003FF00
07FFFF0007FF00
03FFFFC03FFF00
03FFFFFFFFFE00
01FFFFFFFFFE00
00FFFFFFFFFC00
007FFFFFFFF800
003FFFFFFFF000
001FFFFFFFE000
0007FFFFFF8000
0000FFFFFC0000
00000FFFC00000
ENDCHAR
STARTCHAR 00DA
ENCODING 218
SWIDTH 840 0
DWIDTH 56 0
BBX 54 62 1 0
BITMAP
0000000FFC0000
0000000FFC0000
0000001FFC0000
0000001FF80000
0000003FF80000
0000007FF00000
0000007FE00000
000000FFC00000
000000FF000000
0000007C000000
00000000000000
00000000000000
00000000000000
00000000000000
00000000000000
00000000004100
7FFFFF8007FFF8
FFFFFFC00FFFFC
FFFFFFC00FFFFC
FFFFFFC00FFFFC
FFFFFF8007FFF8
3FFFFF0003FFF0
1FFFFC0001FFC0
0FFFF80000FF80
0FFFF80000FF80
0FFFF80000FF80
0FFFF80000FF80
0FFFF80000FF80
0FFFF80000FF80
0FFFF80000FF80
0FFFF80000FF80
0FFFF80000FF80
0FFFF80000FF80
0FFFF80000FF80
0FFFF80000FF80
0FFFF80000FF80
0FFFF80000FF80
0FFFF80000FF80
0FFFF80000FF80
0FFFF80000FF80
0FFFF80000FF80
0FFFF80000FF80
0FFFF80000FF80
0FFFF80000FF80
0FFFF80000FF80
0FFFF80000FF80
0FFFFC0001FF80
0FFFFC0001FF80
07FFFC0001FF80
07FFFE0003FF80
07FFFE0003FF00
07FFFF0007FF00
03FFFFC03FFF00
03FFFFFFFFFE00
01FFFFFFFFFE00
00FFFFFFFFFC00
007FFFFFFFF800
003FFFFFFFF000
001FFFFFFFE000
0007FFFFFF8000
0000FFFFFC0000
00000FFFC00000
ENDCHAR
STARTCHAR 00DB
ENCODING 219
SWIDTH 840 0
DWIDTH 56 0
BBX 54 63 1 -1
BITMAP
0000003C000000
0000007E000000
000001FF800000
000003FFC00000
000007FFE00000
00000FFFF00000
00001FFFF80000
00003FFFFC0000
00007FFFFE0000
00007FC3FE0000
0000FF00FF0000
0000F8001F0000
00000000000000
00000000000000
00000000000000
00000000000000
00000000004100
7FFFFF8007FFF8
FFFFFFC00FFFFC
FFFFFFC00FFFFC
FFFFFFC00FFFFC
FFFFFF800FFFF8
3FFFFF0003FFF0
1FFFFC0001FFC0
0FFFF80000FF80
0FFFF80000FF80
0FFFF80000FF80
0FFFF80000FF80
0FFFF80000FF80
0FFFF80000FF80
0FFFF80000FF80
0FFFF80000FF80
0FFFF80000FF80
0FFFF80000FF80
0FFFF80000FF80
0FFFF80000FF80
0FFFF80000FF80
0FFFF80000FF80
0FFFF80000FF80
0FFFF80000FF80
0FFFF80000FF80
0FFFF80000FF80
0FFFF80000FF80
0FFFF80000FF80
0FFFF80000FF80
0FFFF80000FF80
0FFFF80000FF80
0FFFFC0001FF80
0FFFFC0001FF80
07FFFC0001FF80
07FFFE0003FF80
07FFFE0003FF00
07FFFF0007FF00
03FFFFC03FFF00
03FFFFFFFFFE00
01FFFFFFFFFE00
00FFFFFFFFFC00
007FFFFFFFF800
003FFFFFFFF000
001FFFFFFFE000
0007FFFFFF8000
0000FFFFFC0000
00000FFFC00000
ENDCHAR
STARTCHAR 00DC
ENCODING 220
SWIDTH 840 0
DWIDTH 56 0
BBX 54 63 1 -1
BITMAP
000078001E0000
0001FE007F8000
0003FF00FFC000
0007FF81FFE000
0007FF81FFE000
0007FF81FFE000
0007FF81FFE000
0007FF81FFE000
0003FF00FFC000
0001FE007F8000
000078001E0000
00000000000000
00000000000000
00000000000000
00000000000000
00000000000000
00000000006100
7FFFFF8007FFF8
FFFFFFC00FFFFC
FFFFFFC00FFFFC
FFFFFFC00FFFFC
FFFFFF800FFFF8
3FFFFF0003FFF0
1FFFFC0001FFC0
0FFFF80000FF80
0FFFF80000FF80
0FFFF80000FF80
0FFFF80000FF80
0FFFF80000FF80
0FFFF80000FF80
0FFFF80000FF80
0FFFF80000FF80
0FFFF80000FF80
0FFFF80000FF80
0FFFF80000FF80
0FFFF80000FF80
0FFFF80000FF80
0FFFF80000FF80
0FFFF80000FF80
0FFFF80000FF80
0FFFF80000FF80
0FFFF80000FF80
0FFFF80000FF80
0FFFF80000FF80
0FFFF80000FF80
0FFFF80000FF80
0FFFF80000FF80
0FFFFC0001FF80
0FFFFC0001FF80
07FFFC0001FF80
07FFFE0003FF80
07FFFE0003FF00
07FFFF0007FF00
03FFFFC03FFF00
03FFFFFFFFFE00
01FFFFFFFFFE00
00FFFFFFFFFC00
007FFFFFFFF800
003FFFFFFFF000
001FFFFFFFE000
0007FFFFFF8000
0000FFFFFC0000
00000FFFC00000
ENDCHAR
STARTCHAR 00DD
ENCODING 221
SWIDTH 795 0
DWIDTH 53 0
BBX 53 61 0 0
BITMAP
0000001FF00000
0000003FF80000
0000003FF80000
0000003FF80000
0000007FF00000
000000FFF00000
000000FFE00000
000001FF800000
000001FF000000
000000F8000000
00000000000000
00000000000000
00000000000000
00000000000000
00000000000000
00000000000000
7FFFFFE01FFFF0
FFFFFFF03FFFF8
FFFFFFF03FFFF8
FFFFFFF03FFFF8
FFFFFFF03FFFF0
7FFFFFE01FFFC0
0FFFFF8007FF80
07FFFF0007FF00
03FFFF000FFE00
03FFFF800FFC00
01FFFF801FFC00
00FFFFC01FF800
00FFFFC03FF000
007FFFE07FE000
003FFFE07FC000
001FFFF0FFC000
001FFFF9FF8000
000FFFFFFF0000
0007FFFFFE0000
0007FFFFFC0000
0003FFFFFC0000
0001FFFFF80000
0001FFFFF80000
0000FFFFF00000
0000FFFFE00000
00007FFFE00000
00007FFFE00000
00003FFFE00000
00003FFFE00000
00003FFFE00000
00003FFFE00000
00003FFFE00000
00003FFFE00000
00003FFFE00000
00003FFFE00000
00003FFFE00000
00003FFFE00000
00003FFFE00000
00007FFFF00000
0000FFFFF80000
0003FFFFFC0000
0003FFFFFE0000
0003FFFFFE0000
0003FFFFFE0000
0001FFFFFC0000
ENDCHAR
STARTCHAR 00DE
ENCODING 222
SWIDTH 0 0
DWIDTH 0 0
BBX 0 0 0 0
BITMAP
ENDCHAR
STARTCHAR 00DF
ENCODING 223
SWIDTH 660 0
DWIDTH 44 0
BBX 42 48 1 -1
BITMAP
00007FE00000
0003FFFC0000
000FFFFF0000
003FFFFF8000
007FFFFFC000
00FFFFFFE000
01FFFC3FE000
03FFF81FF000
03FFF01FF000
07FFF01FF000
07FFE01FF000
07FFE03FF000
0FFFE03FF000
0FFFE07FE000
0FFFE0FFE000
0FFFE1FFC000
0FFFE3FF8000
0FFFE7FF0000
0FFFE7FE0000
0FFFE7FF0000
0FFFE7FFC000
0FFFE7FFE000
0FFFE7FFF800
0FFFE3FFFC00
0FFFE3FFFC00
0FFFE1FFFE00
0FFFE1FFFF00
0FFFE0FFFF00
0FFFE0FFFF80
0FFFE07FFF80
0FFFE03FFF80
0FFFE03FFFC0
0FFFE01FFFC0
0FFFE01FFFC0
0FFFE01FFFC0
0FFFE00FFFC0
0FFFE00FFFC0
0FFFE00FFFC0
0FFFE00FFFC0
1FFFE00FFF80
1FFFF01FFF80
3FFFF83FFF80
7FFFFC3FFF00
FFFFFC7FFE00
FFFFFC7FFE00
FFFFFC7FFC00
7FFFF83FF000
0000001FC000
ENDCHAR
STARTCHAR 00E0
ENCODING 224
SWIDTH 600 0
DWIDTH 40 0
BBX 38 51 1 -1
BITMAP
003FE00000
007FF00000
007FF80000
007FF80000
003FFC0000
001FFC0000
000FFE0000
0007FF0000
0001FF0000
00003E0000
0000000000
0000000000
0000000000
0000000000
0003FF8000
007FFFF000
01FFFFFC00
07FFFFFE00
1FFFFFFF00
3FFFFFFF00
3FFFFFFF80
7FF87FFF80
7FE03FFF80
7FC01FFFC0
7F801FFFC0
7F001FFFC0
3E001FFFC0
3C001FFFC0
18003FFFC0
00007FFFC0
0007FFFFC0
003FFFFFC0
01FFFFFFC0
07FFFFFFC0
0FFFFFFFC0
1FFF9FFFC0
3FFE1FFFC0
7FFC1FFFC0
7FF81FFFC0
FFF81FFFC0
FFF83FFFC0
FFFC3FFFFC
FFFFFFFFFC
FFFFFFFFFC
FFFFFFFFFC
FFFFFFFFF8
7FFFFFFFF8
7FFFCFFFF0
3FFF0FFFC0
1FFC07FF00
07E003F800
ENDCHAR
STARTCHAR 00E1
ENCODING 225
SWIDTH 600 0
DWIDTH 40 0
BBX 38 51 1 0
BITMAP
00001FF800
00003FF800
00003FF800
00003FF800
00007FF000
0000FFE000
0000FFC000
0001FF8000
0001FF0000
0000F80000
0000000000
0000000000
0000000000
0000000000
0003FF8000
007FFFF000
01FFFFFC00
07FFFFFE00
1FFFFFFF00
3FFFFFFF00
3FFFFFFF80
7FF87FFF80
7FE03FFF80
7FC01FFFC0
7F801FFFC0
7F001FFFC0
3E001FFFC0
3E001FFFC0
1C003FFFC0
00007FFFC0
0007FFFFC0
003FFFFFC0
00FFFFFFC0
03FFFFFFC0
0FFFFFFFC0
1FFF9FFFC0
3FFE1FFFC0
7FFC1FFFC0
7FF81FFFC0
FFF81FFFC0
FFF83FFFC0
FFFC3FFFFC
FFFFFFFFFC
FFFFFFFFFC
FFFFFFFFFC
FFFFFFFFF8
7FFFFFFFF8
7FFFCFFFF0
3FFF0FFFC0
1FFC07FF00
07E003F800
ENDCHAR
STARTCHAR 00E2
ENCODING 226
SWIDTH 600 0
DWIDTH 40 0
BBX 38 52 1 -1
BITMAP
0000700000
0000FC0000
0003FF0000
0007FF8000
000FFFC000
001FFFE000
003FFFF000
007FFFF800
00FFFFFC00
00FF87FC00
01FE01FE00
01F0003E00
0000000000
0000000000
0000000000
0003FF8000
007FFFF000
01FFFFFC00
07FFFFFE00
1FFFFFFF00
3FFFFFFF00
3FFFFFFF80
7FF87FFF80
7FE03FFF80
7FC01FFFC0
7F801FFFC0
7F001FFFC0
3E001FFFC0
3E001FFFC0
1C003FFFC0
00007FFFC0
0007FFFFC0
003FFFFFC0
01FFFFFFC0
07FFFFFFC0
0FFFFFFFC0
1FFF9FFFC0
3FFE1FFFC0
7FFC1FFFC0
7FF81FFFC0
FFF81FFFC0
FFF83FFFC0
FFFC3FFFFC
FFFFFFFFFC
FFFFFFFFFC
FFFFFFFFFC
FFFFFFFFF8
7FFFFFFFF8
7FFFCFFFF0
3FFF0FFFC0
1FFC07FF00
07E003F800
ENDCHAR
STARTCHAR 00E3
ENCODING 227
SWIDTH 600 0
DWIDTH 40 0
BBX 38 51 1 -1
BITMAP
000F800E00
003FFC1E00
003FFFFE00
007FFFFE00
00FFFFFC00
00FFFFFC00
01FFFFF800
01FFFFF800
01F07FF000
01E007C000
0000000000
0000000000
0000000000
0000000000
0003FF8000
007FFFF000
01FFFFFC00
07FFFFFE00
1FFFFFFF00
3FFFFFFF00
3FFFFFFF80
7FFCFFFF80
7FE03FFF80
7FC01FFFC0
7F801FFFC0
7F001FFFC0
7E001FFFC0
3C001FFFC0
18003FFFC0
00007FFFC0
0007FFFFC0
003FFFFFC0
01FFFFFFC0
07FFFFFFC0
0FFFFFFFC0
1FFF9FFFC0
3FFE1FFFC0
7FFC1FFFC0
7FF81FFFC0
FFF81FFFC0
FFF83FFFC0
FFFC3FFFFC
FFFFFFFFFC
FFFFFFFFFC
FFFFFFFFFC
FFFFFFFFF8
7FFFFFFFF8
7FFFCFFFF0
3FFF0FFFC0
1FFC07FF00
07E003F800
ENDCHAR
STARTCHAR 00E4
ENCODING 228
SWIDTH 600 0
DWIDTH 40 0
BBX 38 51 1 -1
BITMAP
00F0003C00
03FC00FF00
07FE01FF80
0FFF03FFC0
0FFF03FFC0
0FFF03FFC0
0FFF03FFC0
0FFF03FFC0
07FE01FF80
03FC00FF00
00F0003C00
0000000000
0000000000
0000000000
0003FF8000
007FFFF000
01FFFFFC00
07FFFFFE00
1FFFFFFF00
3FFFFFFF00
3FFFFFFF80
7FF87FFF80
7FE03FFF80
7FC01FFFC0
7F801FFFC0
7F001FFFC0
7E001FFFC0
3C001FFFC0
18003FFFC0
00007FFFC0
0007FFFFC0
003FFFFFC0
01FFFFFFC0
07FFFFFFC0
0FFFFFFFC0
1FFF9FFFC0
3FFE1FFFC0
7FFC1FFFC0
7FF81FFFC0
FFF81FFFC0
FFF83FFFC0
FFFC3FFFFC
FFFFFFFFFC
FFFFFFFFFC
FFFFFFFFFC
FFFFFFFFF8
7FFFFFFFF8
7FFFCFFFF0
3FFF0FFFC0
1FFC07FF00
07E003F800
ENDCHAR
STARTCHAR 00E5
ENCODING 229
SWIDTH 600 0
DWIDTH 40 0
BBX 38 53 1 -1
BITMAP
0000FC0000
0003FF0000
0007FF8000
000F8FC000
001F87E000
001F03E000
001F03E000
001F03E000
001F03E000
001F87E000
000F87C000
0007FF8000
0003FF0000
0000FC0000
0000000000
0000000000
0003FF8000
007FFFF000
01FFFFFC00
07FFFFFE00
1FFFFFFF00
3FFFFFFF00
3FFFFFFF80
7FF83FFF80
7FE03FFF80
7FC01FFFC0
7F801FFFC0
7F001FFFC0
3F001FFFC0
3E001FFFC0
1C003FFFC0
00007FFFC0
0007FFFFC0
003FFFFFC0
01FFFFFFC0
07FFFFFFC0
0FFFFFFFC0
1FFF9FFFC0
3FFE1FFFC0
7FFC1FFFC0
7FF81FFFC0
FFF81FFFC0
FFF83FFFC0
FFFC3FFFFC
FFFFFFFFFC
FFFFFFFFFC
FFFFFFFFFC
FFFFFFFFF8
7FFFFFFFF8
7FFFCFFFF0
3FFF0FFFC0
1FFC07FF00
07E003F800
ENDCHAR
STARTCHAR 00E6
ENCODING 230
SWIDTH 840 0
DWIDTH 56 0
BBX 54 37 1 -1
BITMAP
0007FF803FC000
007FFFE1FFF800
03FFFFFFFFFE00
0FFFFFFFFFFF00
1FFFFFFFFFFFC0
3FFFFFFFFFFFE0
7FFFFFFFFFFFF0
7FF87FFFE0FFF0
7FE03FFFC0FFF8
7FC01FFFC07FF8
7F801FFF807FFC
7F001FFF807FFC
7E001FFF80FFFC
3C001FFFFFFFFC
38003FFFFFFFFC
00007FFFFFFFFC
0007FFFFFFFFF8
003FFFFFFFFFF0
00FFFFFFFFE000
03FFFFFFC00000
0FFFFFFFC00000
1FFF1FFFC00000
3FFE1FFFC00000
7FFC1FFFE00000
7FF81FFFE00000
FFF81FFFF000E0
FFF81FFFF801F0
FFF83FFFFE0FF0
FFFC7FFFFFFFF0
FFFFFFFFFFFFF0
FFFFFFFFFFFFE0
FFFFFFFFFFFFE0
7FFFFFFFFFFFC0
7FFFFFFFFFFF00
3FFFFC7FFFFE00
1FFFE01FFFF000
03FE0003FF8000
ENDCHAR
STARTCHAR 00E7
ENCODING 231
SWIDTH 525 0
DWIDTH 35 0
BBX 33 43 1 -7
BITMAP
0001FFC000
001FFFF800
007FFFFE00
00FFFFFF00
03FFFFFF00
07FFFFFF80
0FFFFFFF80
0FFF87FF80
1FFF03FF80
3FFF01FF80
3FFF00FF00
7FFF007E00
7FFE001800
7FFE000000
FFFE000000
FFFF000000
FFFF000000
FFFF000000
FFFF000000
FFFF000000
FFFF800000
FFFF800000
FFFFC00000
FFFFC00000
7FFFE00000
7FFFF00780
7FFFFC7F80
7FFFFFFF80
3FFFFFFF80
3FFFFFFF80
1FFFFFFF00
1FFFFFFE00
0FFFFFFC00
07FFFFF800
01FFFFE000
007FFF0000
0007F00000
0007F00000
0007F00000
0007F00000
0007F00000
000FE00000
000F800000
ENDCHAR
STARTCHAR 00E8
ENCODING 232
SWIDTH 555 0
DWIDTH 37 0
BBX 35 51 1 -1
BITMAP
01FF000000
03FF800000
03FFC00000
03FFC00000
01FFE00000
00FFE00000
007FF00000
003FF80000
000FF80000
0001F00000
0000000000
0000000000
0000000000
0000000000
0003FE0000
001FFFC000
007FFFF000
00FFFFF800
01FFFFFE00
03FFFFFF00
07FFFFFF80
0FFF87FF80
1FFF03FFC0
1FFE03FFC0
3FFE03FFE0
3FFC03FFE0
7FFC07FFE0
7FFFFFFFE0
7FFFFFFFE0
7FFFFFFFE0
FFFFFFFFC0
FFFFFFFF80
FFFFFF0000
FFFF000000
FFFE000000
FFFF000000
FFFF000000
FFFF000000
FFFF800000
FFFFC00380
7FFFE00FC0
7FFFF83FC0
3FFFFFFFC0
3FFFFFFFC0
1FFFFFFF80
1FFFFFFF00
07FFFFFE00
03FFFFFC00
01FFFFF000
007FFFC000
0007FE0000
ENDCHAR
STARTCHAR 00E9
ENCODING 233
SWIDTH 555 0
DWIDTH 37 0
BBX 35 51 1 0
BITMAP
00001FF800
00003FF800
00003FF800
00003FF000
00007FF000
0000FFE000
0001FFC000
0003FF8000
0003FE0000
0001F00000
0000000000
0000000000
0000000000
0000000000
0003FE0000
001FFFC000
007FFFF000
00FFFFF800
01FFFFFE00
03FFFFFF00
07FFFFFF80
0FFF87FF80
1FFF07FFC0
1FFE03FFC0
3FFE03FFE0
3FFC03FFE0
7FFC07FFE0
7FFFFFFFE0
7FFFFFFFE0
7FFFFFFFE0
FFFFFFFFC0
FFFFFFFF80
FFFFFF0000
FFFF000000
FFFE000000
FFFF000000
FFFF000000
FFFF000000
FFFF800000
FFFFC00380
7FFFE00FC0
7FFFF83FC0
7FFFFFFFC0
3FFFFFFFC0
1FFFFFFF80
1FFFFFFF00
0FFFFFFE00
03FFFFFC00
01FFFFF800
007FFFC000
0007FE0000
ENDCHAR
STARTCHAR 00EA
ENCODING 234
SWIDTH 555 0
DWIDTH 37 0
BBX 35 52 1 -1
BITMAP
0000E00000
0003F00000
0007FC0000
000FFE0000
001FFF0000
003FFF8000
007FFFE000
00FFFFF000
01FFFFF000
01FE1FF800
03F807FC00
03E000FC00
0000000000
0000000000
0000000000
0003FE0000
001FFFC000
007FFFF000
00FFFFF800
01FFFFFE00
03FFFFFF00
07FFFFFF80
0FFF87FF80
1FFF07FFC0
1FFE03FFC0
3FFE03FFE0
3FFC03FFE0
7FFC07FFE0
7FFFFFFFE0
7FFFFFFFE0
7FFFFFFFE0
FFFFFFFFC0
FFFFFFFF80
FFFFFF0000
FFFF000000
FFFE000000
FFFF000000
FFFF000000
FFFF000000
FFFF800000
FFFFC00380
7FFFE00FC0
7FFFF83FC0
7FFFFFFFC0
3FFFFFFFC0
1FFFFFFF80
1FFFFFFF00
0FFFFFFE00
03FFFFFC00
01FFFFF800
007FFFC000
0007FE0000
ENDCHAR
STARTCHAR 00EB
ENCODING 235
SWIDTH 555 0
DWIDTH 37 0
BBX 35 51 1 -1
BITMAP
01E000F000
07F803FC00
0FFC07FE00
1FFE0FFF00
1FFE0FFF00
1FFE0FFF00
1FFE0FFF00
1FFE0FFF00
0FFC07FE00
07F803FC00
01E000F000
0000000000
0000000000
0000000000
0003FE0000
001FFFC000
007FFFF000
00FFFFF800
01FFFFFE00
03FFFFFF00
07FFFFFF80
0FFF87FF80
1FFF07FFC0
1FFE03FFC0
3FFC03FFE0
3FFC03FFE0
7FFC07FFE0
7FFFFFFFE0
7FFFFFFFE0
7FFFFFFFE0
FFFFFFFFC0
FFFFFFFF80
FFFFFF0000
FFFE000000
FFFE000000
FFFE000000
FFFE000000
FFFF000000
FFFF800000
FFFF800380
7FFFE00FC0
7FFFF07FC0
7FFFFFFF80
3FFFFFFF80
1FFFFFFF80
1FFFFFFF00
0FFFFFFE00
03FFFFFC00
01FFFFF000
007FFFC000
0007FE0000
ENDCHAR
STARTCHAR 00EC
ENCODING 236
SWIDTH 375 0
DWIDTH 25 0
BBX 23 50 1 0
BITMAP
7FC000
FFC000
FFE000
FFE000
7FF000
3FF000
1FF800
0FFC00
03FC00
00F800
000000
000000
000000
0007C0
007FE0
03FFE0
0FFFE0
3FFFE0
7FFFE0
FFFFE0
FFFFE0
FFFFE0
7FFFE0
3FFFE0
1FFFE0
1FFFE0
1FFFE0
0FFFE0
0FFFE0
0FFFE0
0FFFE0
0FFFE0
0FFFE0
0FFFE0
0FFFE0
0FFFE0
0FFFE0
0FFFE0
0FFFE0
0FFFE0
0FFFE0
0FFFE0
1FFFE0
1FFFF0
3FFFF8
7FFFFC
FFFFFE
FFFFFE
FFFFFE
7FFFFC
ENDCHAR
STARTCHAR 00ED
ENCODING 237
SWIDTH 375 0
DWIDTH 25 0
BBX 23 50 1 1
BITMAP
003FF0
003FF0
007FF0
007FF0
00FFE0
01FFC0
01FF80
03FF00
03FC00
01F000
000000
000000
000000
0007C0
007FE0
01FFE0
0FFFE0
3FFFE0
7FFFE0
FFFFE0
FFFFE0
FFFFE0
7FFFE0
3FFFE0
1FFFE0
1FFFE0
1FFFE0
0FFFE0
0FFFE0
0FFFE0
0FFFE0
0FFFE0
0FFFE0
0FFFE0
0FFFE0
0FFFE0
0FFFE0
0FFFE0
0FFFE0
0FFFE0
0FFFE0
0FFFE0
1FFFE0
1FFFF0
3FFFF8
7FFFFC
FFFFFE
FFFFFE
FFFFFE
7FFFFC
ENDCHAR
STARTCHAR 00EE
ENCODING 238
SWIDTH 360 0
DWIDTH 24 0
BBX 24 51 0 0
BITMAP
003C00
007E00
01FF80
03FFC0
07FFE0
0FFFF0
1FFFF8
3FFFFC
7FFFFE
FF81FF
FC003F
F0000F
000000
000000
0003E0
003FF0
01FFF0
07FFF0
1FFFF0
3FFFF0
7FFFF0
7FFFF0
7FFFF0
3FFFF0
1FFFF0
0FFFF0
0FFFF0
0FFFF0
07FFF0
07FFF0
07FFF0
07FFF0
07FFF0
07FFF0
07FFF0
07FFF0
07FFF0
07FFF0
07FFF0
07FFF0
07FFF0
07FFF0
07FFF0
0FFFF0
0FFFF8
1FFFFC
3FFFFE
7FFFFF
7FFFFF
7FFFFF
3FFFFE
ENDCHAR
STARTCHAR 00EF
ENCODING 239
SWIDTH 375 0
DWIDTH 25 0
BBX 30 51 -3 0
BITMAP
0F0003C0
3FC00FF0
7FE01FF8
FFF03FFC
FFF03FFC
FFF03FFC
FFF03FFC
FFF03FFC
7FE01FF8
3FC00FF0
0F0003C0
00000000
00000000
00000000
0000FC00
0007FC00
003FFC00
01FFFC00
07FFFC00
0FFFFC00
1FFFFC00
1FFFFC00
1FFFFC00
0FFFFC00
07FFFC00
03FFFC00
01FFFC00
01FFFC00
01FFFC00
01FFFC00
01FFFC00
01FFFC00
01FFFC00
01FFFC00
01FFFC00
01FFFC00
01FFFC00
01FFFC00
01FFFC00
01FFFC00
01FFFC00
01FFFC00
01FFFC00
01FFFE00
03FFFE00
07FFFF00
0FFFFF80
1FFFFFC0
1FFFFFC0
1FFFFFC0
0FFFFF80
ENDCHAR
STARTCHAR 00F0
ENCODING 240
SWIDTH 0 0
DWIDTH 0 0
BBX 0 0 0 0
BITMAP
ENDCHAR
STARTCHAR 00F1
ENCODING 241
SWIDTH 735 0
DWIDTH 49 0
BBX 47 50 1 0
BITMAP
00007C007000
0001FFC0F000
0003FFFFF000
0003FFFFF000
0007FFFFE000
0007FFFFE000
000FFFFFC000
000FFFFF8000
000F83FE0000
000E00000000
000000000000
000000000000
000000000000
0007C0000000
003FE01FE000
01FFE0FFFC00
0FFFE3FFFE00
3FFFFFFFFF00
7FFFFFFFFF80
FFFFFFFFFF80
FFFFFFFFFFC0
FFFFFFFFFFC0
7FFFF07FFFE0
3FFFE03FFFE0
1FFFE01FFFE0
1FFFE01FFFE0
1FFFE01FFFE0
0FFFE00FFFE0
0FFFE00FFFE0
0FFFE00FFFE0
0FFFE00FFFE0
0FFFE00FFFE0
0FFFE00FFFE0
0FFFE00FFFE0
0FFFE00FFFE0
0FFFE00FFFE0
0FFFE00FFFE0
0FFFE00FFFE0
0FFFE00FFFE0
0FFFE00FFFE0
0FFFE00FFFF0
0FFFE00FFFF0
1FFFE00FFFF0
1FFFF01FFFF8
3FFFF83FFFFC
7FFFFC7FFFFC
FFFFFC7FFFFE
FFFFFC7FFFFE
FFFFFC7FFFFE
7FFFF83FFFFC
ENDCHAR
STARTCHAR 00F2
ENCODING 242
SWIDTH 645 0
DWIDTH 43 0
BBX 40 51 1 0
BITMAP
003FF00000
003FF80000
003FF80000
003FFC0000
001FFC0000
000FFE0000
0007FF0000
0003FF8000
0000FF8000
00001F0000
0000000000
0000000000
0000000000
0000000000
0001FF8000
001FFFF800
007FFFFE00
01FFFFFF80
03FFFFFFC0
07FFFFFFF0
0FFFFFFFF8
1FFFC1FFF8
3FFF80FFFC
3FFF00FFFE
7FFF00FFFE
7FFF007FFE
7FFF007FFF
FFFE007FFF
FFFE007FFF
FFFE007FFF
FFFE007FFF
FFFE007FFF
FFFE007FFF
FFFE007FFF
FFFE007FFF
FFFE007FFF
FFFE007FFF
FFFE007FFF
7FFE007FFF
7FFF007FFE
7FFF007FFE
3FFF00FFFE
3FFF80FFFC
1FFFC1FFFC
0FFFFFFFF8
07FFFFFFF0
03FFFFFFE0
01FFFFFF80
007FFFFF00
001FFFF800
0001FFC000
ENDCHAR
STARTCHAR 00F3
ENCODING 243
SWIDTH 645 0
DWIDTH 43 0
BBX 40 51 1 0
BITMAP
00000FFC00
00000FFC00
00001FFC00
00001FFC00
00003FF800
00007FF000
00007FE000
0000FFC000
0000FF0000
00007C0000
0000000000
0000000000
0000000000
0000000000
0001FF8000
001FFFF800
007FFFFE00
01FFFFFF80
03FFFFFFC0
07FFFFFFF0
0FFFFFFFF8
1FFFC1FFF8
3FFF80FFFC
3FFF00FFFE
7FFF00FFFE
7FFF007FFE
7FFF007FFF
FFFE007FFF
FFFE007FFF
FFFE007FFF
FFFE007FFF
FFFE007FFF
FFFE007FFF
FFFE007FFF
FFFE007FFF
FFFE007FFF
FFFE007FFF
FFFE007FFF
7FFE007FFF
7FFF007FFE
7FFF007FFE
3FFF00FFFE
3FFF80FFFC
1FFFC1FFFC
0FFFFFFFF8
07FFFFFFF0
03FFFFFFE0
01FFFFFF80
007FFFFF00
001FFFF800
0001FFC000
ENDCHAR
STARTCHAR 00F4
ENCODING 244
SWIDTH 645 0
DWIDTH 43 0
BBX 40 52 1 -1
BITMAP
0000380000
00007E0000
0001FF8000
0003FFC000
0007FFE000
000FFFF000
001FFFF800
003FFFFC00
007FFFFE00
007FC3FE00
00FF00FF00
00F8001F00
0000000000
0000000000
0000000000
0001FF8000
001FFFF800
007FFFFE00
01FFFFFF80
03FFFFFFC0
07FFFFFFF0
0FFFFFFFF8
1FFFC1FFF8
3FFF80FFFC
3FFF00FFFE
7FFF00FFFE
7FFF007FFE
7FFF007FFF
FFFE007FFF
FFFE007FFF
FFFE007FFF
FFFE007FFF
FFFE007FFF
FFFE007FFF
FFFE007FFF
FFFE007FFF
FFFE007FFF
FFFE007FFF
FFFE007FFF
7FFE007FFF
7FFF007FFE
7FFF007FFE
3FFF00FFFE
3FFF80FFFC
1FFFC1FFFC
0FFFFFFFF8
07FFFFFFF0
03FFFFFFE0
01FFFFFF80
007FFFFF00
001FFFF800
0001FFC000
ENDCHAR
STARTCHAR 00F5
ENCODING 245
SWIDTH 645 0
DWIDTH 43 0
BBX 40 51 1 -1
BITMAP
0007C00700
000FFE0F00
001FFFFF00
003FFFFF00
007FFFFE00
007FFFFE00
00FFFFFC00
00FFFFFC00
00F83FF800
00F003E000
0000000000
0000000000
0000000000
0000000000
0001FF8000
001FFFF800
007FFFFE00
01FFFFFF80
03FFFFFFC0
07FFFFFFF0
0FFFFFFFF8
1FFFC1FFF8
3FFF80FFFC
3FFF00FFFE
7FFF00FFFE
7FFF007FFE
7FFF007FFF
FFFE007FFF
FFFE007FFF
FFFE007FFF
FFFE007FFF
FFFE007FFF
FFFE007FFF
FFFE007FFF
FFFE007FFF
FFFE007FFF
FFFE007FFF
FFFE007FFF
7FFE007FFF
7FFF007FFE
7FFF007FFE
3FFF00FFFE
3FFF80FFFC
1FFFC1FFFC
0FFFFFFFF8
07FFFFFFF0
03FFFFFFE0
01FFFFFF80
007FFFFF00
001FFFF800
0001FFC000
ENDCHAR
STARTCHAR 00F6
ENCODING 246
SWIDTH 645 0
DWIDTH 43 0
BBX 40 51 1 -1
BITMAP
0078001E00
01FE007F80
03FF00FFC0
07FF81FFE0
07FF81FFE0
07FF81FFE0
07FF81FFE0
07FF81FFE0
03FF00FFC0
01FE007F80
0078001E00
0000000000
0000000000
0000000000
0001FF8000
001FFFF800
007FFFFE00
01FFFFFF80
03FFFFFFC0
07FFFFFFF0
0FFFFFFFF8
1FFFC1FFF8
3FFF80FFFC
3FFF00FFFE
7FFF00FFFE
7FFF007FFE
7FFF007FFF
FFFE007FFF
FFFE007FFF
FFFE007FFF
FFFE007FFF
FFFE007FFF
FFFE007FFF
FFFE007FFF
FFFE007FFF
FFFE007FFF
FFFE007FFF
FFFE007FFF
7FFE007FFF
7FFF007FFE
7FFF007FFE
3FFF00FFFE
3FFF80FFFC
1FFFC1FFFC
0FFFFFFFF8
07FFFFFFF0
03FFFFFFE0
01FFFFFF80
007FFFFF00
001FFFF800
0001FFC000
ENDCHAR
STARTCHAR 00F7
ENCODING 247
SWIDTH 660 0
DWIDTH 44 0
BBX 35 47 5 -1
BITMAP
0000C00000
0000E00000
0001F00000
0003F00000
0007F80000
0007FC0000
000F3C0000
001F1E0000
001E0F0000
003C0F8000
0078078000
00F803C000
00F001E000
01E001E000
03E000F000
03C0007800
0780007C00
0F00003C00
1F00001E00
1E00000F00
3C00000F00
7C00000780
78000003C0
F0000003E0
78000003C0
7C00000780
3C00000F00
1E00000F00
0F00001E00
0F00003C00
0780007C00
03C0007800
03E000F000
01E001E000
00F003E000
007803C000
0078078000
003C0F8000
001E0F0000
001F1E0000
000F3C0000
0007FC0000
0003F80000
0003F00000
0001F00000
0000E00000
0000C00000
ENDCHAR
STARTCHAR 00F8
ENCODING 248
SWIDTH 615 0
DWIDTH 41 0
BBX 40 46 0 -5
BITMAP
00000001E0
00000003E0
00000007E0
0000000FC0
0000000FC0
0001FFDF80
001FFFFF00
007FFFFF00
01FFFFFF80
03FFFFFFE0
07FFFFFFF0
0FFFFFFFF8
1FFFC3FFF8
3FFF81FFFC
3FFF01FFFC
7FFF03FFFE
7FFF03FFFE
7FFF07FFFE
FFFE07FFFF
FFFE0F7FFF
FFFE1F7FFF
FFFE1E7FFF
FFFE3E7FFF
FFFE3C7FFF
FFFE7C7FFF
FFFE787FFF
FFFEF87FFF
FFFEF07FFF
FFFFF07FFF
7FFFE0FFFE
7FFFE0FFFE
7FFFC0FFFE
3FFF80FFFC
3FFF81FFFC
1FFFC1FFF8
1FFFFFFFF0
0FFFFFFFE0
07FFFFFFC0
01FFFFFF80
00FFFFFE00
01FFFFF800
03F3FF8000
03F0000000
07E0000000
0FC0000000
0F00000000
ENDCHAR
STARTCHAR 00F9
ENCODING 249
SWIDTH 735 0
DWIDTH 49 0
BBX 48 52 1 -2
BITMAP
0001FF000000
0003FF800000
0003FF800000
0003FF800000
0001FFC00000
0000FFE00000
00007FF00000
00003FF00000
00000FF00000
000003E00000
000000000000
000000000000
000000000000
000000000000
000000000000
7FFFE07FFFE0
FFFFE0FFFFE0
FFFFE0FFFFE0
FFFFE0FFFFE0
FFFFE0FFFFE0
7FFFE07FFFE0
3FFFE01FFFE0
1FFFE01FFFE0
0FFFE00FFFE0
0FFFE00FFFE0
0FFFE00FFFE0
0FFFE00FFFE0
0FFFE00FFFE0
0FFFE00FFFE0
0FFFE00FFFE0
0FFFE00FFFE0
0FFFE00FFFE0
0FFFE00FFFE0
0FFFE00FFFE0
0FFFE00FFFE0
0FFFE00FFFE0
0FFFF00FFFE0
0FFFF00FFFE0
0FFFF00FFFE0
0FFFF80FFFF0
0FFFF80FFFF0
0FFFFC1FFFFC
07FFFFFFFFFE
07FFFFFFFFFF
07FFFFFFFFFE
03FFFFFFFFFE
03FFFFFFFFFC
01FFFFEFFFF0
00FFFF8FFFC0
007FFC0FFE00
000FE00FF000
000000078000
ENDCHAR
STARTCHAR 00FA
ENCODING 250
SWIDTH 735 0
DWIDTH 49 0
BBX 48 52 1 -2
BITMAP
000001FF0000
000003FF8000
000003FF8000
000003FF8000
000007FF0000
000007FE0000
00000FFC0000
00001FF80000
00001FE00000
00000F000000
000000000000
000000000000
000000000000
000000000000
000000000000
7FFFE07FFFE0
FFFFE0FFFFE0
FFFFE0FFFFE0
FFFFE0FFFFE0
FFFFE0FFFFE0
7FFFE07FFFE0
3FFFE01FFFE0
1FFFE01FFFE0
0FFFE00FFFE0
0FFFE00FFFE0
0FFFE00FFFE0
0FFFE00FFFE0
0FFFE00FFFE0
0FFFE00FFFE0
0FFFE00FFFE0
0FFFE00FFFE0
0FFFE00FFFE0
0FFFE00FFFE0
0FFFE00FFFE0
0FFFE00FFFE0
0FFFE00FFFE0
0FFFF00FFFE0
0FFFF00FFFE0
0FFFF00FFFE0
0FFFF80FFFF0
0FFFF80FFFF0
0FFFFC1FFFFC
07FFFFFFFFFE
07FFFFFFFFFF
07FFFFFFFFFE
03FFFFFFFFFE
03FFFFFFFFFC
01FFFFEFFFF0
00FFFF8FFFC0
007FFC0FFE00
000FE00FF000
000000078000
ENDCHAR
STARTCHAR 00FB
ENCODING 251
SWIDTH 735 0
DWIDTH 49 0
BBX 48 53 1 -2
BITMAP
000003800000
000007E00000
00001FF80000
00003FFC0000
00007FFE0000
0000FFFF0000
0001FFFF8000
0003FFFFC000
0007FFFFE000
0007FC3FE000
000FF00FF000
000F8001F000
000000000000
000000000000
000000000000
000000000000
7FFFE07FFFE0
FFFFE0FFFFE0
FFFFE0FFFFE0
FFFFE0FFFFE0
FFFFE0FFFFE0
7FFFE07FFFE0
3FFFE01FFFE0
1FFFE01FFFE0
0FFFE00FFFE0
0FFFE00FFFE0
0FFFE00FFFE0
0FFFE00FFFE0
0FFFE00FFFE0
0FFFE00FFFE0
0FFFE00FFFE0
0FFFE00FFFE0
0FFFE00FFFE0
0FFFE00FFFE0
0FFFE00FFFE0
0FFFE00FFFE0
0FFFE00FFFE0
0FFFF00FFFE0
0FFFF00FFFE0
0FFFF00FFFE0
0FFFF80FFFF0
0FFFF80FFFF0
0FFFFC1FFFFC
07FFFFFFFFFE
07FFFFFFFFFF
07FFFFFFFFFE
03FFFFFFFFFE
03FFFFFFFFFC
01FFFFEFFFF0
00FFFF8FFFC0
007FFC0FFE00
000FE00FF000
000000078000
ENDCHAR
STARTCHAR 00FC
ENCODING 252
SWIDTH 735 0
DWIDTH 49 0
BBX 48 52 1 -2
BITMAP
00078003C000
001FE00FF000
003FF01FF800
007FF83FFC00
007FF83FFC00
007FF83FFC00
007FF83FFC00
007FF83FFC00
003FF01FF800
001FE00FF000
00078003C000
000000000000
000000000000
000000000000
000000000000
7FFFE07FFFE0
FFFFE0FFFFE0
FFFFE0FFFFE0
FFFFE0FFFFE0
FFFFE0FFFFE0
7FFFE07FFFE0
3FFFE01FFFE0
1FFFE01FFFE0
0FFFE00FFFE0
0FFFE00FFFE0
0FFFE00FFFE0
0FFFE00FFFE0
0FFFE00FFFE0
0FFFE00FFFE0
0FFFE00FFFE0
0FFFE00FFFE0
0FFFE00FFFE0
0FFFE00FFFE0
0FFFE00FFFE0
0FFFE00FFFE0
0FFFE00FFFE0
0FFFF00FFFE0
0FFFF00FFFE0
0FFFF00FFFE0
0FFFF80FFFF0
0FFFF80FFFF0
0FFFFC1FFFFC
07FFFFFFFFFE
07FFFFFFFFFF
07FFFFFFFFFE
03FFFFFFFFFE
03FFFFFFFFFC
01FFFFEFFFF0
00FFFF8FFF80
007FFC0FFC00
000FE00FE000
000000078000
ENDCHAR
STARTCHAR 00FD
ENCODING 253
SWIDTH 600 0
DWIDTH 40 0
BBX 40 62 0 -12
BITMAP
000003FC00
000007FE00
00000FFE00
00000FFE00
00001FFC00
00001FF800
00003FF000
00007FE000
00007FC000
00003E0000
0000000000
0000000000
0000000000
0000000000
0000000000
FFFFFC7FFF
FFFFFC7FFF
FFFFFC7FFF
FFFFFC7FFF
7FFFF87FFE
1FFFF01FF8
0FFFF01FE0
0FFFF01FE0
07FFF81FC0
07FFF83FC0
03FFF83FC0
03FFF83F80
01FFF87F80
01FFFC7F00
00FFFC7F00
00FFFCFE00
007FFEFE00
007FFFFC00
003FFFFC00
003FFFFC00
001FFFF800
001FFFF800
001FFFF000
000FFFF000
000FFFE000
0007FFE000
0007FFC000
0003FFC000
0003FFC000
0001FF8000
0001FF8000
0001FF0000
0001FF0000
0003FE0000
0003FC0000
0E0FFC0000
3F9FF80000
3FFFF80000
7FFFF00000
7FFFE00000
7FFFC00000
7FFF800000
7FFF800000
7FFE000000
3FFC000000
1FF8000000
0FC0000000
ENDCHAR
STARTCHAR 00FE
ENCODING 254
SWIDTH 0 0
DWIDTH 0 0
BBX 0 0 0 0
BITMAP
ENDCHAR
STARTCHAR 00FF
ENCODING 255
SWIDTH 600 0
DWIDTH 40 0
BBX 40 63 0 -12
BITMAP
0078001E00
01FE007F80
03FF00FFC0
07FF81FFE0
07FF81FFE0
07FF81FFE0
07FF81FFE0
07FF81FFE0
03FF00FFC0
01FE007F80
0078001E00
0000000000
0000000000
0000000000
0000000000
0000000000
FFFFFC7FFF
FFFFFC7FFF
FFFFFC7FFF
FFFFFC7FFF
7FFFF87FFE
1FFFF01FF8
0FFFF01FF0
0FFFF01FE0
07FFF81FE0
07FFF83FC0
03FFF83FC0
03FFF83F80
01FFF87F80
01FFFC7F00
00FFFC7F00
00FFFCFE00
007FFEFE00
007FFFFE00
003FFFFC00
003FFFFC00
001FFFF800
001FFFF800
001FFFF000
000FFFF000
000FFFE000
0007FFE000
0007FFC000
0003FFC000
0003FFC000
0001FF8000
0001FF8000
0001FF0000
0001FF0000
0003FE0000
0003FC0000
0F0FFC0000
3F9FF80000
3FFFF80000
7FFFF00000
7FFFE00000
7FFFC00000
7FFF800000
7FFF000000
7FFE000000
3FFC000000
1FF8000000
0FC0000000
ENDCHAR
STARTCHAR 0102
ENCODING 258
SWIDTH 0 0
DWIDTH 0 0
BBX 0 0 0 0
BITMAP
ENDCHAR
STARTCHAR 0103
ENCODING 259
SWIDTH 0 0
DWIDTH 0 0
BBX 0 0 0 0
BITMAP
ENDCHAR
STARTCHAR 0104
ENCODING 260
SWIDTH 0 0
DWIDTH 0 0
BBX 0 0 0 0
BITMAP
ENDCHAR
STARTCHAR 0105
ENCODING 261
SWIDTH 0 0
DWIDTH 0 0
BBX 0 0 0 0
BITMAP
ENDCHAR
STARTCHAR 0106
ENCODING 262
SWIDTH 0 0
DWIDTH 0 0
BBX 0 0 0 0
BITMAP
ENDCHAR
STARTCHAR 0107
ENCODING 263
SWIDTH 0 0
DWIDTH 0 0
BBX 0 0 0 0
BITMAP
ENDCHAR
STARTCHAR 010C
ENCODING 268
SWIDTH 0 0
DWIDTH 0 0
BBX 0 0 0 0
BITMAP
ENDCHAR
STARTCHAR 010D
ENCODING 269
SWIDTH 0 0
DWIDTH 0 0
BBX 0 0 0 0
BITMAP
ENDCHAR
STARTCHAR 010E
ENCODING 270
SWIDTH 0 0
DWIDTH 0 0
BBX 0 0 0 0
BITMAP
ENDCHAR
STARTCHAR 010F
ENCODING 271
SWIDTH 0 0
DWIDTH 0 0
BBX 0 0 0 0
BITMAP
ENDCHAR
STARTCHAR 0110
ENCODING 272
SWIDTH 0 0
DWIDTH 0 0
BBX 0 0 0 0
BITMAP
ENDCHAR
STARTCHAR 0111
ENCODING 273
SWIDTH 0 0
DWIDTH 0 0
BBX 0 0 0 0
BITMAP
ENDCHAR
STARTCHAR 0118
ENCODING 280
SWIDTH 0 0
DWIDTH 0 0
BBX 0 0 0 0
BITMAP
ENDCHAR
STARTCHAR 0119
ENCODING 281
SWIDTH 0 0
DWIDTH 0 0
BBX 0 0 0 0
BITMAP
ENDCHAR
STARTCHAR 011A
ENCODING 282
SWIDTH 0 0
DWIDTH 0 0
BBX 0 0 0 0
BITMAP
ENDCHAR
STARTCHAR 011B
ENCODING 283
SWIDTH 0 0
DWIDTH 0 0
BBX 0 0 0 0
BITMAP
ENDCHAR
STARTCHAR 011E
ENCODING 286
SWIDTH 0 0
DWIDTH 0 0
BBX 0 0 0 0
BITMAP
ENDCHAR
STARTCHAR 011F
ENCODING 287
SWIDTH 0 0
DWIDTH 0 0
BBX 0 0 0 0
BITMAP
ENDCHAR
STARTCHAR 0130
ENCODING 304
SWIDTH 0 0
DWIDTH 0 0
BBX 0 0 0 0
BITMAP
ENDCHAR
STARTCHAR 0131
ENCODING 305
SWIDTH 375 0
DWIDTH 25 0
BBX 23 37 1 0
BITMAP
0007C0
007FE0
03FFE0
0FFFE0
3FFFE0
7FFFE0
FFFFE0
FFFFE0
FFFFE0
7FFFE0
3FFFE0
1FFFE0
1FFFE0
1FFFE0
0FFFE0
0FFFE0
0FFFE0
0FFFE0
0FFFE0
0FFFE0
0FFFE0
0FFFE0
0FFFE0
0FFFE0
0FFFE0
0FFFE0
0FFFE0
0FFFE0
0FFFE0
1FFFE0
1FFFF0
3FFFF8
7FFFFC
FFFFFE
FFFFFE
FFFFFE
7FFFFC
ENDCHAR
STARTCHAR 0139
ENCODING 313
SWIDTH 0 0
DWIDTH 0 0
BBX 0 0 0 0
BITMAP
ENDCHAR
STARTCHAR 013A
ENCODING 314
SWIDTH 0 0
DWIDTH 0 0
BBX 0 0 0 0
BITMAP
ENDCHAR
STARTCHAR 013D
ENCODING 317
SWIDTH 0 0
DWIDTH 0 0
BBX 0 0 0 0
BITMAP
ENDCHAR
STARTCHAR 013E
ENCODING 318
SWIDTH 0 0
DWIDTH 0 0
BBX 0 0 0 0
BITMAP
ENDCHAR
STARTCHAR 013F
ENCODING 319
SWIDTH 0 0
DWIDTH 0 0
BBX 0 0 0 0
BITMAP
ENDCHAR
STARTCHAR 0140
ENCODING 320
SWIDTH 0 0
DWIDTH 0 0
BBX 0 0 0 0
BITMAP
ENDCHAR
STARTCHAR 0141
ENCODING 321
SWIDTH 0 0
DWIDTH 0 0
BBX 0 0 0 0
BITMAP
ENDCHAR
STARTCHAR 0142
ENCODING 322
SWIDTH 0 0
DWIDTH 0 0
BBX 0 0 0 0
BITMAP
ENDCHAR
STARTCHAR 0143
ENCODING 323
SWIDTH 0 0
DWIDTH 0 0
BBX 0 0 0 0
BITMAP
ENDCHAR
STARTCHAR 0144
ENCODING 324
SWIDTH 0 0
DWIDTH 0 0
BBX 0 0 0 0
BITMAP
ENDCHAR
STARTCHAR 0147
ENCODING 327
SWIDTH 0 0
DWIDTH 0 0
BBX 0 0 0 0
BITMAP
ENDCHAR
STARTCHAR 0148
ENCODING 328
SWIDTH 0 0
DWIDTH 0 0
BBX 0 0 0 0
BITMAP
ENDCHAR
STARTCHAR 0150
ENCODING 336
SWIDTH 0 0
DWIDTH 0 0
BBX 0 0 0 0
BITMAP
ENDCHAR
STARTCHAR 0151
ENCODING 337
SWIDTH 0 0
DWIDTH 0 0
BBX 0 0 0 0
BITMAP
ENDCHAR
STARTCHAR 0152
ENCODING 338
SWIDTH 1125 0
DWIDTH 75 0
BBX 72 45 2 0
BITMAP
00003FFFFFFFFFFFFC
0003FFFFFFFFFFFFFE
001FFFFFFFFFFFFFFE
003FFFFFFFFFFFFFFE
00FFFFFFFFFFFFFFFE
01FFFFFFFFFFFFFFFE
03FFFFFFFFFFFFFFFE
07FFFC0FFFFFE00FFE
0FFFF807FFFFC003FE
1FFFF003FFFF8001FE
1FFFF003FFFF8000FE
3FFFE001FFFF8000FE
3FFFE001FFFF80E07E
7FFFE001FFFF81F03E
7FFFE000FFFF83F03C
7FFFC000FFFF87F000
FFFFC000FFFF87F000
FFFFC000FFFFFFF000
FFFFC000FFFFFFF000
FFFFC000FFFFFFF000
FFFFC000FFFFFFF000
FFFFC000FFFFFFF000
FFFFC000FFFFFFF000
FFFFC000FFFFFFF000
FFFFC000FFFFFFF000
FFFFC000FFFFC7F000
FFFFC000FFFF87F000
7FFFC000FFFF83F000
7FFFC000FFFF83F006
7FFFC000FFFF83F00F
7FFFC000FFFF81F01F
3FFFE001FFFF80E01F
3FFFE001FFFF80003F
1FFFE001FFFF80007F
1FFFE001FFFF8000FF
0FFFF003FFFFC001FF
07FFF003FFFFC01FFF
07FFF807FFFFFFFFFF
03FFFE0FFFFFFFFFFF
01FFFFFFFFFFFFFFFF
007FFFFFFFFFFFFFFF
003FFFFFFFFFFFFFFF
000FFFFFFFFFFFFFFF
0003FFFFFFFFFFFFFF
00003FFFFFFFFFFFFE
ENDCHAR
STARTCHAR 0153
ENCODING 339
SWIDTH 930 0
DWIDTH 62 0
BBX 60 37 1 -1
BITMAP
0001FFC001FF0000
001FFFF80FFFE000
007FFFFE1FFFF800
01FFFFFFFFFFFC00
03FFFFFFFFFFFF00
07FFFFFFFFFFFF80
0FFFFFFFFFFFFFC0
1FFFC1FFFF83FFC0
3FFF80FFFF01FFE0
3FFF00FFFF01FFE0
7FFF00FFFE01FFF0
7FFF007FFE01FFF0
7FFF007FFE07FFF0
FFFE007FFFFFFFF0
FFFE007FFFFFFFF0
FFFE007FFFFFFFF0
FFFE007FFFFFFFE0
FFFE007FFFFFFFC0
FFFE007FFFFF0000
FFFE007FFF000000
FFFE007FFF000000
FFFE007FFF000000
FFFE007FFF000000
7FFE007FFF800000
7FFE007FFF800000
7FFF007FFFC00380
3FFF007FFFE00FC0
3FFF00FFFFF83FC0
1FFF80FFFFFFFFC0
1FFFC1FFFFFFFFC0
0FFFFFFFFFFFFF80
07FFFFFFFFFFFF00
03FFFFFFFFFFFE00
01FFFFFFFFFFFC00
00FFFFFFFFFFF000
003FFFFC7FFFC000
0007FFE00FFC0000
ENDCHAR
STARTCHAR 0154
ENCODING 340
SWIDTH 0 0
DWIDTH 0 0
BBX 0 0 0 0
BITMAP
ENDCHAR
STARTCHAR 0155
ENCODING 341
SWIDTH 0 0
DWIDTH 0 0
BBX 0 0 0 0
BITMAP
ENDCHAR
STARTCHAR 0158
ENCODING 344
SWIDTH 0 0
DWIDTH 0 0
BBX 0 0 0 0
BITMAP
ENDCHAR
STARTCHAR 0159
ENCODING 345
SWIDTH 0 0
DWIDTH 0 0
BBX 0 0 0 0
BITMAP
ENDCHAR
STARTCHAR 015A
ENCODING 346
SWIDTH 0 0
DWIDTH 0 0
BBX 0 0 0 0
BITMAP
ENDCHAR
STARTCHAR 015B
ENCODING 347
SWIDTH 0 0
DWIDTH 0 0
BBX 0 0 0 0
BITMAP
ENDCHAR
STARTCHAR 015E
ENCODING 350
SWIDTH 0 0
DWIDTH 0 0
BBX 0 0 0 0
BITMAP
ENDCHAR
STARTCHAR 015F
ENCODING 351
SWIDTH 0 0
DWIDTH 0 0
BBX 0 0 0 0
BITMAP
ENDCHAR
STARTCHAR 0160
ENCODING 352
SWIDTH 0 0
DWIDTH 0 0
BBX 0 0 0 0
BITMAP
ENDCHAR
STARTCHAR 0161
ENCODING 353
SWIDTH 0 0
DWIDTH 0 0
BBX 0 0 0 0
BITMAP
ENDCHAR
STARTCHAR 0162
ENCODING 354
SWIDTH 0 0
DWIDTH 0 0
BBX 0 0 0 0
BITMAP
ENDCHAR
STARTCHAR 0163
ENCODING 355
SWIDTH 0 0
DWIDTH 0 0
BBX 0 0 0 0
BITMAP
ENDCHAR
STARTCHAR 0164
ENCODING 356
SWIDTH 0 0
DWIDTH 0 0
BBX 0 0 0 0
BITMAP
ENDCHAR
STARTCHAR 0165
ENCODING 357
SWIDTH 0 0
DWIDTH 0 0
BBX 0 0 0 0
BITMAP
ENDCHAR
STARTCHAR 016E
ENCODING 366
SWIDTH 0 0
DWIDTH 0 0
BBX 0 0 0 0
BITMAP
ENDCHAR
STARTCHAR 016F
ENCODING 367
SWIDTH 0 0
DWIDTH 0 0
BBX 0 0 0 0
BITMAP
ENDCHAR
STARTCHAR 0170
ENCODING 368
SWIDTH 0 0
DWIDTH 0 0
BBX 0 0 0 0
BITMAP
ENDCHAR
STARTCHAR 0171
ENCODING 369
SWIDTH 0 0
DWIDTH 0 0
BBX 0 0 0 0
BITMAP
ENDCHAR
STARTCHAR 0178
ENCODING 376
SWIDTH 795 0
DWIDTH 53 0
BBX 53 62 0 0
BITMAP
000078003C0000
0001FE00FF0000
0003FF01FF8000
0007FF83FFC000
0007FF83FFC000
0007FF83FFC000
0007FF83FFC000
0007FF83FFC000
0003FF01FF8000
0001FE00FF0000
000078003C0000
00000000000000
00000000000000
00000000000000
00000000000000
00000000000000
00000000000000
7FFFFFE01FFFF0
FFFFFFF03FFFF8
FFFFFFF03FFFF8
FFFFFFF03FFFF8
FFFFFFF03FFFF0
7FFFFFE01FFFC0
1FFFFF8007FF80
07FFFF0007FE00
03FFFF0007FC00
03FFFF800FFC00
01FFFF801FF800
00FFFFC01FF000
00FFFFC03FF000
007FFFE07FE000
003FFFE07FC000
003FFFF0FF8000
001FFFF9FF8000
000FFFFFFF0000
0007FFFFFE0000
0007FFFFFE0000
0003FFFFFC0000
0001FFFFF80000
0001FFFFF80000
0000FFFFF00000
0000FFFFE00000
00007FFFE00000
00007FFFE00000
00003FFFE00000
00003FFFE00000
00003FFFE00000
00003FFFE00000
00003FFFE00000
00003FFFE00000
00003FFFE00000
00003FFFE00000
00003FFFE00000
00003FFFE00000
00003FFFE00000
00007FFFF00000
0000FFFFF80000
0003FFFFFE0000
0003FFFFFE0000
0003FFFFFE0000
0003FFFFFE0000
0001FFFFFC0000
ENDCHAR
STARTCHAR 0179
ENCODING 377
SWIDTH 0 0
DWIDTH 0 0
BBX 0 0 0 0
BITMAP
ENDCHAR
STARTCHAR 017A
ENCODING 378
SWIDTH 0 0
DWIDTH 0 0
BBX 0 0 0 0
BITMAP
ENDCHAR
STARTCHAR 017B
ENCODING 379
SWIDTH 0 0
DWIDTH 0 0
BBX 0 0 0 0
BITMAP
ENDCHAR
STARTCHAR 017C
ENCODING 380
SWIDTH 0 0
DWIDTH 0 0
BBX 0 0 0 0
BITMAP
ENDCHAR
STARTCHAR 017D
ENCODING 381
SWIDTH 0 0
DWIDTH 0 0
BBX 0 0 0 0
BITMAP
ENDCHAR
STARTCHAR 017E
ENCODING 382
SWIDTH 0 0
DWIDTH 0 0
BBX 0 0 0 0
BITMAP
ENDCHAR
STARTCHAR 0192
ENCODING 402
SWIDTH 675 0
DWIDTH 45 0
BBX 40 62 0 -12
BITMAP
0000003FF8
000001FFFE
000003FFFF
00000FFFFF
00001FFFFF
00003FFFFF
00003FE3FE
00007FC1FC
00007FC0F8
00007FE070
00007FF000
00007FF800
00007FFC00
00007FFC00
00007FFE00
00007FFE00
0007FFFFF8
000FFFFFF8
000FFFFFF8
001FFFFFF0
001FFFFFF0
001FFFFFF0
001FFFFFE0
0000FFF800
0000FFF800
0000FFF800
0000FFF800
0000FFF800
0001FFF800
0001FFF800
0001FFF800
0001FFF800
0001FFF800
0001FFF800
0001FFF800
0001FFF800
0001FFF800
0001FFF800
0001FFF800
0001FFF800
0001FFF800
0001FFF800
0001FFF800
0001FFF800
0001FFF800
0001FFF800
0001FFF800
0001FFF000
0001FFF000
0003FFF000
0703FFF000
0F03FFE000
1F07FFE000
3F07FFC000
7F0FFF8000
7FFFFF8000
FFFFFF0000
FFFFFC0000
FFFFF80000
FFFFE00000
7FFF800000
0FFC000000
ENDCHAR
STARTCHAR 02BA
ENCODING 698
SWIDTH 495 0
DWIDTH 33 0
BBX 15 13 9 -13
BITMAP
1F00
1F00
3E00
7E00
7C00
FC00
FC1C
FE3C
FFFE
FFFE
7FFC
3FF8
0FC0
ENDCHAR
STARTCHAR 02C6
ENCODING 710
SWIDTH 510 0
DWIDTH 34 0
BBX 24 10 5 40
BITMAP
07C007
1FFE0F
1FFFFF
3FFFFF
7FFFFE
7FFFFE
FFFFFC
FFFFF8
F83FE0
E00000
ENDCHAR
STARTCHAR 02C7
ENCODING 711
SWIDTH 495 0
DWIDTH 33 0
BBX 24 12 5 39
BITMAP
F0000F
FE007F
FF83FF
7FFFFE
3FFFFC
1FFFF8
0FFFF0
07FFE0
03FFC0
01FF80
007E00
003C00
ENDCHAR
STARTCHAR 02C9
ENCODING 713
SWIDTH 495 0
DWIDTH 33 0
BBX 23 8 5 41
BITMAP
FFFFFC
FFFFFE
FFFFFE
FFFFFE
FFFFFE
FFFFFE
FFFFFE
7FFFFC
ENDCHAR
STARTCHAR 02D8
ENCODING 728
SWIDTH 480 0
DWIDTH 32 0
BBX 22 11 5 40
BITMAP
C0000C
E0001C
F0007C
FE01FC
FFFFFC
7FFFF8
7FFFF8
3FFFF0
1FFFE0
07FF80
01FE00
ENDCHAR
STARTCHAR 02D9
ENCODING 729
SWIDTH 510 0
DWIDTH 34 0
BBX 12 11 11 39
BITMAP
0F00
3FC0
7FE0
FFF0
FFF0
FFF0
FFF0
FFF0
7FE0
3FC0
0F00
ENDCHAR
STARTCHAR 02DA
ENCODING 730
SWIDTH 480 0
DWIDTH 32 0
BBX 16 13 8 38
BITMAP
07E0
1FF8
3FFC
7C3E
F81F
F81F
F81F
F81F
F81F
7C3E
3FFC
1FF8
07E0
ENDCHAR
STARTCHAR 02DB
ENCODING 731
SWIDTH 510 0
DWIDTH 34 0
BBX 29 10 8 40
BITMAP
0FF80FF0
0FFC1FF8
1FFC3FF8
1FFC3FF8
3FF87FF0
7FF07FE0
7FE0FFC0
FFC1FF80
FF81FF00
7C00F800
ENDCHAR
STARTCHAR 02DC
ENCODING 732
SWIDTH 495 0
DWIDTH 33 0
BBX 24 13 5 38
BITMAP
003800
007E00
01FF80
03FFC0
07FFE0
0FFFF0
1FFFF8
3FFFFC
7FFFFE
7FC3FE
FF00FF
FC003F
F0000E
ENDCHAR
STARTCHAR 0393
ENCODING 915
SWIDTH 0 0
DWIDTH 0 0
BBX 0 0 0 0
BITMAP
ENDCHAR
STARTCHAR 0398
ENCODING 920
SWIDTH 0 0
DWIDTH 0 0
BBX 0 0 0 0
BITMAP
ENDCHAR
STARTCHAR 03A3
ENCODING 931
SWIDTH 660 0
DWIDTH 44 0
BBX 42 61 2 -16
BITMAP
FFFFFFFFFE00
7FFFFFFFFE00
7FFFFFFFFE00
3FFE0001FE00
3FFF00007E00
1FFF00003E00
0FFF80001E00
0FFF80000E00
07FFC0000E00
07FFE0000600
03FFE0000600
03FFF0000600
01FFF0000600
00FFF8000000
00FFF8000000
007FFC000000
007FFE000000
003FFE000000
001FFF000000
001FFF000000
000FFF800000
000FFF800000
0007FFC00000
0007FFE00000
0003FFE00000
0001FFC00000
0001FFC00000
0000FF800000
0000FF000000
00007F000000
00003E000000
00007E000000
0000FC000000
0000FC000000
0001F8000000
0001F0000000
0003F0000000
0003E0000000
0007E0000000
000FC0000000
000F80000000
001F80000000
001F000000C0
003F000000C0
007E00000180
007E00000180
00FC00000180
00F800000380
01F800000380
01F000000780
03F000000F80
07E000001F80
07E000007F80
0FC00001FF00
0FFFFFFFFF00
1FFFFFFFFF00
3FFFFFFFFF00
3FFFFFFFFF00
7FFFFFFFFF00
7FFFFFFFFF00
FFFFFFFFFF00
ENDCHAR
STARTCHAR 03A6
ENCODING 934
SWIDTH 0 0
DWIDTH 0 0
BBX 0 0 0 0
BITMAP
ENDCHAR
STARTCHAR 03A9
ENCODING 937
SWIDTH 810 0
DWIDTH 54 0
BBX 52 46 1 0
BITMAP
00001FFF800000
0001FFFFF80000
000FFFFFFF0000
003FFE07FFC000
007FF801FFE000
00FFF000FFF000
01FFE0007FF800
03FFE0007FFC00
07FFC0003FFE00
0FFFC0003FFF00
0FFFC0003FFF00
1FFF80001FFF80
1FFF80001FFF80
3FFF80001FFFC0
3FFF80001FFFC0
3FFF80001FFFC0
7FFF80001FFFE0
7FFF00000FFFE0
7FFF00000FFFE0
7FFF00000FFFE0
7FFF00000FFFE0
7FFF00000FFFE0
7FFF00001FFFE0
7FFF80001FFFE0
3FFF80001FFFE0
3FFF80001FFFC0
3FFF80001FFFC0
1FFF80001FFFC0
1FFF80001FFF80
0FFF80001FFF00
0FFFC0003FFF00
07FFC0003FFE00
03FFC0003FFC00
01FFE0007FF800
C0FFE0007FE030
C07FF000FFC030
E01FF801FF0070
6003F801FC00E0
7C007C03F001E0
7FFFFE07FFFFE0
7FFFFE07FFFFE0
7FFFFE07FFFFC0
3FFFFE07FFFFC0
3FFFFE07FFFFC0
3FFFFE07FFFFC0
3FFFFE07FFFFC0
ENDCHAR
STARTCHAR 03B1
ENCODING 945
SWIDTH 0 0
DWIDTH 0 0
BBX 0 0 0 0
BITMAP
ENDCHAR
STARTCHAR 03B4
ENCODING 948
SWIDTH 495 0
DWIDTH 33 0
BBX 31 49 1 -1
BITMAP
01800000
01E00000
00780000
003E0000
001F8000
000FC000
0007E000
0003F000
0001F800
0001FC00
0000FE00
00007F00
00007F80
00003F80
00003FC0
00003FC0
000FFFE0
007FFFF0
01FE7FF0
07F83FF0
0FF83FF8
1FF01FF8
1FF01FFC
3FF01FFC
3FF01FFC
7FF01FFC
7FF01FFC
FFF01FFE
FFF01FFE
FFF01FFE
FFF01FFE
FFF01FFE
FFF01FFE
FFF01FFE
FFF01FFE
FFF01FFE
FFF01FFE
7FF01FFC
7FF01FFC
7FF01FFC
3FF01FF8
3FF01FF8
1FF01FF0
0FF81FE0
0FF83FE0
03F83FC0
01FEFF00
00FFFE00
001FF000
ENDCHAR
STARTCHAR 03B5
ENCODING 949
SWIDTH 0 0
DWIDTH 0 0
BBX 0 0 0 0
BITMAP
ENDCHAR
STARTCHAR 03C0
ENCODING 960
SWIDTH 630 0
DWIDTH 42 0
BBX 41 34 1 -1
BITMAP
01FFFFFFFF80
07FFFFFFFF80
0FFFFFFFFF80
1FFFFFFFFF80
1FFFFFFFFF80
3FFFFFFFFF80
3FFFFFFFFF80
7E3F003FC000
783F007FC000
E03F00FFC000
C03F01FFC000
003F03FFC000
003F07FFC000
003F07FFC000
003F07FFC000
007F07FFC000
007F07FFC000
007F07FFC000
007F07FFC000
00FF07FFC000
00FF07FFC000
00FF07FFC000
01FE07FFC000
03FE07FFC000
07FE07FFC000
0FFE07FFC000
1FFE07FFC000
3FFE07FFE000
3FFC07FFFE00
3FFC03FFFE00
3FF803FFE000
3FF801FF0000
1FF000F00000
07C000000000
ENDCHAR
STARTCHAR 03C3
ENCODING 963
SWIDTH 0 0
DWIDTH 0 0
BBX 0 0 0 0
BITMAP
ENDCHAR
STARTCHAR 03C4
ENCODING 964
SWIDTH 0 0
DWIDTH 0 0
BBX 0 0 0 0
BITMAP
ENDCHAR
STARTCHAR 03C6
ENCODING 966
SWIDTH 0 0
DWIDTH 0 0
BBX 0 0 0 0
BITMAP
ENDCHAR
STARTCHAR 2013
ENCODING 8211
SWIDTH 645 0
DWIDTH 43 0
BBX 41 16 1 10
BITMAP
000000000300
000000000780
1FFFFFFFFF80
1FFFFFFFFF80
3FFFFFFFFF80
3FFFFFFFFF80
7FFFFFFFFF00
7FFFFFFFFF00
7FFFFFFFFF00
FFFFFFFFFE00
FFFFFFFFFE00
FFFFFFFFFC00
FFFFFFFFFC00
F80000000000
F00000000000
600000000000
ENDCHAR
STARTCHAR 2014
ENCODING 8212
SWIDTH 930 0
DWIDTH 62 0
BBX 62 16 0 10
BITMAP
0000000000000018
000000000000003C
1FFFFFFFFFFFFFFC
1FFFFFFFFFFFFFFC
3FFFFFFFFFFFFFFC
3FFFFFFFFFFFFFFC
7FFFFFFFFFFFFFF8
7FFFFFFFFFFFFFF8
7FFFFFFFFFFFFFF8
FFFFFFFFFFFFFFF0
FFFFFFFFFFFFFFF0
FFFFFFFFFFFFFFE0
FFFFFFFFFFFFFFE0
F800000000000000
F000000000000000
6000000000000000
ENDCHAR
STARTCHAR 2017
ENCODING 8215
SWIDTH 0 0
DWIDTH 0 0
BBX 0 0 0 0
BITMAP
ENDCHAR
STARTCHAR 2018
ENCODING 8216
SWIDTH 510 0
DWIDTH 34 0
BBX 34 32 0 9
BITMAP
0001E00000
0003F00000
0007F00000
000FF80000
000FF80000
000FF80000
000FF80000
0007F00000
0007F00000
0001C00000
0000000000
0000000000
0000000000
FFFFFFFFC0
FFFFFFFFC0
FFFFFFFFC0
FFFFFFFFC0
FFFFFFFFC0
FFFFFFFFC0
FFFFFFFFC0
0000000000
0000000000
0001E00000
0007F00000
0007F00000
000FF80000
000FF80000
000FF80000
000FF80000
0007F00000
0007F00000
0001C00000
ENDCHAR
STARTCHAR 2019
ENCODING 8217
SWIDTH 300 0
DWIDTH 20 0
BBX 15 23 2 25
BITMAP
07E0
1FF0
3FF8
7FFC
FFFE
FFFE
FFFE
FFFE
FFFE
7FFE
3FFE
1FFE
0FFE
07FE
07FC
07FC
0FF8
1FF0
3FE0
3FE0
7FC0
7F00
3C00
ENDCHAR
STARTCHAR 201A
ENCODING 8218
SWIDTH 300 0
DWIDTH 20 0
BBX 15 22 2 -11
BITMAP
07E0
1FF0
3FF8
7FFC
FFFE
FFFE
FFFE
FFFE
FFFE
7FFE
3FFE
1FFE
0FFE
07FC
07FC
0FF8
0FF8
1FF0
3FE0
7FC0
7F80
3E00
ENDCHAR
STARTCHAR 201C
ENCODING 8220
SWIDTH 600 0
DWIDTH 40 0
BBX 34 23 3 25
BITMAP
003C000780
00FC001FC0
03FC007FC0
07FC00FF80
0FF801FF00
1FF803FF00
1FF003FE00
3FE007FC00
7FE00FFC00
7FE00FFC00
7FF00FFE00
FFF81FFF00
FFFC1FFF80
FFFE1FFFC0
FFFE1FFFC0
FFFE1FFFC0
FFFE1FFFC0
FFFE0FFFC0
7FFE0FFFC0
7FFE0FFFC0
3FFC07FF80
1FF803FF00
07E000FC00
ENDCHAR
STARTCHAR 201D
ENCODING 8221
SWIDTH 585 0
DWIDTH 39 0
BBX 34 23 2 25
BITMAP
07E000FC00
1FF003FE00
3FF807FF00
7FFC0FFF80
FFFE1FFFC0
FFFE1FFFC0
FFFE1FFFC0
FFFE1FFFC0
FFFE1FFFC0
7FFE0FFFC0
3FFE07FFC0
1FFE03FFC0
0FFE01FFC0
07FE00FFC0
07FC00FF80
07FC00FF80
0FF801FF00
1FF003FE00
3FE007FC00
3FE007FC00
7FC00FF800
7F000FE000
3C00078000
ENDCHAR
STARTCHAR 201E
ENCODING 8222
SWIDTH 585 0
DWIDTH 39 0
BBX 34 22 2 -11
BITMAP
07E000FC00
1FF003FE00
3FF807FF00
7FFC0FFF80
FFFE1FFFC0
FFFE1FFFC0
FFFE1FFFC0
FFFE1FFFC0
FFFE1FFFC0
7FFE0FFFC0
3FFE07FFC0
1FFE03FFC0
0FFE01FFC0
07FC00FF80
07FC00FF80
0FF801FF00
0FF801FF00
1FF003FE00
3FE007FC00
7FC00FF800
7F800FF000
3E0007C000
ENDCHAR
STARTCHAR 2020
ENCODING 8224
SWIDTH 645 0
DWIDTH 43 0
BBX 38 57 3 -10
BITMAP
000FFF8000
000FFFC000
000FFFC000
000FFFC000
000FFFC000
000FFFC000
000FFFC000
000FFFC000
000FFFC000
000FFFC000
000FFFC000
000FFF8000
000FFF8000
000FFF8000
781FFFC078
FFFFFFFFFC
FFFFFFFFFC
FFFFFFFFFC
FFFFFFFFFC
FFFFFFFFFC
FFFFFFFFFC
FFFFFFFFFC
FFFFFFFFFC
FFFFFFFFFC
001FFFE000
000FFFC000
000FFFC000
000FFFC000
000FFFC000
000FFFC000
000FFFC000
000FFFC000
000FFFC000
000FFFC000
000FFFC000
000FFFC000
000FFFC000
000FFFC000
000FFFC000
000FFFC000
000FFFC000
000FFFC000
000FFFC000
000FFFC000
000FFFC000
000FFFC000
000FFFC000
000FFFC000
000FFFC000
000FFFC000
000FFFC000
000FFFC000
000FFFC000
000FFFC000
000FFFC000
000FFFC000
0007FF8000
ENDCHAR
STARTCHAR 2021
ENCODING 8225
SWIDTH 645 0
DWIDTH 43 0
BBX 38 57 3 -10
BITMAP
0007FF8000
000FFFC000
000FFFC000
000FFFC000
000FFFC000
000FFFC000
000FFFC000
000FFF8000
000FFF8000
000FFF8000
000FFF8000
000FFF8000
000FFF8000
001FFFC000
FFFFFFFFFC
FFFFFFFFFC
FFFFFFFFFC
FFFFFFFFFC
FFFFFFFFFC
FFFFFFFFFC
FFFFFFFFFC
FFFFFFFFFC
FFFFFFFFFC
701FFFE038
000FFFC000
000FFF8000
000FFF8000
000FFF8000
000FFF8000
000FFF8000
000FFF8000
000FFF8000
000FFF8000
7E1FFFC1F8
FFFFFFFFFC
FFFFFFFFFC
FFFFFFFFFC
FFFFFFFFFC
FFFFFFFFFC
FFFFFFFFFC
FFFFFFFFFC
FFFFFFFFFC
FFFFFFFFFC
001FFFC000
000FFF8000
000FFF8000
000FFF8000
000FFF8000
000FFF8000
000FFF8000
000FFFC000
000FFFC000
000FFFC000
000FFFC000
000FFFC000
000FFFC000
000FFF8000
ENDCHAR
STARTCHAR 2022
ENCODING 8226
SWIDTH 600 0
DWIDTH 40 0
BBX 13 13 13 13
BITMAP
0F80
3FE0
7FF0
7FF0
FFF8
FFF8
FFF8
FFF8
FFF8
7FF0
7FF0
3FE0
0F80
ENDCHAR
STARTCHAR 2026
ENCODING 8230
SWIDTH 885 0
DWIDTH 59 0
BBX 55 14 2 -1
BITMAP
07E000FC000FC0
1FF803FF003FF0
3FFC07FF807FF8
7FFE0FFFC0FFFC
FFFE0FFFE1FFFC
FFFE0FFFE1FFFC
FFFE0FFFE1FFFE
FFFE0FFFE1FFFE
FFFE0FFFE1FFFC
FFFE0FFFE1FFFC
7FFE0FFFC0FFFC
7FFC07FF807FF8
1FF803FF003FF0
07E000FC000FC0
ENDCHAR
STARTCHAR 2030
ENCODING 8240
SWIDTH 1050 0
DWIDTH 70 0
BBX 68 50 1 -3
BITMAP
00000001E000000000
03F80003E000000000
0FFE0007E000000000
1FFF000FC000000000
3FFF000FC000000000
3FFF800F8000000000
7F1FC00F0000000000
7F1FC01F0000000000
7E0FC01F0000000000
FE0FE03E0000000000
FE0FE03E0000000000
FE0FE03C0000000000
FE0FE07C0000000000
FE0FE0780000000000
FE0FE0780000000000
FE0FE0F00000000000
FE0FE0F00000000000
FE0FE1F00000000000
7E0FC1E00000000000
7F1FC1E00000000000
7F1FC3C00000000000
3FFF83C00000000000
3FFF07C00000000000
1FFF07800000000000
0FFE0780FE0001FC00
03F80F03FF8007FF00
00000F07FFC00FFF80
00001E0FFFE01FFFC0
00001E0FFFE01FFFC0
00001E1FC7F03F8FE0
00003C1FC7F03F8FE0
00003C1F83F03F07E0
0000783F83F87F07F0
0000783F83F87F07F0
0000F03F83F87F07F0
0000F03F83F87F07F0
0001E03F83F87F07F0
0001E03F83F87F07F0
0003E03F83F87F07F0
0003C03F83F87F07F0
0007C01F83F03F07E0
0007801FC7F03F8FE0
000F801FC7F03F8FE0
000F000FFFE01FFFC0
001F000FFFE01FFFC0
001F0007FFC00FFF80
003E0003FF8007FF00
003E0000FE0001FC00
007C00000000000000
007800000000000000
ENDCHAR
STARTCHAR 2039
ENCODING 8249
SWIDTH 300 0
DWIDTH 20 0
BBX 18 27 1 4
BITMAP
000780
001FC0
003FC0
007F80
01FF80
03FF00
07FE00
0FFC00
1FF800
3FF800
7FF000
7FF000
FFE000
FFE000
FFE000
7FF000
7FF000
3FF800
1FFC00
0FFC00
07FE00
03FF00
01FF80
007FC0
003FC0
000FC0
000380
ENDCHAR
STARTCHAR 203A
ENCODING 8250
SWIDTH 300 0
DWIDTH 20 0
BBX 18 27 1 4
BITMAP
700000
FC0000
FF0000
FF8000
7FE000
3FF000
3FF800
1FFC00
0FFE00
07FF00
07FF80
03FF80
01FFC0
01FFC0
01FFC0
03FF80
03FF80
07FF00
0FFE00
1FFC00
3FF800
3FF000
7FE000
FF8000
FF0000
FC0000
700000
ENDCHAR
STARTCHAR 203C
ENCODING 8252
SWIDTH 0 0
DWIDTH 0 0
BBX 0 0 0 0
BITMAP
ENDCHAR
STARTCHAR 207F
ENCODING 8319
SWIDTH 0 0
DWIDTH 0 0
BBX 0 0 0 0
BITMAP
ENDCHAR
STARTCHAR 20A3
ENCODING 8355
SWIDTH 0 0
DWIDTH 0 0
BBX 0 0 0 0
BITMAP
ENDCHAR
STARTCHAR 20A7
ENCODING 8359
SWIDTH 0 0
DWIDTH 0 0
BBX 0 0 0 0
BITMAP
ENDCHAR
STARTCHAR 2122
ENCODING 8482
SWIDTH 1065 0
DWIDTH 71 0
BBX 71 28 0 17
BITMAP
7FFFFFF1FFC0007FF0
FFFFFFFBFFE000FFF8
FFFFFFFBFFE000FFF8
FFFFFFF9FFF001FFF8
FFFFFFF8FFF801FFF0
FC7FF3F8FFF803FFE0
F87FF1F8FFFC03FFE0
F07FF0F8FFFC07FFE0
F07FF0F8FFFE0FFFE0
607FF070FFFE0FFFE0
007FF000FFFF1FFFE0
007FF000FFFF9FFFE0
007FF000FFFFBFFFE0
007FF000FFFFFFFFE0
007FF000FBFFFF7FE0
007FF000F9FFFE7FE0
007FF000F9FFFE7FE0
007FF000F8FFFC7FF0
007FF000F87FFC7FF0
007FF000F87FF87FF0
007FF000F83FF07FF0
007FF000F81FF07FF0
00FFF001F81FE07FF0
01FFF803FC0FE1FFFC
03FFF807FE0FC1FFFE
03FFF807FE0781FFFE
01FFF807FC0380FFFC
000000000003000000
ENDCHAR
STARTCHAR 2190
ENCODING 8592
SWIDTH 0 0
DWIDTH 0 0
BBX 0 0 0 0
BITMAP
ENDCHAR
STARTCHAR 2191
ENCODING 8593
SWIDTH 0 0
DWIDTH 0 0
BBX 0 0 0 0
BITMAP
ENDCHAR
STARTCHAR 2192
ENCODING 8594
SWIDTH 0 0
DWIDTH 0 0
BBX 0 0 0 0
BITMAP
ENDCHAR
STARTCHAR 2193
ENCODING 8595
SWIDTH 0 0
DWIDTH 0 0
BBX 0 0 0 0
BITMAP
ENDCHAR
STARTCHAR 2194
ENCODING 8596
SWIDTH 0 0
DWIDTH 0 0
BBX 0 0 0 0
BITMAP
ENDCHAR
STARTCHAR 2195
ENCODING 8597
SWIDTH 0 0
DWIDTH 0 0
BBX 0 0 0 0
BITMAP
ENDCHAR
STARTCHAR 21A8
ENCODING 8616
SWIDTH 0 0
DWIDTH 0 0
BBX 0 0 0 0
BITMAP
ENDCHAR
STARTCHAR 2202
ENCODING 8706
SWIDTH 0 0
DWIDTH 0 0
BBX 0 0 0 0
BITMAP
ENDCHAR
STARTCHAR 2206
ENCODING 8710
SWIDTH 675 0
DWIDTH 45 0
BBX 48 45 -2 1
BITMAP
00000FF00000
00001FF00000
00001FF80000
00003FF80000
00003FFC0000
00007FFC0000
00007FFE0000
0000FFFE0000
0000FFFF0000
0000FFFF0000
0001FFFF0000
0001FFFF8000
0003EFFF8000
0003EFFFC000
0007C7FFC000
0007C7FFE000
000F87FFE000
000F83FFF000
000F83FFF000
001F01FFF000
001F01FFF800
003E00FFF800
003E00FFFC00
007C00FFFC00
007C007FFE00
00FC007FFE00
00F8003FFF00
00F8003FFF00
01F0003FFF80
01F0001FFF80
03E0001FFF80
03E0000FFFC0
07E0000FFFC0
07C0000FFFE0
0FC00007FFE0
0F800007FFF0
0F800003FFF0
1F800003FFF8
1FFFFFFFFFF8
3FFFFFFFFFFC
3FFFFFFFFFFC
7FFFFFFFFFFC
7FFFFFFFFFFE
FFFFFFFFFFFE
FFFFFFFFFFFF
ENDCHAR
STARTCHAR 220F
ENCODING 8719
SWIDTH 675 0
DWIDTH 45 0
BBX 54 61 -4 -16
BITMAP
FFFFFFFFFFFFFC
FFFFFFFFFFFFFC
0FFFFC00FFFFC0
07FFF8007FFF80
03FFF0003FFF00
03FFF0003FFF00
03FFF0003FFF00
03FFF0003FFF00
03FFF0003FFF00
03FFF0003FFF00
03FFF0003FFF00
03FFF0003FFF00
03FFF0003FFF00
03FFF0003FFF00
03FFF0003FFF00
03FFF0003FFF00
03FFF0003FFF00
03FFF0003FFF00
03FFF0003FFF00
03FFF0003FFF00
03FFF0003FFF00
03FFF0003FFF00
03FFF0003FFF00
03FFF0003FFF00
03FFF0003FFF00
03FFF0003FFF00
03FFF0003FFF00
03FFF0003FFF00
03FFF0003FFF00
03FFF0003FFF00
03FFF0003FFF00
03FFF0003FFF00
03FFF0003FFF00
03FFF0003FFF00
03FFF0003FFF00
03FFF0003FFF00
03FFF0003FFF00
03FFF0003FFF00
03FFF0003FFF00
03FFF0003FFF00
03FFF0003FFF00
03FFF0003FFF00
03FFF0003FFF00
03FFF0003FFF00
03FFF0003FFF00
03FFF0003FFF00
03FFF0003FFF00
03FFF0003FFF00
03FFF0003FFF00
03FFF0003FFF00
03FFF0003FFF00
03FFF0003FFF00
03FFF0003FFF00
03FFF0003FFF00
03FFF0003FFF00
03FFF0003FFF00
03FFF0003FFF00
03FFF0003FFF00
07FFF8007FFF80
0FFFFC00FFFFC0
FFFFFFCFFFFFFC
ENDCHAR
STARTCHAR 2212
ENCODING 8722
SWIDTH 0 0
DWIDTH 0 0
BBX 0 0 0 0
BITMAP
ENDCHAR
STARTCHAR 2215
ENCODING 8725
SWIDTH 165 0
DWIDTH 11 0
BBX 28 48 -9 -1
BITMAP
000000F0
000001F0
000003F0
000003E0
000007E0
000007C0
00000FC0
00000F80
00000F80
00001F00
00001F00
00003E00
00003E00
00007C00
00007C00
0000F800
0000F800
0001F000
0001F000
0001E000
0003E000
0003C000
0007C000
00078000
000F8000
000F0000
001F0000
001E0000
003E0000
003C0000
007C0000
00780000
00F80000
00F00000
01F00000
01E00000
03E00000
03C00000
07C00000
07800000
0F800000
0F800000
1F000000
3F000000
3E000000
7C000000
F8000000
F0000000
ENDCHAR
STARTCHAR 2219
ENCODING 8729
SWIDTH 300 0
DWIDTH 20 0
BBX 15 14 2 11
BITMAP
07E0
1FF8
3FFC
7FFE
FFFE
FFFE
FFFE
FFFE
FFFE
FFFE
7FFE
3FFC
1FF8
07E0
ENDCHAR
STARTCHAR 221A
ENCODING 8730
SWIDTH 660 0
DWIDTH 44 0
BBX 42 56 1 0
BITMAP
00000000FFC0
00000000FFC0
00000000FFC0
00000000E000
00000001E000
00000001E000
00000001C000
00000001C000
00000003C000
00000003C000
000000038000
000000038000
000000038000
000000078000
000000078000
000000070000
000000070000
0000000F0000
0000000F0000
0000000E0000
0000000E0000
0000000E0000
0000001E0000
0000001C0000
0000001C0000
0000001C0000
0000003C0000
0000003C0000
000000380000
000000380000
FFFE00780000
FFFE00780000
FFFF00700000
03FF00700000
03FF00700000
03FF00F00000
01FF80E00000
01FF80E00000
01FF80E00000
01FF81E00000
01FFC1E00000
00FFC1C00000
00FFC1C00000
00FFC3C00000
00FFC3C00000
007FE3800000
007FE3800000
007FE3800000
007FE7800000
003FF7000000
003FF7000000
003FF7000000
003FFF000000
001FFE000000
001FFE000000
001FFE000000
ENDCHAR
STARTCHAR 221E
ENCODING 8734
SWIDTH 675 0
DWIDTH 45 0
BBX 47 29 -1 8
BITMAP
007F8000FE00
01FFE003FF80
07FFF007FFE0
0FFFF80FFFF0
1FFFFC1FFFF0
1FFFFE3FFFF8
3FFFFF3FFFF8
3FFFFFFFFFFC
7FFFFFFFFFFC
783FFFF8007E
701FFFE0001E
E00FFFF0000E
C007FFF00006
C003FFF80006
C001FFFC0006
C001FFFE0006
C000FFFF000E
E0007FFF800E
FC00FFFFC01E
7FFFFFFFF03C
7FFFFFFFFFFC
3FFFFFFFFFF8
3FFFE7FFFFF8
1FFFC3FFFFF0
0FFF81FFFFE0
07FE00FFFFC0
01FC007FFF80
0000001FFF00
00000007F800
ENDCHAR
STARTCHAR 221F
ENCODING 8735
SWIDTH 0 0
DWIDTH 0 0
BBX 0 0 0 0
BITMAP
ENDCHAR
STARTCHAR 2229
ENCODING 8745
SWIDTH 0 0
DWIDTH 0 0
BBX 0 0 0 0
BITMAP
ENDCHAR
STARTCHAR 222B
ENCODING 8747
SWIDTH 495 0
DWIDTH 33 0
BBX 45 68 -6 -17
BITMAP
0000003FF000
000001FFFE00
000007FE3F80
00001FFC1FE0
00003FFC1FF0
00003FFC1FF0
00007FFC3FF8
00007FFC7FF8
0000FFFC7FF8
0000FFFC7FF8
0000FFFC7FF8
0000FFFC7FF8
0000FFFC3FF0
0000FFFC3FF0
0000FFFC1FE0
0000FFFC0780
0000FFFC0000
0000FFFC0000
0000FFFC0000
0000FFFC0000
0000FFFC0000
0000FFFC0000
0000FFFC0000
0000FFFC0000
0000FFFC0000
0000FFFC0000
0000FFFC0000
0000FFFC0000
0000FFFC0000
0000FFFC0000
0000FFFC0000
0000FFFC0000
0000FFFC0000
0000FFFC0000
0000FFFC0000
0000FFFC0000
0000FFFC0000
0000FFFC0000
0000FFFC0000
0000FFFC0000
0000FFFC0000
0000FFFC0000
0000FFFC0000
0000FFFC0000
0000FFFC0000
0000FFFC0000
0000FFFC0000
0000FFFC0000
0000FFFC0000
0000FFFC0000
0000FFFC0000
0000FFFC0000
0000FFFC0000
0F80FFFC0000
3FC0FFFC0000
7FE0FFFC0000
7FF0FFFC0000
FFF0FFFC0000
FFF0FFFC0000
FFF0FFFC0000
FFF0FFF80000
FFE0FFF80000
7FC0FFF80000
7FC0FFF00000
3FC0FFE00000
0FF1FF800000
03FFFE000000
007FE0000000
ENDCHAR
STARTCHAR 2248
ENCODING 8776
SWIDTH 495 0
DWIDTH 33 0
BBX 30 21 2 16
BITMAP
01F80018
07FF003C
0FFFFFFC
1FFFFFF8
3FFFFFF0
7FFFFFE0
7FFFFFC0
F00FFF80
6000FE00
00000000
00000000
00000000
01FE001C
07FFC03C
0FFFFFF8
1FFFFFF8
3FFFFFF0
7FFFFFE0
7FFFFFC0
F00FFF80
4000FE00
ENDCHAR
STARTCHAR 2260
ENCODING 8800
SWIDTH 510 0
DWIDTH 34 0
BBX 34 35 0 8
BITMAP
0000060000
0000078000
000007E000
00000FE000
00000FE000
00001FC000
00001FC000
00003F8000
00003F8000
FFFFFFFFC0
FFFFFFFFC0
FFFFFFFFC0
FFFFFFFFC0
FFFFFFFFC0
FFFFFFFFC0
FFFFFFFFC0
0003F80000
0007F80000
0007F00000
FFFFFFFFC0
FFFFFFFFC0
FFFFFFFFC0
FFFFFFFFC0
FFFFFFFFC0
FFFFFFFFC0
FFFFFFFFC0
007F800000
007F000000
00FF000000
00FE000000
01FE000000
01FC000000
01FC000000
0078000000
0018000000
ENDCHAR
STARTCHAR 2261
ENCODING 8801
SWIDTH 0 0
DWIDTH 0 0
BBX 0 0 0 0
BITMAP
ENDCHAR
STARTCHAR 2264
ENCODING 8804
SWIDTH 480 0
DWIDTH 32 0
BBX 28 44 2 1
BITMAP
00000010
00000070
000001F0
000003F0
00000FF0
00001FE0
00007FC0
0000FF00
0003FE00
000FF800
001FE000
007FC000
00FF0000
03FE0000
0FFF0000
1FFF8000
7FFFC000
FFFFF000
7FFFF800
3FFFFE00
0FFFFF00
07FFFF80
03FFFFE0
00FFFFF0
007FFFF0
001FFFF0
000FFFF0
0007FFF0
0001FFF0
0000FFF0
00007FF0
00001FF0
00000FF0
000003F0
000001F0
000000F0
00000030
00000010
00000000
FFFFFFF0
FFFFFFF0
FFFFFFF0
FFFFFFF0
FFFFFFF0
ENDCHAR
STARTCHAR 2265
ENCODING 8805
SWIDTH 480 0
DWIDTH 32 0
BBX 28 44 2 1
BITMAP
80000000
E0000000
F0000000
F8000000
FE000000
FF000000
FF800000
FFE00000
FFF00000
FFFC0000
FFFE0000
FFFF0000
FFFFC000
FFFFE000
FFFFF000
3FFFFC00
1FFFFE00
07FFFF80
03FFFFC0
01FFFFE0
007FFFF0
003FFFE0
000FFF80
0007FE00
0007FC00
001FF000
007FE000
00FF8000
03FE0000
07FC0000
1FF00000
3FE00000
FF800000
FE000000
FC000000
F0000000
E0000000
80000000
00000000
FFFFFFF0
FFFFFFF0
FFFFFFF0
FFFFFFF0
FFFFFFF0
ENDCHAR
STARTCHAR 2302
ENCODING 8962
SWIDTH 0 0
DWIDTH 0 0
BBX 0 0 0 0
BITMAP
ENDCHAR
STARTCHAR 2310
ENCODING 8976
SWIDTH 0 0
DWIDTH 0 0
BBX 0 0 0 0
BITMAP
ENDCHAR
STARTCHAR 2320
ENCODING 8992
SWIDTH 0 0
DWIDTH 0 0
BBX 0 0 0 0
BITMAP
ENDCHAR
STARTCHAR 2321
ENCODING 8993
SWIDTH 0 0
DWIDTH 0 0
BBX 0 0 0 0
BITMAP
ENDCHAR
STARTCHAR 2500
ENCODING 9472
SWIDTH 0 0
DWIDTH 0 0
BBX 0 0 0 0
BITMAP
ENDCHAR
STARTCHAR 2502
ENCODING 9474
SWIDTH 0 0
DWIDTH 0 0
BBX 0 0 0 0
BITMAP
ENDCHAR
STARTCHAR 250C
ENCODING 9484
SWIDTH 0 0
DWIDTH 0 0
BBX 0 0 0 0
BITMAP
ENDCHAR
STARTCHAR 2510
ENCODING 9488
SWIDTH 0 0
DWIDTH 0 0
BBX 0 0 0 0
BITMAP
ENDCHAR
STARTCHAR 2514
ENCODING 9492
SWIDTH 0 0
DWIDTH 0 0
BBX 0 0 0 0
BITMAP
ENDCHAR
STARTCHAR 2518
ENCODING 9496
SWIDTH 0 0
DWIDTH 0 0
BBX 0 0 0 0
BITMAP
ENDCHAR
STARTCHAR 251C
ENCODING 9500
SWIDTH 0 0
DWIDTH 0 0
BBX 0 0 0 0
BITMAP
ENDCHAR
STARTCHAR 2524
ENCODING 9508
SWIDTH 0 0
DWIDTH 0 0
BBX 0 0 0 0
BITMAP
ENDCHAR
STARTCHAR 252C
ENCODING 9516
SWIDTH 0 0
DWIDTH 0 0
BBX 0 0 0 0
BITMAP
ENDCHAR
STARTCHAR 2534
ENCODING 9524
SWIDTH 0 0
DWIDTH 0 0
BBX 0 0 0 0
BITMAP
ENDCHAR
STARTCHAR 253C
ENCODING 9532
SWIDTH 0 0
DWIDTH 0 0
BBX 0 0 0 0
BITMAP
ENDCHAR
STARTCHAR 2550
ENCODING 9552
SWIDTH 0 0
DWIDTH 0 0
BBX 0 0 0 0
BITMAP
ENDCHAR
STARTCHAR 2551
ENCODING 9553
SWIDTH 0 0
DWIDTH 0 0
BBX 0 0 0 0
BITMAP
ENDCHAR
STARTCHAR 2552
ENCODING 9554
SWIDTH 0 0
DWIDTH 0 0
BBX 0 0 0 0
BITMAP
ENDCHAR
STARTCHAR 2553
ENCODING 9555
SWIDTH 0 0
DWIDTH 0 0
BBX 0 0 0 0
BITMAP
ENDCHAR
STARTCHAR 2554
ENCODING 9556
SWIDTH 0 0
DWIDTH 0 0
BBX 0 0 0 0
BITMAP
ENDCHAR
STARTCHAR 2555
ENCODING 9557
SWIDTH 0 0
DWIDTH 0 0
BBX 0 0 0 0
BITMAP
ENDCHAR
STARTCHAR 2556
ENCODING 9558
SWIDTH 0 0
DWIDTH 0 0
BBX 0 0 0 0
BITMAP
ENDCHAR
STARTCHAR 2557
ENCODING 9559
SWIDTH 0 0
DWIDTH 0 0
BBX 0 0 0 0
BITMAP
ENDCHAR
STARTCHAR 2558
ENCODING 9560
SWIDTH 0 0
DWIDTH 0 0
BBX 0 0 0 0
BITMAP
ENDCHAR
STARTCHAR 2559
ENCODING 9561
SWIDTH 0 0
DWIDTH 0 0
BBX 0 0 0 0
BITMAP
ENDCHAR
STARTCHAR 255A
ENCODING 9562
SWIDTH 0 0
DWIDTH 0 0
BBX 0 0 0 0
BITMAP
ENDCHAR
STARTCHAR 255B
ENCODING 9563
SWIDTH 0 0
DWIDTH 0 0
BBX 0 0 0 0
BITMAP
ENDCHAR
STARTCHAR 255C
ENCODING 9564
SWIDTH 0 0
DWIDTH 0 0
BBX 0 0 0 0
BITMAP
ENDCHAR
STARTCHAR 255D
ENCODING 9565
SWIDTH 0 0
DWIDTH 0 0
BBX 0 0 0 0
BITMAP
ENDCHAR
STARTCHAR 255E
ENCODING 9566
SWIDTH 0 0
DWIDTH 0 0
BBX 0 0 0 0
BITMAP
ENDCHAR
STARTCHAR 255F
ENCODING 9567
SWIDTH 0 0
DWIDTH 0 0
BBX 0 0 0 0
BITMAP
ENDCHAR
STARTCHAR 2560
ENCODING 9568
SWIDTH 0 0
DWIDTH 0 0
BBX 0 0 0 0
BITMAP
ENDCHAR
STARTCHAR 2561
ENCODING 9569
SWIDTH 0 0
DWIDTH 0 0
BBX 0 0 0 0
BITMAP
ENDCHAR
STARTCHAR 2562
ENCODING 9570
SWIDTH 0 0
DWIDTH 0 0
BBX 0 0 0 0
BITMAP
ENDCHAR
STARTCHAR 2563
ENCODING 9571
SWIDTH 0 0
DWIDTH 0 0
BBX 0 0 0 0
BITMAP
ENDCHAR
STARTCHAR 2564
ENCODING 9572
SWIDTH 0 0
DWIDTH 0 0
BBX 0 0 0 0
BITMAP
ENDCHAR
STARTCHAR 2565
ENCODING 9573
SWIDTH 0 0
DWIDTH 0 0
BBX 0 0 0 0
BITMAP
ENDCHAR
STARTCHAR 2566
ENCODING 9574
SWIDTH 0 0
DWIDTH 0 0
BBX 0 0 0 0
BITMAP
ENDCHAR
STARTCHAR 2567
ENCODING 9575
SWIDTH 0 0
DWIDTH 0 0
BBX 0 0 0 0
BITMAP
ENDCHAR
STARTCHAR 2568
ENCODING 9576
SWIDTH 0 0
DWIDTH 0 0
BBX 0 0 0 0
BITMAP
ENDCHAR
STARTCHAR 2569
ENCODING 9577
SWIDTH 0 0
DWIDTH 0 0
BBX 0 0 0 0
BITMAP
ENDCHAR
STARTCHAR 256A
ENCODING 9578
SWIDTH 0 0
DWIDTH 0 0
BBX 0 0 0 0
BITMAP
ENDCHAR
STARTCHAR 256B
ENCODING 9579
SWIDTH 0 0
DWIDTH 0 0
BBX 0 0 0 0
BITMAP
ENDCHAR
STARTCHAR 256C
ENCODING 9580
SWIDTH 0 0
DWIDTH 0 0
BBX 0 0 0 0
BITMAP
ENDCHAR
STARTCHAR 2580
ENCODING 9600
SWIDTH 0 0
DWIDTH 0 0
BBX 0 0 0 0
BITMAP
ENDCHAR
STARTCHAR 2584
ENCODING 9604
SWIDTH 0 0
DWIDTH 0 0
BBX 0 0 0 0
BITMAP
ENDCHAR
STARTCHAR 2588
ENCODING 9608
SWIDTH 0 0
DWIDTH 0 0
BBX 0 0 0 0
BITMAP
ENDCHAR
STARTCHAR 258C
ENCODING 9612
SWIDTH 0 0
DWIDTH 0 0
BBX 0 0 0 0
BITMAP
ENDCHAR
STARTCHAR 2590
ENCODING 9616
SWIDTH 0 0
DWIDTH 0 0
BBX 0 0 0 0
BITMAP
ENDCHAR
STARTCHAR 2591
ENCODING 9617
SWIDTH 0 0
DWIDTH 0 0
BBX 0 0 0 0
BITMAP
ENDCHAR
STARTCHAR 2592
ENCODING 9618
SWIDTH 0 0
DWIDTH 0 0
BBX 0 0 0 0
BITMAP
ENDCHAR
STARTCHAR 2593
ENCODING 9619
SWIDTH 0 0
DWIDTH 0 0
BBX 0 0 0 0
BITMAP
ENDCHAR
STARTCHAR 25A0
ENCODING 9632
SWIDTH 0 0
DWIDTH 0 0
BBX 0 0 0 0
BITMAP
ENDCHAR
STARTCHAR 25AC
ENCODING 9644
SWIDTH 0 0
DWIDTH 0 0
BBX 0 0 0 0
BITMAP
ENDCHAR
STARTCHAR 25B2
ENCODING 9650
SWIDTH 0 0
DWIDTH 0 0
BBX 0 0 0 0
BITMAP
ENDCHAR
STARTCHAR 25BA
ENCODING 9658
SWIDTH 0 0
DWIDTH 0 0
BBX 0 0 0 0
BITMAP
ENDCHAR
STARTCHAR 25BC
ENCODING 9660
SWIDTH 0 0
DWIDTH 0 0
BBX 0 0 0 0
BITMAP
ENDCHAR
STARTCHAR 25C4
ENCODING 9668
SWIDTH 0 0
DWIDTH 0 0
BBX 0 0 0 0
BITMAP
ENDCHAR
STARTCHAR 25CA
ENCODING 9674
SWIDTH 660 0
DWIDTH 44 0
BBX 35 47 5 -1
BITMAP
0000C00000
0000E00000
0001F00000
0003F00000
0007F80000
0007FC0000
000F3C0000
001F1E0000
001E0F0000
003C0F8000
0078078000
00F803C000
00F001E000
01E001E000
03E000F000
03C0007800
0780007C00
0F00003C00
1F00001E00
1E00000F00
3C00000F00
7C00000780
78000003C0
F0000003E0
78000003C0
7C00000780
3C00000F00
1E00000F00
0F00001E00
0F00003C00
0780007C00
03C0007800
03E000F000
01E001E000
00F003E000
007803C000
0078078000
003C0F8000
001E0F0000
001F1E0000
000F3C0000
0007FC0000
0003F80000
0003F00000
0001F00000
0000E00000
0000C00000
ENDCHAR
STARTCHAR 25CB
ENCODING 9675
SWIDTH 0 0
DWIDTH 0 0
BBX 0 0 0 0
BITMAP
ENDCHAR
STARTCHAR 25D8
ENCODING 9688
SWIDTH 0 0
DWIDTH 0 0
BBX 0 0 0 0
BITMAP
ENDCHAR
STARTCHAR 25D9
ENCODING 9689
SWIDTH 0 0
DWIDTH 0 0
BBX 0 0 0 0
BITMAP
ENDCHAR
STARTCHAR 263A
ENCODING 9786
SWIDTH 0 0
DWIDTH 0 0
BBX 0 0 0 0
BITMAP
ENDCHAR
STARTCHAR 263B
ENCODING 9787
SWIDTH 0 0
DWIDTH 0 0
BBX 0 0 0 0
BITMAP
ENDCHAR
STARTCHAR 263C
ENCODING 9788
SWIDTH 0 0
DWIDTH 0 0
BBX 0 0 0 0
BITMAP
ENDCHAR
STARTCHAR 2640
ENCODING 9792
SWIDTH 0 0
DWIDTH 0 0
BBX 0 0 0 0
BITMAP
ENDCHAR
STARTCHAR 2642
ENCODING 9794
SWIDTH 0 0
DWIDTH 0 0
BBX 0 0 0 0
BITMAP
ENDCHAR
STARTCHAR 2660
ENCODING 9824
SWIDTH 0 0
DWIDTH 0 0
BBX 0 0 0 0
BITMAP
ENDCHAR
STARTCHAR 2663
ENCODING 9827
SWIDTH 0 0
DWIDTH 0 0
BBX 0 0 0 0
BITMAP
ENDCHAR
STARTCHAR 2665
ENCODING 9829
SWIDTH 0 0
DWIDTH 0 0
BBX 0 0 0 0
BITMAP
ENDCHAR
STARTCHAR 2666
ENCODING 9830
SWIDTH 0 0
DWIDTH 0 0
BBX 0 0 0 0
BITMAP
ENDCHAR
STARTCHAR 266A
ENCODING 9834
SWIDTH 0 0
DWIDTH 0 0
BBX 0 0 0 0
BITMAP
ENDCHAR
STARTCHAR 266B
ENCODING 9835
SWIDTH 0 0
DWIDTH 0 0
BBX 0 0 0 0
BITMAP
ENDCHAR
STARTCHAR F000
ENCODING 61440
SWIDTH 0 0
DWIDTH 0 0
BBX 0 0 0 0
BITMAP
ENDCHAR
STARTCHAR F001
ENCODING 61441
SWIDTH 0 0
DWIDTH 0 0
BBX 0 0 0 0
BITMAP
ENDCHAR
STARTCHAR F002
ENCODING 61442
SWIDTH 0 0
DWIDTH 0 0
BBX 0 0 0 0
BITMAP
ENDCHAR
ENDFONT
